SplineFontDB: 3.0
FontName: PaytoneOne
FullName: Paytone One
FamilyName: Paytone One
Weight: Book
Copyright: Copyright (c) 2011 by vernon adams. All rights reserved.
Version: 1.000
ItalicAngle: 0
UnderlinePosition: -104
UnderlineWidth: 102
Ascent: 1638
Descent: 410
sfntRevision: 0x00010000
LayerCount: 2
Layer: 0 1 "Back"  1
Layer: 1 1 "Fore"  0
XUID: [1021 759 1887733602 4378284]
FSType: 0
OS2Version: 2
OS2_WeightWidthSlopeOnly: 0
OS2_UseTypoMetrics: 1
CreationTime: 1302188225
ModificationTime: 1304382694
PfmFamily: 81
TTFWeight: 400
TTFWidth: 5
LineGap: 0
VLineGap: 0
Panose: 0 0 0 0 0 0 0 0 0 0
OS2TypoAscent: 642
OS2TypoAOffset: 1
OS2TypoDescent: -170
OS2TypoDOffset: 1
OS2TypoLinegap: 0
OS2WinAscent: -75
OS2WinAOffset: 1
OS2WinDescent: -302
OS2WinDOffset: 1
HheadAscent: -75
HheadAOffset: 1
HheadDescent: 302
HheadDOffset: 1
OS2SubXSize: 1434
OS2SubYSize: 1331
OS2SubXOff: 0
OS2SubYOff: 287
OS2SupXSize: 1434
OS2SupYSize: 1331
OS2SupXOff: 0
OS2SupYOff: 977
OS2StrikeYSize: 102
OS2StrikeYPos: 512
OS2Vendor: 'pyrs'
OS2CodePages: 00000001.00000000
OS2UnicodeRanges: 00000003.08000000.14000000.00000000
Lookup: 258 0 0 "'kern' Horizontal Kerning in Latin lookup 0"  {"'kern' Horizontal Kerning in Latin lookup 0 subtable"  } ['kern' ('DFLT' <'dflt' > 'latn' <'dflt' > ) ]
Lookup: 258 0 0 "'kern' Horizontal Kerning in Latin lookup 1"  {"'kern' Horizontal Kerning in Latin lookup 1 subtable"  } ['kern' ('DFLT' <'dflt' > 'latn' <'dflt' > ) ]
MarkAttachClasses: 1
DEI: 91125
KernClass2: 81 63 "'kern' Horizontal Kerning in Latin lookup 1 subtable" 
 20 quotedbl quotesingle
 8 asterisk
 5 comma
 20 hyphen endash emdash
 6 period
 5 slash
 4 zero
 3 one
 4 four
 4 five
 5 seven
 5 eight
 4 nine
 9 backslash
 10 registered
 12 questiondown
 22 quoteleft quotedblleft
 24 quoteright quotedblright
 27 quotesinglbase quotedblbase
 27 guillemotleft guilsinglleft
 29 guillemotright guilsinglright
 9 trademark
 9 ampersand

StartChar: .notdef
Encoding: 65536 -1 0
Width: 748
Flags: W
LayerCount: 2
Fore
SplineSet
68 0 m 1,0,-1
 68 1365 l 1,1,-1
 612 1365 l 1,2,-1
 612 0 l 1,3,-1
 68 0 l 1,0,-1
136 68 m 1,4,-1
 544 68 l 1,5,-1
 544 1297 l 1,6,-1
 136 1297 l 1,7,-1
 136 68 l 1,4,-1
EndSplineSet
EndChar

StartChar: exclam
Encoding: 33 33 7
Width: 625
Flags: W
LayerCount: 2
Fore
SplineSet
94 1096 m 1,0,-1
 94 1414 l 1,1,-1
 526 1414 l 1,2,-1
 526 1096 l 1,3,-1
 446 516 l 1,4,-1
 176 516 l 1,5,-1
 94 1096 l 1,0,-1
86 176 m 0,6,7
 86 245.394972848 86 245.394972848 126.668980826 294.184632147 c 128,-1,8
 167.337961651 342.974291445 167.337961651 342.974291445 228.5 366 c 0,9,10
 271 382 271 382 318 382 c 0,11,12
 391.281584025 382 391.281584025 382 446.092024132 346.977831343 c 128,-1,13
 500.90246424 311.955662685 500.90246424 311.955662685 529 256.5 c 0,14,15
 548 219 548 219 548 176 c 0,16,17
 548 107.689126555 548 107.689126555 506.786960504 58.0369692608 c 128,-1,18
 465.573921008 8.38481196701 465.573921008 8.38481196701 405.5 -15.5 c 0,19,20
 364 -32 364 -32 318 -32 c 0,21,22
 243.424259259 -32 243.424259259 -32 187.735167852 3.70943500178 c 128,-1,23
 132.046076446 39.4188700036 132.046076446 39.4188700036 104.5 96 c 0,24,25
 86 134 86 134 86 176 c 0,6,7
EndSplineSet
EndChar

StartChar: quotedbl
Encoding: 34 34 8
Width: 792
Flags: W
LayerCount: 2
Fore
SplineSet
446 1534 m 1,0,-1
 742 1534 l 1,1,-1
 684 1026 l 1,2,-1
 488 1026 l 1,3,-1
 446 1534 l 1,0,-1
60 1534 m 1,4,-1
 354 1534 l 1,5,-1
 296 1026 l 1,6,-1
 100 1026 l 1,7,-1
 60 1534 l 1,4,-1
EndSplineSet
EndChar

StartChar: numbersign
Encoding: 35 35 9
Width: 1068
Flags: W
LayerCount: 2
Fore
SplineSet
212 502 m 1,0,-1
 56 502 l 1,1,-1
 72 624 l 1,2,-1
 240 624 l 1,3,-1
 278 776 l 1,4,-1
 94 776 l 1,5,-1
 110 902 l 1,6,-1
 308 902 l 1,7,-1
 426 1376 l 1,8,-1
 608 1376 l 1,9,-1
 490 902 l 1,10,-1
 684 902 l 1,11,-1
 800 1376 l 1,12,-1
 982 1376 l 1,13,-1
 866 902 l 1,14,-1
 1012 902 l 1,15,-1
 996 776 l 1,16,-1
 832 776 l 1,17,-1
 796 624 l 1,18,-1
 974 624 l 1,19,-1
 958 502 l 1,20,-1
 764 502 l 1,21,-1
 642 0 l 1,22,-1
 464 0 l 1,23,-1
 586 502 l 1,24,-1
 390 502 l 1,25,-1
 268 0 l 1,26,-1
 90 0 l 1,27,-1
 212 502 l 1,0,-1
616 624 m 1,28,-1
 652 776 l 1,29,-1
 458 776 l 1,30,-1
 420 624 l 1,31,-1
 616 624 l 1,28,-1
EndSplineSet
EndChar

StartChar: dollar
Encoding: 36 36 10
Width: 1159
Flags: W
LayerCount: 2
Fore
SplineSet
64 976 m 0,0,1
 64 1170 64 1170 172.5 1275 c 128,-1,2
 281 1380 281 1380 470 1404 c 1,3,-1
 470 1576 l 1,4,-1
 676 1576 l 1,5,-1
 676 1410 l 1,6,7
 860 1393 860 1393 1028 1290 c 1,8,-1
 924 1056 l 1,9,-1
 812 1092 l 2,10,11
 742 1114 742 1114 676 1124 c 1,12,-1
 676 836 l 1,13,14
 800.224826254 793.691544681 800.224826254 793.691544681 886.584586198 743.279228304 c 128,-1,15
 972.944346141 692.866911927 972.944346141 692.866911927 1029.5 620.5 c 0,16,17
 1108 520.053763441 1108 520.053763441 1108 374 c 0,18,19
 1108 225.236842105 1108 225.236842105 988 110.5 c 0,20,21
 930.582386079 55.6007024786 930.582386079 55.6007024786 850.822491454 20.7710573902 c 128,-1,22
 771.06259683 -14.0585876981 771.06259683 -14.0585876981 676 -20 c 1,23,-1
 676 -186 l 1,24,-1
 470 -186 l 1,25,-1
 470 -30 l 1,26,27
 232 -8 232 -8 84 88 c 1,28,-1
 186 334 l 1,29,30
 362 275 362 275 470 270 c 1,31,-1
 470 540 l 1,32,33
 399 557 399 557 342.5 579 c 128,-1,34
 286 601 286 601 232 637 c 128,-1,35
 178 673 178 673 142.5 718.5 c 128,-1,36
 107 764 107 764 85.5 829.5 c 128,-1,37
 64 895 64 895 64 976 c 0,0,1
470 1102 m 1,38,39
 432 1083 432 1083 411 1060 c 128,-1,40
 390 1037 390 1037 390 998 c 0,41,42
 390 956 390 956 409 933.5 c 128,-1,43
 428 911 428 911 470 894 c 1,44,-1
 470 1102 l 1,38,39
676 290 m 1,45,46
 699 299 699 299 711.5 305 c 128,-1,47
 724 311 724 311 739 322 c 128,-1,48
 754 333 754 333 761 349 c 128,-1,49
 768 365 768 365 768 386 c 0,50,51
 768 417 768 417 740.5 440.5 c 128,-1,52
 713 464 713 464 676 474 c 1,53,-1
 676 290 l 1,45,46
EndSplineSet
EndChar

StartChar: percent
Encoding: 37 37 11
Width: 1818
Flags: W
LayerCount: 2
Fore
SplineSet
998 1376 m 1,0,-1
 1140 1376 l 1,1,-1
 800 0 l 1,2,-1
 662 0 l 1,3,-1
 998 1376 l 1,0,-1
1396 -32 m 256,4,5
 1261 -32 1261 -32 1172 37.5 c 128,-1,6
 1083 107 1083 107 1047 221 c 0,7,8
 1024 293 1024 293 1024 368 c 0,9,10
 1024 497 1024 497 1081.5 592 c 128,-1,11
 1139 687 1139 687 1234 735 c 0,12,13
 1304 770 1304 770 1396 770 c 0,14,15
 1529 770 1529 770 1617.5 699 c 128,-1,16
 1706 628 1706 628 1744 514 c 0,17,18
 1768 442 1768 442 1768 368 c 0,19,20
 1768 238.678836258 1768 238.678836258 1711.14138902 144.362841454 c 128,-1,21
 1654.28277804 50.0468466505 1654.28277804 50.0468466505 1558.5 2.5 c 0,22,23
 1489 -32 1489 -32 1396 -32 c 256,4,5
1396 172 m 0,24,25
 1436 172 1436 172 1464 204 c 128,-1,26
 1492 236 1492 236 1503 278.5 c 128,-1,27
 1514 321 1514 321 1514 368 c 0,28,29
 1514 426.635704303 1514 426.635704303 1496.29976408 473.84302909 c 128,-1,30
 1478.59952816 521.050353877 1478.59952816 521.050353877 1446 545.5 c 0,31,32
 1424 562 1424 562 1396 562 c 0,33,34
 1336 562 1336 562 1307 504 c 128,-1,35
 1278 446 1278 446 1278 368 c 0,36,37
 1278 241 1278 241 1345 189 c 0,38,39
 1367 172 1367 172 1396 172 c 0,24,25
420 614 m 0,40,41
 286 614 286 614 197.5 683.5 c 128,-1,42
 109 753 109 753 73 866 c 0,43,44
 50 938 50 938 50 1014 c 256,45,46
 50 1144 50 1144 107.5 1238.5 c 128,-1,47
 165 1333 165 1333 262 1380 c 0,48,49
 332 1414 332 1414 425 1414 c 0,50,51
 492.780934086 1414 492.780934086 1414 550.624261104 1394.12265041 c 128,-1,52
 608.467588122 1374.24530082 608.467588122 1374.24530082 650.677461991 1338.75559809 c 128,-1,53
 692.887335859 1303.26589535 692.887335859 1303.26589535 722.768188024 1258.03919505 c 128,-1,54
 752.64904019 1212.81249474 752.64904019 1212.81249474 770.5 1158.5 c 0,55,56
 794 1087 794 1087 794 1014 c 0,57,58
 794 884 794 884 737 789.5 c 128,-1,59
 680 695 680 695 583 648 c 0,60,61
 513 614 513 614 420 614 c 0,40,41
420 816 m 256,62,63
 461 816 461 816 489.5 848 c 128,-1,64
 518 880 518 880 529 922.5 c 128,-1,65
 540 965 540 965 540 1014 c 0,66,67
 540 1072.91152747 540 1072.91152747 522.226425681 1120.12305157 c 128,-1,68
 504.452851363 1167.33457567 504.452851363 1167.33457567 471.5 1191.5 c 0,69,70
 449 1208 449 1208 420 1208 c 256,71,72
 379 1208 379 1208 351.5 1176.5 c 128,-1,73
 324 1145 324 1145 314 1103.5 c 128,-1,74
 304 1062 304 1062 304 1014 c 0,75,76
 304 954.675326006 304 954.675326006 320.906662511 906.364953111 c 128,-1,77
 337.813325022 858.054580215 337.813325022 858.054580215 369.5 833 c 0,78,79
 391 816 391 816 420 816 c 256,62,63
EndSplineSet
EndChar

StartChar: ampersand
Encoding: 38 38 12
Width: 1375
Flags: W
LayerCount: 2
Fore
SplineSet
1305 504 m 1,0,1
 1232 363 1232 363 1133 278 c 1,2,-1
 1375 0 l 1,3,-1
 963 0 l 1,4,-1
 874 103 l 1,5,6
 762 11 762 11 621 -21 c 0,7,8
 573 -32 573 -32 525 -32 c 0,9,10
 367.233390303 -32 367.233390303 -32 256.650485775 29.8318994893 c 128,-1,11
 146.067581247 91.6637989787 146.067581247 91.6637989787 93.5 204 c 0,12,13
 57 282 57 282 57 384 c 0,14,15
 57 462 57 462 79 523.5 c 128,-1,16
 101 585 101 585 144 629 c 128,-1,17
 187 673 187 673 232.5 702 c 128,-1,18
 278 731 278 731 341 760 c 1,19,20
 199 917 199 917 199 1056 c 0,21,22
 199 1208.44186047 199 1208.44186047 339.5 1313 c 0,23,24
 380.347926311 1343.39845679 380.347926311 1343.39845679 429.77012956 1365.5736707 c 128,-1,25
 479.192332808 1387.7488846 479.192332808 1387.7488846 540.599638926 1400.8744423 c 128,-1,26
 602.006945044 1414 602.006945044 1414 667 1414 c 0,27,28
 813 1414 813 1414 914.5 1355.5 c 128,-1,29
 1016 1297 1016 1297 1060 1192 c 0,30,31
 1087 1128 1087 1128 1087 1060 c 0,32,33
 1087 888.66 1087 888.66 935 762.5 c 0,34,35
 885 721 885 721 819 692 c 1,36,37
 842 665 842 665 886.5 609.5 c 128,-1,38
 931 554 931 554 957 524 c 1,39,-1
 1121 700 l 1,40,-1
 1305 504 l 1,0,1
421 398 m 0,41,42
 421 341 421 341 454 305.5 c 128,-1,43
 487 270 487 270 543 270 c 0,44,45
 623 270 623 270 667 314 c 1,46,-1
 499 528 l 1,47,48
 421 485 421 485 421 398 c 0,41,42
669 1146 m 0,49,50
 563 1146 563 1146 563 1052 c 0,51,52
 563 1013 563 1013 589 978.5 c 128,-1,53
 615 944 615 944 663 906 c 1,54,55
 717 930 717 930 741 961 c 128,-1,56
 765 992 765 992 765 1052 c 0,57,58
 765 1095 765 1095 739 1120.5 c 128,-1,59
 713 1146 713 1146 669 1146 c 0,49,50
EndSplineSet
EndChar

StartChar: quotesingle
Encoding: 39 39 13
Width: 406
Flags: W
LayerCount: 2
Fore
SplineSet
60 1534 m 1,0,-1
 356 1534 l 1,1,-1
 298 1026 l 1,2,-1
 102 1026 l 1,3,-1
 60 1534 l 1,0,-1
EndSplineSet
EndChar

StartChar: parenleft
Encoding: 40 40 14
Width: 855
Flags: W
LayerCount: 2
Fore
SplineSet
809 -264 m 1,0,1
 526.069554563 -237.883343498 526.069554563 -237.883343498 343.864135825 -83.2436165295 c 128,-1,2
 161.658717086 71.3961104391 161.658717086 71.3961104391 88 324.5 c 0,3,4
 41 486 41 486 41 668 c 0,5,6
 41 886.477143312 41 886.477143312 105.187553346 1060.02129522 c 128,-1,7
 169.375106692 1233.56544713 169.375106692 1233.56544713 285.744498912 1349.33422119 c 128,-1,8
 402.113891132 1465.10299525 402.113891132 1465.10299525 566 1527.5 c 0,9,10
 675 1569 675 1569 809 1582 c 1,11,-1
 809 1322 l 1,12,13
 688.949267193 1302.63697858 688.949267193 1302.63697858 606.5 1177 c 0,14,15
 497 1010.14285714 497 1010.14285714 497 668 c 0,16,17
 497 456.90958655 497 456.90958655 536.662308687 304.697902735 c 128,-1,18
 576.324617373 152.48621892 576.324617373 152.48621892 670.5 66.5 c 0,19,20
 731.876404494 10.4606741573 731.876404494 10.4606741573 809 -4 c 1,21,-1
 809 -264 l 1,0,1
EndSplineSet
EndChar

StartChar: parenright
Encoding: 41 41 15
Width: 855
Flags: W
LayerCount: 2
Fore
SplineSet
46 -4 m 1,0,1
 166.249056604 16.041509434 166.249056604 16.041509434 248 142.5 c 0,2,3
 358 312.65625 358 312.65625 358 668 c 0,4,5
 358 1100 358 1100 182 1256 c 0,6,7
 121 1310 121 1310 46 1322 c 1,8,-1
 46 1582 l 1,9,10
 218.065649807 1565.30706382 218.065649807 1565.30706382 354.635782761 1500.24473595 c 128,-1,11
 491.205915716 1435.18240808 491.205915716 1435.18240808 583.588023467 1333.84013338 c 128,-1,12
 675.970131217 1232.49785869 675.970131217 1232.49785869 734 1094.5 c 0,13,14
 814 904.256097561 814 904.256097561 814 668 c 0,15,16
 814 370.538438136 814 370.538438136 701.676027923 158.096168687 c 128,-1,17
 589.352055847 -54.3461007624 589.352055847 -54.3461007624 385.5 -166.5 c 0,18,19
 241 -246 241 -246 46 -264 c 1,20,-1
 46 -4 l 1,0,1
EndSplineSet
EndChar

StartChar: asterisk
Encoding: 42 42 16
Width: 1096
Flags: W
LayerCount: 2
Fore
SplineSet
381 884 m 1,0,-1
 65 1022 l 1,1,-1
 175 1240 l 1,2,-1
 451 1074 l 1,3,-1
 429 1408 l 1,4,-1
 677 1408 l 1,5,-1
 651 1076 l 1,6,-1
 919 1244 l 1,7,-1
 1035 1022 l 1,8,-1
 715 884 l 1,9,-1
 949 638 l 1,10,-1
 741 474 l 1,11,-1
 545 770 l 1,12,-1
 353 474 l 1,13,-1
 147 640 l 1,14,-1
 381 884 l 1,0,-1
EndSplineSet
EndChar

StartChar: plus
Encoding: 43 43 17
Width: 1092
Flags: W
LayerCount: 2
Fore
SplineSet
488 458 m 1,0,-1
 48 458 l 1,1,-1
 48 572 l 1,2,-1
 488 572 l 1,3,-1
 488 1026 l 1,4,-1
 608 1026 l 1,5,-1
 608 572 l 1,6,-1
 1044 572 l 1,7,-1
 1044 458 l 1,8,-1
 608 458 l 1,9,-1
 608 0 l 1,10,-1
 488 0 l 1,11,-1
 488 458 l 1,0,-1
EndSplineSet
EndChar

StartChar: comma
Encoding: 44 44 18
Width: 604
Flags: W
LayerCount: 2
Fore
SplineSet
94 -106 m 1,0,1
 166 -106 166 -106 204.5 -103.5 c 0,2,3
 240.047143002 -101.191743961 240.047143002 -101.191743961 259.366723658 -91.9133938657 c 128,-1,4
 278.686304313 -82.6350437706 278.686304313 -82.6350437706 281.5 -59 c 0,5,6
 284 -38 284 -38 284 0 c 1,7,-1
 94 0 l 1,8,-1
 94 382 l 1,9,-1
 514 382 l 1,10,11
 513.030315524 342.242936474 513.030315524 342.242936474 512.048208696 278.145704918 c 128,-1,12
 511.066101869 214.048473362 511.066101869 214.048473362 510.164162735 174.204714024 c 128,-1,13
 509.2622236 134.360954686 509.2622236 134.360954686 507.253804048 83.7204058212 c 128,-1,14
 505.245384495 33.0798569558 505.245384495 33.0798569558 501.230435825 -11.3622916878 c 128,-1,15
 497.215487156 -55.8044403314 497.215487156 -55.8044403314 491 -97.5 c 0,16,17
 473.828046049 -212.695191089 473.828046049 -212.695191089 425.261788966 -268.651032016 c 128,-1,18
 376.695531883 -324.606872944 376.695531883 -324.606872944 269 -337.5 c 0,19,20
 198 -346 198 -346 94 -346 c 1,21,-1
 94 -106 l 1,0,1
EndSplineSet
EndChar

StartChar: hyphen
Encoding: 45 45 19
Width: 740
Flags: W
LayerCount: 2
Fore
SplineSet
95 650 m 1,0,-1
 645 650 l 1,1,-1
 645 408 l 1,2,-1
 95 408 l 1,3,-1
 95 650 l 1,0,-1
EndSplineSet
EndChar

StartChar: period
Encoding: 46 46 20
Width: 574
Flags: W
LayerCount: 2
Fore
SplineSet
58 176 m 0,0,1
 58 243.642488354 58 243.642488354 98.901831464 292.70390006 c 128,-1,2
 139.803662928 341.765311767 139.803662928 341.765311767 199.5 365.5 c 0,3,4
 241 382 241 382 288 382 c 0,5,6
 361.025062205 382 361.025062205 382 415.854833315 346.19282458 c 128,-1,7
 470.684604425 310.385649161 470.684604425 310.385649161 499 254.5 c 0,8,9
 518 217 518 217 518 176 c 0,10,11
 518 106.752471046 518 106.752471046 477.029054113 57.0500877113 c 128,-1,12
 436.058108226 7.34770437618 436.058108226 7.34770437618 375.5 -16 c 0,13,14
 334 -32 334 -32 288 -32 c 0,15,16
 213.875437151 -32 213.875437151 -32 159.047437553 3.15597504531 c 128,-1,17
 104.219437955 38.3119500906 104.219437955 38.3119500906 76.5 94.5 c 0,18,19
 58 132 58 132 58 176 c 0,0,1
EndSplineSet
EndChar

StartChar: slash
Encoding: 47 47 21
Width: 658
Flags: W
LayerCount: 2
Fore
SplineSet
396 1408 m 1,0,-1
 600 1408 l 1,1,-1
 260 0 l 1,2,-1
 60 0 l 1,3,-1
 396 1408 l 1,0,-1
EndSplineSet
EndChar

StartChar: zero
Encoding: 48 48 22
Width: 1420
Flags: W
LayerCount: 2
Fore
SplineSet
1185.92773438 1177.95507812 m 1,0,1
 1352 976.61248461 1352 976.61248461 1352 692 c 128,-1,2
 1352 407.319558685 1352 407.319558685 1187.34179688 204.438476562 c 1,3,4
 1009.16221063 -17 1009.16221063 -17 710.110905217 -17 c 0,5,6
 603.53744338 -16.0130806932 603.53744338 -16.0130806932 512.494138885 11.7605359655 c 128,-1,7
 421.450834391 39.5341526242 421.450834391 39.5341526242 352.115923183 89.9128801722 c 128,-1,8
 282.781011975 140.29160772 282.781011975 140.29160772 230.885911259 204.892890702 c 128,-1,9
 178.990810544 269.494173683 178.990810544 269.494173683 141.08203125 350.366210938 c 0,10,11
 68 506.276579102 68 506.276579102 68 692 c 0,12,13
 68 775.044041094 68 775.044041094 82.3092518217 851.868228312 c 128,-1,14
 96.6185036434 928.692415531 96.6185036434 928.692415531 122.357018366 992.925420125 c 128,-1,15
 148.095533088 1057.15842472 148.095533088 1057.15842472 184.757200766 1113.61165019 c 128,-1,16
 221.418868444 1170.06487565 221.418868444 1170.06487565 265.157612726 1214.53376388 c 128,-1,17
 308.896357009 1259.0026521 308.896357009 1259.0026521 360.172155381 1294.13183594 c 0,18,19
 509.302526182 1399 509.302526182 1399 710 1399 c 0,20,21
 1005.28998956 1399 1005.28998956 1399 1185.92773438 1177.95507812 c 1,0,1
502.405685539 825.583984375 m 0,22,23
 495.741326108 793.065176253 495.741326108 793.065176253 492.410031052 759.66203538 c 128,-1,24
 489.078735997 726.258894506 489.078735997 726.258894506 489.078735997 692 c 0,25,26
 489.078735997 620.15138652 489.078735997 620.15138652 502.41583283 556.896359915 c 128,-1,27
 515.752929664 493.641333311 515.752929664 493.641333311 543.536873351 441.498822376 c 128,-1,28
 571.320817039 389.356311442 571.320817039 389.356311442 611.320395251 357.197265625 c 0,29,30
 653.855321473 323 653.855321473 323 710 323 c 0,31,32
 812.785346741 323 812.785346741 323 875.215984355 442.939453125 c 0,33,34
 885.27016729 462.253638128 885.27016729 462.253638128 893.700991624 484.535712147 c 128,-1,35
 902.131815959 506.817786166 902.131815959 506.817786166 908.662346998 531.413069103 c 128,-1,36
 915.192878037 556.00835204 915.192878037 556.00835204 919.730781725 582.194274647 c 128,-1,37
 924.268685413 608.380197254 924.268685413 608.380197254 926.630581515 636.182334728 c 128,-1,38
 928.992477616 663.984472202 928.992477616 663.984472202 928.992477616 692 c 0,39,40
 928.992477616 802.372936744 928.992477616 802.372936744 898.161605071 891.059079353 c 128,-1,41
 867.330732526 979.745221962 867.330732526 979.745221962 807.027599208 1026.46582031 c 0,42,43
 765.033806334 1059 765.033806334 1059 710 1059 c 0,44,45
 678.452623355 1059 678.452623355 1059 650.979328235 1049.21966483 c 128,-1,46
 623.506033116 1039.43932966 623.506033116 1039.43932966 602.866774846 1021.72475249 c 128,-1,47
 582.227516576 1004.01017532 582.227516576 1004.01017532 565.538082799 982.015762195 c 128,-1,48
 548.848649022 960.021349066 548.848649022 960.021349066 536.699650678 932.767648902 c 128,-1,49
 524.550652335 905.513948737 524.550652335 905.513948737 516.371844411 879.669281437 c 128,-1,50
 508.193036486 853.824614136 508.193036486 853.824614136 502.405685539 825.583984375 c 0,22,23
EndSplineSet
EndChar

StartChar: one
Encoding: 49 49 23
Width: 926
Flags: W
LayerCount: 2
Fore
SplineSet
88 302 m 1,0,-1
 260 302 l 1,1,-1
 260 988 l 1,2,-1
 88 976 l 1,3,-1
 88 1242 l 1,4,5
 242.818181818 1242 242.818181818 1242 426 1339.5 c 0,6,7
 457 1356 457 1356 486 1376 c 1,8,-1
 700 1376 l 1,9,-1
 700 302 l 1,10,-1
 872 302 l 1,11,-1
 872 0 l 1,12,-1
 88 0 l 1,13,-1
 88 302 l 1,0,-1
EndSplineSet
EndChar

StartChar: two
Encoding: 50 50 24
Width: 1060
Flags: W
LayerCount: 2
Fore
SplineSet
404.6763863 1054 m 0,0,1
 371.512787059 1054 371.512787059 1054 333.004118526 1044.44101006 c 128,-1,2
 294.495449993 1034.88202012 294.495449993 1034.88202012 275.11856877 1027.48648018 c 128,-1,3
 255.741687546 1020.09094023 255.741687546 1020.09094023 210.115078333 998.886444629 c 128,-1,4
 164.488469119 977.681949024 164.488469119 977.681949024 159.484375 975.471679688 c 1,5,-1
 56 1280.28222656 l 1,6,7
 188.158775801 1333.69845057 188.158775801 1333.69845057 304.279785759 1363.84922528 c 128,-1,8
 420.400795717 1394 420.400795717 1394 546.232909636 1394 c 0,9,10
 645.50374278 1394 645.50374278 1394 727.021914578 1359.37463071 c 128,-1,11
 808.540086376 1324.74926142 808.540086376 1324.74926142 862.647518842 1266.32133283 c 128,-1,12
 916.754951309 1207.89340424 916.754951309 1207.89340424 948.205078125 1128.8046875 c 0,13,14
 981.498046875 1045.08629047 981.498046875 1045.08629047 981.498046875 942 c 0,15,16
 981.498046875 860.454337719 981.498046875 860.454337719 956.639160593 792.450197747 c 128,-1,17
 931.780274311 724.446057775 931.780274311 724.446057775 884.78125 656.69921875 c 0,18,19
 850.74603863 607.639367353 850.74603863 607.639367353 809.205606673 562.361474 c 128,-1,20
 767.665174716 517.083580646 767.665174716 517.083580646 719.616988045 476.344611205 c 128,-1,21
 671.568801375 435.605641765 671.568801375 435.605641765 620.328957449 399.367028199 c 128,-1,22
 569.089113523 363.128414633 569.089113523 363.128414633 508.827256518 326.62890625 c 2,23,-1
 478.068251761 308 l 1,24,-1
 939.498046875 308 l 1,25,-1
 939.498046875 10 l 1,26,-1
 79.498046875 10 l 1,27,-1
 79.498046875 297.676757812 l 1,28,29
 202.080283236 412.977636913 202.080283236 412.977636913 290.313273245 507.673301695 c 128,-1,30
 378.546263254 602.368966477 378.546263254 602.368966477 449.755801614 702.057617188 c 0,31,32
 506.770018149 781.873375353 506.770018149 781.873375353 533.004523454 840.287109375 c 0,33,34
 546.314239432 869.922862273 546.314239432 869.922862273 553.021406971 894.716316746 c 128,-1,35
 559.728574511 919.509771219 559.728574511 919.509771219 559.728574511 940 c 0,36,37
 559.728574511 979.90410995 559.728574511 979.90410995 535.400000686 1006.67329311 c 128,-1,38
 511.071426862 1033.44247627 511.071426862 1033.44247627 477.713320076 1043.72123814 c 128,-1,39
 444.35521329 1054 444.35521329 1054 404.6763863 1054 c 0,0,1
EndSplineSet
EndChar

StartChar: three
Encoding: 51 51 25
Width: 1071
Flags: W
LayerCount: 2
Fore
SplineSet
456 1068 m 0,0,1
 330 1068 330 1068 130 1008 c 1,2,-1
 60 1296 l 1,3,4
 294 1406 294 1406 522 1406 c 0,5,6
 658 1406 658 1406 761 1348 c 128,-1,7
 864 1290 864 1290 912 1194 c 0,8,9
 942 1134 942 1134 942 1072 c 0,10,11
 942 863 942 863 748 738 c 1,12,13
 949.12195122 651.804878049 949.12195122 651.804878049 993.5 459.5 c 0,14,15
 1004 414 1004 414 1004 366 c 0,16,17
 1004 179.582733813 1004 179.582733813 852.5 69.5 c 0,18,19
 786.732789309 21.712314534 786.732789309 21.712314534 695.764154512 -5.14384273299 c 128,-1,20
 604.795519715 -32 604.795519715 -32 500 -32 c 0,21,22
 305 -32 305 -32 60 58 c 1,23,-1
 130 358 l 1,24,25
 292 292 292 292 434 292 c 0,26,27
 515 292 515 292 557 318 c 128,-1,28
 599 344 599 344 599 409 c 0,29,30
 599 442 599 442 586.5 468.5 c 128,-1,31
 574 495 574 495 554 513 c 128,-1,32
 534 531 534 531 502.5 543.5 c 128,-1,33
 471 556 471 556 441 563 c 128,-1,34
 411 570 411 570 370 574 c 128,-1,35
 329 578 329 578 298 579 c 128,-1,36
 267 580 267 580 226 580 c 1,37,-1
 226 834 l 1,38,39
 417 834 417 834 509 878 c 0,40,41
 587 915 587 915 587 974 c 0,42,43
 587 1028 587 1028 554 1048 c 128,-1,44
 521 1068 521 1068 456 1068 c 0,0,1
EndSplineSet
EndChar

StartChar: four
Encoding: 52 52 26
Width: 1300
Flags: W
LayerCount: 2
Back
SplineSet
608 1408 m 5,0,-1
 1080 1408 l 1,1,-1
 1080 0 l 1,2,-1
 608 0 l 1,3,-1
 608 1408 l 5,0,-1
EndSplineSet
Fore
SplineSet
36 333 m 1,0,-1
 36 620.3515625 l 1,1,-1
 582.02564183 1371 l 1,2,-1
 1060 1371 l 1,3,-1
 1060 617 l 1,4,-1
 1236 617 l 1,5,-1
 1236 331 l 1,6,-1
 1060 331 l 1,7,-1
 1060 5 l 1,8,-1
 604 5 l 1,9,-1
 604 333 l 1,10,-1
 36 333 l 1,0,-1
337.803974356 617 m 1,11,-1
 604 617 l 1,12,-1
 604 1022.30273438 l 1,13,-1
 337.803974356 617 l 1,11,-1
EndSplineSet
EndChar

StartChar: five
Encoding: 53 53 27
Width: 1096
Flags: W
LayerCount: 2
Fore
SplineSet
870.65234375 97.9140625 m 0,0,1
 822.850614231 59.7688850993 822.850614231 59.7688850993 764.659184449 32.2791353373 c 128,-1,2
 706.467754667 4.78938557534 706.467754667 4.78938557534 634.541240539 -11.1053072123 c 128,-1,3
 562.614726411 -27 562.614726411 -27 485.467430349 -27 c 0,4,5
 312.863111374 -27 312.863111374 -27 96.0859375 61.2275390625 c 1,6,-1
 123.147460938 351.171875 l 1,7,8
 308.411362127 287 308.411362127 287 478.616289343 287 c 0,9,10
 550.103923714 287 550.103923714 287 593.148228096 333.306688121 c 128,-1,11
 636.192532477 379.613376243 636.192532477 379.613376243 636.192532477 453 c 0,12,13
 636.192532477 474.032689703 636.192532477 474.032689703 632.154759921 493.508491771 c 128,-1,14
 628.116987365 512.984293839 628.116987365 512.984293839 620.470869171 529.852999114 c 128,-1,15
 612.824750978 546.721704389 612.824750978 546.721704389 601.242418145 560.589401783 c 128,-1,16
 589.660085313 574.457099177 589.660085313 574.457099177 575.132256963 584.316830133 c 128,-1,17
 560.604428613 594.176561089 560.604428613 594.176561089 542.204524061 599.588280544 c 128,-1,18
 523.804619509 605 523.804619509 605 503.084650078 605 c 0,19,20
 423.694444345 605 423.694444345 605 302.231445312 521.6875 c 1,21,-1
 88 615.169921875 l 1,22,-1
 141.422851562 1371 l 1,23,-1
 931.24609375 1371 l 1,24,-1
 902.232421875 1077 l 1,25,-1
 416.528779773 1077 l 1,26,-1
 391.615974204 864.87890625 l 1,27,-1
 398.864726072 867.235351562 l 2,28,29
 401.612845262 868.128743464 401.612845262 868.128743464 422.231484446 874.884800662 c 128,-1,30
 442.85012363 881.64085786 442.85012363 881.64085786 446.717204957 882.809752289 c 128,-1,31
 450.584286283 883.978646718 450.584286283 883.978646718 468.38023875 889.49306648 c 128,-1,32
 486.176191218 895.007486242 486.176191218 895.007486242 492.368221953 896.31457482 c 128,-1,33
 498.560252689 897.621663399 498.560252689 897.621663399 514.133553382 901.564005909 c 128,-1,34
 529.706854075 905.506348419 529.706854075 905.506348419 538.823869162 906.621191333 c 128,-1,35
 547.940884248 907.736034246 547.940884248 907.736034246 561.891568109 909.77585969 c 128,-1,36
 575.84225197 911.815685134 575.84225197 911.815685134 588.484286349 912.407842567 c 128,-1,37
 601.126320728 913 601.126320728 913 614.66037503 913 c 0,38,39
 889.889757257 913 889.889757257 913 998.165039062 659.536132812 c 0,40,41
 1039.76367188 562.160923146 1039.76367188 562.160923146 1039.76367188 452 c 0,42,43
 1039.76367188 232.336334251 1039.76367188 232.336334251 870.65234375 97.9140625 c 0,0,1
EndSplineSet
EndChar

StartChar: six
Encoding: 54 54 28
Width: 1283
Flags: W
LayerCount: 2
Fore
SplineSet
904.721753783 1049.06933594 m 0,0,1
 822.590838562 1076 822.590838562 1076 745.997453177 1076 c 0,2,3
 694.424439694 1076 694.424439694 1076 652.943779795 1059.03020054 c 128,-1,4
 611.463119897 1042.06040107 611.463119897 1042.06040107 583.85643509 1014.60375259 c 128,-1,5
 556.249750283 987.147104106 556.249750283 987.147104106 535.486419829 946.562575536 c 128,-1,6
 514.723089376 905.978046966 514.723089376 905.978046966 503.09915165 864.833940089 c 128,-1,7
 491.475213924 823.689833212 491.475213924 823.689833212 483.44563132 773.259765625 c 2,8,-1
 474.552368456 717.393554688 l 1,9,-1
 515.305541116 755.071289062 l 2,10,11
 630.954062727 862 630.954062727 862 776.201840486 862 c 0,12,13
 938.179049678 862 938.179049678 862 1045.9152181 793.546896504 c 128,-1,14
 1153.65138651 725.093793007 1153.65138651 725.093793007 1195.015625 600.2109375 c 0,15,16
 1220 524.767693297 1220 524.767693297 1220 446 c 0,17,18
 1220 241.33309826 1220 241.33309826 1049.33984375 111.37890625 c 1,19,20
 889.560574676 -12 889.560574676 -12 681.812047948 -12 c 0,21,22
 451.111785187 -12 451.111785187 -12 300.879485934 108.596554706 c 128,-1,23
 150.647186681 229.193109411 150.647186681 229.193109411 95.32421875 436.65234375 c 0,24,25
 70 531.620003951 70 531.620003951 70 650 c 0,26,27
 70 816.357335374 70 816.357335374 120.563598899 953.309057251 c 128,-1,28
 171.127197797 1090.26077913 171.127197797 1090.26077913 258.4453125 1187.70898438 c 1,29,30
 438.398855287 1394 438.398855287 1394 698.802075932 1394 c 0,31,32
 825.699203859 1394 825.699203859 1394 933.261299742 1358.99534935 c 128,-1,33
 1040.82339563 1323.9906987 1040.82339563 1323.9906987 1157.50585938 1257.08691406 c 1,34,-1
 1060.4765625 988.93359375 l 1,35,36
 1043.4504528 996.338128178 1043.4504528 996.338128178 1027.17511216 1003.12115011 c 128,-1,37
 1010.89977153 1009.90417205 1010.89977153 1009.90417205 995.111693035 1016.17151395 c 128,-1,38
 979.323614544 1022.43885585 979.323614544 1022.43885585 964.091453432 1028.15532199 c 128,-1,39
 948.859292319 1033.87178812 948.859292319 1033.87178812 934.026424242 1039.09771707 c 128,-1,40
 919.193556166 1044.32364603 919.193556166 1044.32364603 904.721753783 1049.06933594 c 0,0,1
497.148663175 562.547851562 m 2,41,-1
 483.390799954 556.796875 l 1,42,-1
 485.224283893 541.529296875 l 2,43,44
 488.116945634 517.419038763 488.116945634 517.419038763 491.575191274 496.699617249 c 128,-1,45
 495.033436914 475.980195735 495.033436914 475.980195735 500.400431402 451.883333343 c 128,-1,46
 505.767425891 427.786470951 505.767425891 427.786470951 513.008652944 407.948739869 c 128,-1,47
 520.249879998 388.111008786 520.249879998 388.111008786 529.785760144 368.14270224 c 128,-1,48
 539.321640289 348.174395693 539.321640289 348.174395693 552.101917961 333.174943787 c 128,-1,49
 564.882195632 318.175491881 564.882195632 318.175491881 580.343030639 306.292329925 c 128,-1,50
 595.803865647 294.40916797 595.803865647 294.40916797 615.87926314 288.204583985 c 128,-1,51
 635.954660633 282 635.954660633 282 659.158036001 282 c 0,52,53
 735.226831491 282 735.226831491 282 788.009529878 325.871513529 c 128,-1,54
 840.792228264 369.743027057 840.792228264 369.743027057 840.792228264 446 c 0,55,56
 840.792228264 514.687396088 840.792228264 514.687396088 793.54910626 554.343698044 c 128,-1,57
 746.305984256 594 746.305984256 594 678.036379291 594 c 0,58,59
 572.354521957 594 572.354521957 594 497.148663175 562.547851562 c 2,41,-1
EndSplineSet
EndChar

StartChar: seven
Encoding: 55 55 29
Width: 955
Flags: W
LayerCount: 2
Fore
SplineSet
492 1078 m 1,0,-1
 54 1078 l 1,1,-1
 54 1376 l 1,2,-1
 912 1376 l 1,3,-1
 912 1038 l 1,4,-1
 478 -34 l 1,5,-1
 98 122 l 1,6,-1
 492 1078 l 1,0,-1
EndSplineSet
EndChar

StartChar: eight
Encoding: 56 56 30
Width: 1284
Flags: W
LayerCount: 2
Fore
SplineSet
105.331054688 206.499023438 m 0,0,1
 61 283.339224918 61 283.339224918 61 384 c 0,2,3
 61 437.30536636 61 437.30536636 74.9070341694 481.847531088 c 128,-1,4
 88.8140683388 526.389695817 88.8140683388 526.389695817 110.672891691 557.696836099 c 128,-1,5
 132.531715042 589.003976382 132.531715042 589.003976382 166.911412001 616.247890463 c 128,-1,6
 201.29110896 643.491804545 201.29110896 643.491804545 234.429496347 661.242898599 c 128,-1,7
 267.567883735 678.993992653 267.567883735 678.993992653 311.840984167 697.381835938 c 2,8,-1
 319.438271486 700.583007812 l 1,9,-1
 313.071598463 705.870117188 l 1,10,11
 163 828.790013852 163 828.790013852 163 1032 c 0,12,13
 163 1212.08040011 163 1212.08040011 313.252486256 1316.39160156 c 0,14,15
 375.272440237 1360.04154181 375.272440237 1360.04154181 459.840158112 1384.52077091 c 128,-1,16
 544.407875988 1409 544.407875988 1409 641 1409 c 0,17,18
 789.222144368 1409 789.222144368 1409 903.219968526 1360.37587014 c 128,-1,19
 1017.21779268 1311.75174029 1017.21779268 1311.75174029 1075.80957031 1221.77148438 c 0,20,21
 1117 1158.515801 1117 1158.515801 1117 1072 c 0,22,23
 1117 1003.088659 1117 1003.088659 1094.96780446 949.480408777 c 128,-1,24
 1072.93560892 895.872158553 1072.93560892 895.872158553 1038.61865604 862.470112057 c 128,-1,25
 1004.30170315 829.068065561 1004.30170315 829.068065561 953.983990869 802.421875 c 2,26,-1
 945.72569337 797.998046875 l 1,27,-1
 953.985915208 793.577148438 l 2,28,29
 999.594907629 769.473573337 999.594907629 769.473573337 1035.56911025 745.084718043 c 128,-1,30
 1071.54331287 720.695862749 1071.54331287 720.695862749 1107.60301102 685.670180395 c 128,-1,31
 1143.66270916 650.644498041 1143.66270916 650.644498041 1167.47867024 611.547827418 c 128,-1,32
 1191.29463131 572.451156794 1191.29463131 572.451156794 1206.14731566 519.586336645 c 128,-1,33
 1221 466.721516495 1221 466.721516495 1221 406 c 0,34,35
 1221 320.454333338 1221 320.454333338 1194.28924793 250.936465995 c 128,-1,36
 1167.57849585 181.418598652 1167.57849585 181.418598652 1119.01898508 133.166973336 c 128,-1,37
 1070.4594743 84.915348021 1070.4594743 84.915348021 1010.15044265 52.6239354771 c 128,-1,38
 949.841410997 20.3325229331 949.841410997 20.3325229331 875.241032805 0.83984375 c 0,39,40
 769.440228843 -27 769.440228843 -27 642.970522344 -27 c 0,41,42
 452.508923483 -27 452.508923483 -27 312.278252135 31.9283551482 c 128,-1,43
 172.047580786 90.8567102964 172.047580786 90.8567102964 105.331054688 206.499023438 c 0,0,1
537.346483592 573.8671875 m 1,44,-1
 535.049785919 571.53515625 l 2,45,46
 503.95282737 539.973794783 503.95282737 539.973794783 487.251322304 500.127731207 c 128,-1,47
 470.549817239 460.281667631 470.549817239 460.281667631 470.549817239 406 c 0,48,49
 470.549817239 335.950537858 470.549817239 335.950537858 520.161544749 296.475268929 c 128,-1,50
 569.77327226 257 569.77327226 257 644.941044688 257 c 0,51,52
 767.796646907 257 767.796646907 257 807.771810241 323.392578125 c 0,53,54
 819.332272138 342.59322108 819.332272138 342.59322108 819.332272138 364 c 0,55,56
 819.332272138 405.355385277 819.332272138 405.355385277 795.703322092 433.683388582 c 128,-1,57
 772.074372047 462.011391887 772.074372047 462.011391887 733.678053332 485.291992188 c 0,58,59
 717.705212185 494.976935798 717.705212185 494.976935798 700.390013797 504.007772585 c 128,-1,60
 683.07481541 513.038609372 683.07481541 513.038609372 658.551555858 523.751032102 c 128,-1,61
 634.028296307 534.463454833 634.028296307 534.463454833 622.665007563 539.314241335 c 128,-1,62
 611.301718818 544.165027838 611.301718818 544.165027838 578.434674182 557.347266477 c 128,-1,63
 545.567629545 570.529505117 545.567629545 570.529505117 540.362883762 572.642578125 c 2,64,-1
 537.346483592 573.8671875 l 1,44,-1
793.715481665 1020 m 0,65,66
 793.715481665 1066.59656507 793.715481665 1066.59656507 775.926029029 1099.66476627 c 128,-1,67
 758.136576392 1132.73296746 758.136576392 1132.73296746 724.293284424 1149.86648373 c 128,-1,68
 690.449992456 1167 690.449992456 1167 642.970522344 1167 c 0,69,70
 610.685556108 1167 610.685556108 1167 583.932469832 1161.63514323 c 128,-1,71
 557.179383555 1156.27028647 557.179383555 1156.27028647 534.500043752 1144.48526387 c 128,-1,72
 511.82070395 1132.70024127 511.82070395 1132.70024127 499.06734997 1111.16672893 c 128,-1,73
 486.313995991 1089.63321658 486.313995991 1089.63321658 486.313995991 1060 c 0,74,75
 486.313995991 997.394735085 486.313995991 997.394735085 557.519321222 950.310546875 c 0,76,77
 610.134771345 915.51867409 610.134771345 915.51867409 728.033969314 873.28515625 c 2,78,-1
 730.847351801 872.27734375 l 1,79,-1
 733.030513519 874.340820312 l 2,80,81
 793.715481665 931.685148854 793.715481665 931.685148854 793.715481665 1020 c 0,65,66
EndSplineSet
EndChar

StartChar: nine
Encoding: 57 57 31
Width: 1261
Flags: W
LayerCount: 2
Fore
SplineSet
126.494140625 129.16015625 m 1,0,-1
 218.49609375 388.126953125 l 1,1,2
 263.950894399 367.774085272 263.950894399 367.774085272 292.869454333 356.023764171 c 128,-1,3
 321.788014268 344.273443071 321.788014268 344.273443071 363.628205109 330.195672474 c 128,-1,4
 405.468395949 316.117901878 405.468395949 316.117901878 445.577092947 309.558950939 c 128,-1,5
 485.685789944 303 485.685789944 303 526.607036668 303 c 0,6,7
 747.277779473 303 747.277779473 303 789.975634925 590.158203125 c 2,8,-1
 799.824074441 656.439453125 l 1,9,-1
 750.891473421 613.072265625 l 2,10,11
 727.852436172 592.654007713 727.852436172 592.654007713 704.307487118 577.578905867 c 128,-1,12
 680.762538064 562.503804021 680.762538064 562.503804021 652.334587149 550.745145036 c 128,-1,13
 623.906636235 538.986486051 623.906636235 538.986486051 590.067679963 532.993243025 c 128,-1,14
 556.22872369 527 556.22872369 527 517.314332586 527 c 0,15,16
 352.592145572 527 352.592145572 527 241.406259014 593.918213562 c 128,-1,17
 130.220372456 660.836427123 130.220372456 660.836427123 87.642578125 784.629882812 c 0,18,19
 62 859.173417636 62 859.173417636 62 938 c 0,20,21
 62 1120.9076523 62 1120.9076523 201.78125 1247.46972656 c 0,22,23
 358.075843778 1389 358.075843778 1389 612.096068303 1389 c 0,24,25
 689.152441123 1389 689.152441123 1389 757.520696864 1371.79911702 c 128,-1,26
 825.888952606 1354.59823403 825.888952606 1354.59823403 880.225762553 1324.08771892 c 128,-1,27
 934.562572501 1293.57720381 934.562572501 1293.57720381 980.710181448 1249.56755452 c 128,-1,28
 1026.8577904 1205.55790522 1026.8577904 1205.55790522 1061.16035367 1154.14912517 c 128,-1,29
 1095.46291695 1102.74034513 1095.46291695 1102.74034513 1122.07519531 1041.53417969 c 0,30,31
 1191 882.995457305 1191 882.995457305 1191 692 c 0,32,33
 1191 529.631515595 1191 529.631515595 1141.07474654 400.002002902 c 128,-1,34
 1091.14949308 270.372490209 1091.14949308 270.372490209 1003.8671875 179.208984375 c 1,35,36
 831.461460882 -7 831.461460882 -7 574.927174934 -7 c 0,37,38
 452.733418136 -7 452.733418136 -7 347.139709218 28.0232065174 c 128,-1,39
 241.5460003 63.0464130347 241.5460003 63.0464130347 126.494140625 129.16015625 c 1,0,-1
593.512583099 763 m 0,40,41
 645.712765233 763 645.712765233 763 689.349592296 770.885315541 c 128,-1,42
 732.986419359 778.770631081 732.986419359 778.770631081 772.967053941 794.623046875 c 2,43,-1
 790.321767721 801.499023438 l 1,44,-1
 788.249778347 820.787109375 l 2,45,46
 773.743111657 956.094483475 773.743111657 956.094483475 733.983847836 1026.68847656 c 0,47,48
 689.882398008 1105 689.882398008 1105 612.096068303 1105 c 0,49,50
 535.041071368 1105 535.041071368 1105 481.700599221 1060.86461167 c 128,-1,51
 428.360127074 1016.72922335 428.360127074 1016.72922335 428.360127074 938 c 0,52,53
 428.360127074 887.982938603 428.360127074 887.982938603 449.52689269 847.978156526 c 128,-1,54
 470.693658306 807.973374448 470.693658306 807.973374448 508.46188216 785.486687224 c 128,-1,55
 546.230106013 763 546.230106013 763 593.512583099 763 c 0,40,41
EndSplineSet
EndChar

StartChar: colon
Encoding: 58 58 32
Width: 634
Flags: W
LayerCount: 2
Fore
SplineSet
87 206 m 0,0,1
 87 274.741671038 87 274.741671038 127.884548013 323.724654724 c 128,-1,2
 168.769096026 372.707638411 168.769096026 372.707638411 229.5 397 c 0,3,4
 272 414 272 414 319 414 c 0,5,6
 391.107883109 414 391.107883109 414 446.069876387 377.589321285 c 128,-1,7
 501.031869665 341.178642571 501.031869665 341.178642571 528.5 285.5 c 0,8,9
 547 248 547 248 547 206 c 0,10,11
 547 137 547 137 506.5 88.5 c 128,-1,12
 466 40 466 40 406 16 c 0,13,14
 365 0 365 0 319 0 c 0,15,16
 244.366711257 0 244.366711257 0 188.712096589 34.8201196748 c 128,-1,17
 133.057481921 69.6402393495 133.057481921 69.6402393495 105.5 125.5 c 0,18,19
 87 163 87 163 87 206 c 0,0,1
87 820 m 0,20,21
 87 888.741671038 87 888.741671038 127.884548013 937.724654724 c 128,-1,22
 168.769096026 986.707638411 168.769096026 986.707638411 229.5 1011 c 0,23,24
 272 1028 272 1028 319 1028 c 0,25,26
 391.107883109 1028 391.107883109 1028 446.069876387 991.589321285 c 128,-1,27
 501.031869665 955.178642571 501.031869665 955.178642571 528.5 899.5 c 0,28,29
 547 862 547 862 547 820 c 0,30,31
 547 751 547 751 506.5 702.5 c 128,-1,32
 466 654 466 654 406 630 c 0,33,34
 365 614 365 614 319 614 c 0,35,36
 244.366711257 614 244.366711257 614 188.712096589 648.820119675 c 128,-1,37
 133.057481921 683.64023935 133.057481921 683.64023935 105.5 739.5 c 0,38,39
 87 777 87 777 87 820 c 0,20,21
EndSplineSet
EndChar

StartChar: semicolon
Encoding: 59 59 33
Width: 612
Flags: W
LayerCount: 2
Fore
SplineSet
104 -106 m 1,0,1
 176 -106 176 -106 215 -103.5 c 0,2,3
 250.955935289 -101.195132353 250.955935289 -101.195132353 270.285606029 -91.9440974888 c 128,-1,4
 289.615276768 -82.6930626244 289.615276768 -82.6930626244 293 -59 c 0,5,6
 296 -38 296 -38 296 0 c 1,7,-1
 104 0 l 1,8,-1
 104 382 l 1,9,-1
 524 382 l 1,10,11
 523.049923698 343.046871624 523.049923698 343.046871624 521.619367525 254.942182282 c 128,-1,12
 520.188811352 166.83749294 520.188811352 166.83749294 518.928301273 124.036541799 c 128,-1,13
 517.667791194 81.2355906582 517.667791194 81.2355906582 513.160948542 17.5409421718 c 128,-1,14
 508.654105891 -46.1537063147 508.654105891 -46.1537063147 501 -97.5 c 0,15,16
 483.828046049 -212.695191089 483.828046049 -212.695191089 435.261788966 -268.651032016 c 128,-1,17
 386.695531883 -324.606872944 386.695531883 -324.606872944 279 -337.5 c 0,18,19
 208 -346 208 -346 104 -346 c 1,20,-1
 104 -106 l 1,0,1
78 820 m 0,21,22
 78 888.741671038 78 888.741671038 118.884548013 937.724654724 c 128,-1,23
 159.769096026 986.707638411 159.769096026 986.707638411 220.5 1011 c 0,24,25
 263 1028 263 1028 310 1028 c 0,26,27
 382.107883109 1028 382.107883109 1028 437.069876387 991.589321285 c 128,-1,28
 492.031869665 955.178642571 492.031869665 955.178642571 519.5 899.5 c 0,29,30
 538 862 538 862 538 820 c 0,31,32
 538 751 538 751 497.5 702.5 c 128,-1,33
 457 654 457 654 397 630 c 0,34,35
 356 614 356 614 310 614 c 0,36,37
 235.366711257 614 235.366711257 614 179.712096589 648.820119675 c 128,-1,38
 124.057481921 683.64023935 124.057481921 683.64023935 96.5 739.5 c 0,39,40
 78 777 78 777 78 820 c 0,21,22
EndSplineSet
EndChar

StartChar: less
Encoding: 60 60 34
Width: 938
Flags: W
LayerCount: 2
Fore
SplineSet
55 804 m 1,0,-1
 835 1232 l 1,1,-1
 835 924 l 1,2,-1
 227 620 l 1,3,-1
 835 332 l 1,4,-1
 835 0 l 1,5,-1
 55 456 l 1,6,-1
 55 804 l 1,0,-1
EndSplineSet
EndChar

StartChar: equal
Encoding: 61 61 35
Width: 838
Flags: W
LayerCount: 2
Fore
SplineSet
107 442 m 1,0,-1
 731 442 l 1,1,-1
 731 318 l 1,2,-1
 107 318 l 1,3,-1
 107 442 l 1,0,-1
107 720 m 1,4,-1
 731 720 l 1,5,-1
 731 594 l 1,6,-1
 107 594 l 1,7,-1
 107 720 l 1,4,-1
EndSplineSet
EndChar

StartChar: greater
Encoding: 62 62 36
Width: 938
Flags: W
LayerCount: 2
Fore
SplineSet
103 332 m 1,0,-1
 711 620 l 1,1,-1
 103 924 l 1,2,-1
 103 1232 l 1,3,-1
 883 804 l 1,4,-1
 883 456 l 1,5,-1
 103 0 l 1,6,-1
 103 332 l 1,0,-1
EndSplineSet
EndChar

StartChar: question
Encoding: 63 63 37
Width: 1035
Flags: W
LayerCount: 2
Fore
SplineSet
534 1026 m 0,0,1
 534 1092 534 1092 372 1092 c 0,2,3
 214 1092 214 1092 106 1038 c 1,4,-1
 78 1350 l 1,5,6
 297 1440 297 1440 490 1440 c 0,7,8
 648.265541102 1440 648.265541102 1440 767.742918002 1382.69443104 c 128,-1,9
 887.220294902 1325.38886209 887.220294902 1325.38886209 945.5 1222.5 c 0,10,11
 986 1151 986 1151 986 1058 c 0,12,13
 986 995 986 995 968 944.5 c 128,-1,14
 950 894 950 894 914 857 c 128,-1,15
 878 820 878 820 843 795.5 c 128,-1,16
 808 771 808 771 757 745 c 0,17,18
 736.002001703 734.256838081 736.002001703 734.256838081 687.346970708 713.876381785 c 128,-1,19
 638.691939714 693.495925489 638.691939714 693.495925489 604.308425684 674.747917439 c 128,-1,20
 569.924911653 655.999909388 569.924911653 655.999909388 547.5 633 c 0,21,22
 528 613 528 613 528 588 c 0,23,24
 528 581 528 581 527 567 c 128,-1,25
 526 553 526 553 526 546 c 2,26,-1
 526 520 l 1,27,-1
 240 520 l 1,28,29
 237 531 237 531 229 556.5 c 128,-1,30
 221 582 221 582 216.5 597.5 c 128,-1,31
 212 613 212 613 208 636 c 128,-1,32
 204 659 204 659 204 680 c 0,33,34
 204 727.863870103 204 727.863870103 218.914727966 766.782363283 c 128,-1,35
 233.829455932 805.700856462 233.829455932 805.700856462 256.38376313 830.717885844 c 128,-1,36
 278.938070328 855.734915226 278.938070328 855.734915226 312.855739802 878.941821666 c 128,-1,37
 346.773409276 902.148728106 346.773409276 902.148728106 377.16409497 916.629526437 c 128,-1,38
 407.554780664 931.110324767 407.554780664 931.110324767 446.265142766 951.046914023 c 128,-1,39
 484.975504868 970.983503279 484.975504868 970.983503279 509.5 987.5 c 128,-1,40
 534 1004 534 1004 534 1026 c 0,0,1
148 176 m 0,41,42
 148 243.404480218 148 243.404480218 189.55245152 292.687131778 c 128,-1,43
 231.104903041 341.969783338 231.104903041 341.969783338 291 365.5 c 0,44,45
 333 382 333 382 380 382 c 0,46,47
 453.025062205 382 453.025062205 382 507.854833315 346.19282458 c 128,-1,48
 562.684604425 310.385649161 562.684604425 310.385649161 591 254.5 c 0,49,50
 610 217 610 217 610 176 c 0,51,52
 610 106.752471046 610 106.752471046 569.029054113 57.0500877113 c 128,-1,53
 528.058108226 7.34770437618 528.058108226 7.34770437618 467.5 -16 c 0,54,55
 426 -32 426 -32 380 -32 c 0,56,57
 305.43571154 -32 305.43571154 -32 250.485568815 3.09004004352 c 128,-1,58
 195.535426089 38.180080087 195.535426089 38.180080087 167 94.5 c 0,59,60
 148 132 148 132 148 176 c 0,41,42
EndSplineSet
EndChar

StartChar: at
Encoding: 64 64 38
Width: 1769
Flags: W
LayerCount: 2
Fore
SplineSet
1362 377 m 0,0,1
 1145 377 1145 377 1052 528 c 1,2,3
 1016 459 1016 459 953 419 c 128,-1,4
 890 379 890 379 804 379 c 0,5,6
 747.845946147 379 747.845946147 379 697.729013678 396.968152459 c 128,-1,7
 647.612081209 414.936304917 647.612081209 414.936304917 609.748485197 446.206560933 c 128,-1,8
 571.884889186 477.476816949 571.884889186 477.476816949 543.690858736 515.432768854 c 128,-1,9
 515.496828286 553.388720759 515.496828286 553.388720759 496.5 597.5 c 0,10,11
 467 666 467 666 467 750 c 0,12,13
 467 870.344924848 467 870.344924848 528.331665384 957.079459118 c 128,-1,14
 589.663330769 1043.81399339 589.663330769 1043.81399339 685.5 1085 c 0,15,16
 746 1111 746 1111 806 1111 c 0,17,18
 1024 1111 1024 1111 1261 1091 c 1,19,-1
 1261 622 l 1,20,21
 1300 581 1300 581 1336 581 c 0,22,23
 1371 581 1371 581 1396.5 605.5 c 128,-1,24
 1422 630 1422 630 1434 671 c 128,-1,25
 1446 712 1446 712 1451 751.5 c 128,-1,26
 1456 791 1456 791 1456 835 c 0,27,28
 1456 1277 1456 1277 910 1277 c 0,29,30
 634 1277 634 1277 469 1108 c 0,31,32
 321 956 321 956 321 737 c 0,33,34
 321 647.221096481 321 647.221096481 345.926785139 569.327221681 c 128,-1,35
 370.853570278 491.433346882 370.853570278 491.433346882 415.738651743 432.655304733 c 128,-1,36
 460.623733207 373.877262583 460.623733207 373.877262583 518.13634162 330.423872068 c 128,-1,37
 575.648950033 286.970481553 575.648950033 286.970481553 645.5 258 c 0,38,39
 754 213 754 213 900 213 c 0,40,41
 1124 213 1124 213 1310 307 c 1,42,-1
 1430 103 l 1,43,44
 1312 34 1312 34 1187.5 1 c 128,-1,45
 1063 -32 1063 -32 900 -32 c 0,46,47
 632.154474447 -32 632.154474447 -32 444.617397079 73.3616415569 c 128,-1,48
 257.08031971 178.723283114 257.08031971 178.723283114 155.5 365.5 c 0,49,50
 63 535.580645161 63 535.580645161 63 736 c 0,51,52
 63 1050 63 1050 274.5 1272 c 0,53,54
 383.881421418 1386.81170475 383.881421418 1386.81170475 543.341368258 1451.40585238 c 128,-1,55
 702.801315098 1516 702.801315098 1516 908 1516 c 0,56,57
 1181.57649832 1516 1181.57649832 1516 1374.31473264 1417.83283634 c 128,-1,58
 1567.05296696 1319.66567267 1567.05296696 1319.66567267 1655.5 1134 c 0,59,60
 1716 1007 1716 1007 1716 839 c 0,61,62
 1716 681 1716 681 1664.5 569.5 c 128,-1,63
 1613 458 1613 458 1512 409 c 0,64,65
 1446 377 1446 377 1362 377 c 0,0,1
1012 902 m 1,66,-1
 876 902 l 2,67,68
 815 902 815 902 776 856 c 128,-1,69
 737 810 737 810 737 745 c 0,70,71
 737 686 737 686 777 646.5 c 128,-1,72
 817 607 817 607 876 607 c 0,73,74
 919.589111131 607 919.589111131 607 951.613275173 629.904284399 c 128,-1,75
 983.637439216 652.808568799 983.637439216 652.808568799 1000.5 688 c 0,76,77
 1012 712 1012 712 1012 739 c 2,78,-1
 1012 902 l 1,66,-1
EndSplineSet
EndChar

StartChar: A
Encoding: 65 65 39
Width: 1431
Flags: W
LayerCount: 2
Fore
SplineSet
400 1408 m 1,0,-1
 1022 1408 l 1,1,-1
 1430 0 l 1,2,-1
 948 0 l 1,3,-1
 894 270 l 1,4,-1
 530 270 l 1,5,-1
 472 0 l 1,6,-1
 10 0 l 1,7,-1
 400 1408 l 1,0,-1
846 522 m 1,8,-1
 712 1138 l 1,9,-1
 574 522 l 1,10,-1
 846 522 l 1,8,-1
EndSplineSet
EndChar

StartChar: B
Encoding: 66 66 40
Width: 1476
Flags: W
LayerCount: 2
Fore
SplineSet
830 -32 m 0,0,1
 600 -32 600 -32 134 -2 c 1,2,-1
 134 1408 l 1,3,-1
 838 1408 l 2,4,5
 1013.47429163 1408 1013.47429163 1408 1142.62416826 1354.49267488 c 128,-1,6
 1271.77404489 1300.98534976 1271.77404489 1300.98534976 1328.5 1196 c 0,7,8
 1362 1134 1362 1134 1362 1066 c 0,9,10
 1362 939 1362 939 1305.5 861 c 128,-1,11
 1249 783 1249 783 1138 766 c 1,12,13
 1276 753 1276 753 1351 665 c 128,-1,14
 1426 577 1426 577 1426 428 c 0,15,16
 1426 251 1426 251 1274 117 c 0,17,18
 1105 -32 1105 -32 830 -32 c 0,0,1
976 456 m 0,19,20
 976 540 976 540 917 583 c 128,-1,21
 858 626 858 626 764 626 c 2,22,-1
 588 626 l 1,23,-1
 588 297 l 1,24,25
 635 296 635 296 675 296 c 2,26,-1
 790 296 l 2,27,28
 870 296 870 296 923 339.5 c 128,-1,29
 976 383 976 383 976 456 c 0,19,20
936 992 m 0,30,31
 936 1136 936 1136 756 1136 c 2,32,-1
 590 1136 l 1,33,-1
 590 852 l 1,34,-1
 752 852 l 2,35,36
 816 852 816 852 861 875.5 c 128,-1,37
 906 899 906 899 925 942 c 0,38,39
 936 967 936 967 936 992 c 0,30,31
EndSplineSet
EndChar

StartChar: C
Encoding: 67 67 41
Width: 1237
Flags: W
LayerCount: 2
Fore
SplineSet
875 338 m 0,0,1
 943 338 943 338 999 352.5 c 128,-1,2
 1055 367 1055 367 1129 396 c 1,3,-1
 1185 71 l 1,4,5
 1006 -32 1006 -32 797 -32 c 0,6,7
 499.372093023 -32 499.372093023 -32 287.5 167.5 c 0,8,9
 65.9363785738 376.125599737 65.9363785738 376.125599737 63 705 c 1,10,11
 63 873.309586615 63 873.309586615 121.990962657 1009.14611928 c 128,-1,12
 180.981925315 1144.98265194 180.981925315 1144.98265194 280.5 1240.5 c 0,13,14
 374.444554978 1330.66788945 374.444554978 1330.66788945 503.316614812 1384.83394473 c 128,-1,15
 632.188674646 1439 632.188674646 1439 785 1439 c 0,16,17
 1004 1439 1004 1439 1183 1337 c 1,18,-1
 1129 1019 l 1,19,20
 985 1075 985 1075 863 1075 c 0,21,22
 696 1075 696 1075 609.5 978.5 c 128,-1,23
 523 882 523 882 523 707 c 0,24,25
 523 533 523 533 614.5 435.5 c 128,-1,26
 706 338 706 338 875 338 c 0,0,1
EndSplineSet
EndChar

StartChar: D
Encoding: 68 68 42
Width: 1565
Flags: W
LayerCount: 2
Fore
SplineSet
134 1408 m 1,0,-1
 746 1408 l 2,1,2
 987 1408 987 1408 1156 1313.5 c 128,-1,3
 1325 1219 1325 1219 1416 1052 c 0,4,5
 1500 898 1500 898 1500 714 c 0,6,7
 1500 558.38807546 1500 558.38807546 1448.30081383 430.923820344 c 128,-1,8
 1396.60162766 303.459565228 1396.60162766 303.459565228 1307 211.5 c 0,9,10
 1210.05931015 112.00823936 1210.05931015 112.00823936 1068.25700192 56.00411968 c 128,-1,11
 926.454693699 0 926.454693699 0 746 0 c 2,12,-1
 134 0 l 1,13,-1
 134 1408 l 1,0,-1
746 368 m 2,14,15
 801.264889517 368 801.264889517 368 848.097876165 386.355670378 c 128,-1,16
 894.930862813 404.711340756 894.930862813 404.711340756 928.247777942 436.976603561 c 128,-1,17
 961.564693072 469.241866366 961.564693072 469.241866366 984.654066793 508.633501618 c 128,-1,18
 1007.74344051 548.02513687 1007.74344051 548.02513687 1021.5 594.5 c 0,19,20
 1040 657 1040 657 1040 718 c 0,21,22
 1040 821 1040 821 995.5 897.5 c 128,-1,23
 951 974 951 974 876 1012 c 0,24,25
 821 1040 821 1040 746 1040 c 2,26,-1
 586 1040 l 1,27,-1
 586 368 l 1,28,-1
 746 368 l 2,14,15
EndSplineSet
EndChar

StartChar: E
Encoding: 69 69 43
Width: 1218
Flags: W
LayerCount: 2
Fore
SplineSet
134 1408 m 1,0,-1
 1122 1408 l 1,1,-1
 1122 1098 l 1,2,-1
 630 1098 l 1,3,-1
 630 842 l 1,4,-1
 1080 842 l 1,5,-1
 1080 584 l 1,6,-1
 630 584 l 1,7,-1
 630 308 l 1,8,-1
 1122 308 l 1,9,-1
 1122 0 l 1,10,-1
 134 0 l 1,11,-1
 134 1408 l 1,0,-1
EndSplineSet
EndChar

StartChar: F
Encoding: 70 70 44
Width: 1168
Flags: W
LayerCount: 2
Fore
SplineSet
134 1408 m 1,0,-1
 1104 1408 l 1,1,-1
 1104 1098 l 1,2,-1
 574 1098 l 1,3,-1
 574 814 l 1,4,-1
 1064 814 l 1,5,-1
 1064 554 l 1,6,-1
 574 554 l 1,7,-1
 574 0 l 1,8,-1
 134 0 l 1,9,-1
 134 1408 l 1,0,-1
EndSplineSet
EndChar

StartChar: G
Encoding: 71 71 45
Width: 1349
Flags: W
LayerCount: 2
Fore
SplineSet
1105 1020 m 1,0,1
 923 1078 923 1078 825 1078 c 0,2,3
 712 1078 712 1078 639 1012 c 128,-1,4
 566 946 566 946 536 843 c 0,5,6
 517 777 517 777 517 711 c 0,7,8
 517 594.130764134 517 594.130764134 565.03708278 504.044422235 c 128,-1,9
 613.074165561 413.958080335 613.074165561 413.958080335 693.5 368.5 c 0,10,11
 751 336 751 336 825 336 c 0,12,13
 862 336 862 336 907 342 c 1,14,-1
 907 674 l 1,15,-1
 1261 714 l 1,16,-1
 1261 74 l 1,17,18
 1019 -32 1019 -32 769 -32 c 0,19,20
 475.279411765 -32 475.279411765 -32 268.5 186 c 0,21,22
 61 404.759689922 61 404.759689922 61 716 c 0,23,24
 61 1016.88549618 61 1016.88549618 272.5 1230 c 0,25,26
 480.909090909 1440 480.909090909 1440 767 1440 c 0,27,28
 1030 1440 1030 1440 1241 1338 c 1,29,-1
 1105 1020 l 1,0,1
EndSplineSet
EndChar

StartChar: H
Encoding: 72 72 46
Width: 1626
Flags: W
LayerCount: 2
Fore
SplineSet
134 1408 m 1,0,-1
 594 1408 l 1,1,-1
 594 848 l 1,2,-1
 1030 848 l 1,3,-1
 1030 1408 l 1,4,-1
 1492 1408 l 1,5,-1
 1492 0 l 1,6,-1
 1030 0 l 1,7,-1
 1030 552 l 1,8,-1
 594 552 l 1,9,-1
 594 0 l 1,10,-1
 134 0 l 1,11,-1
 134 1408 l 1,0,-1
EndSplineSet
EndChar

StartChar: I
Encoding: 73 73 47
Width: 740
Flags: W
LayerCount: 2
Fore
SplineSet
134 1408 m 5,0,-1
 606 1408 l 1,1,-1
 606 0 l 1,2,-1
 134 0 l 1,3,-1
 134 1408 l 5,0,-1
EndSplineSet
EndChar

StartChar: J
Encoding: 74 74 48
Width: 934
Flags: W
LayerCount: 2
Fore
SplineSet
234 242 m 0,0,1
 370 242 370 242 370 412 c 2,2,-1
 370 1408 l 1,3,-1
 810 1408 l 1,4,-1
 810 412 l 2,5,6
 810 227 810 227 734.5 105 c 128,-1,7
 659 -17 659 -17 521 -64 c 0,8,9
 438 -92 438 -92 350 -92 c 0,10,11
 160 -92 160 -92 -2 16 c 1,12,-1
 94 270 l 1,13,14
 178 242 178 242 234 242 c 0,0,1
EndSplineSet
EndChar

StartChar: K
Encoding: 75 75 49
Width: 1570
Flags: W
LayerCount: 2
Fore
SplineSet
134 1408 m 1,0,-1
 608 1408 l 1,1,-1
 608 834 l 1,2,-1
 756 834 l 1,3,-1
 1028 1408 l 1,4,-1
 1502 1408 l 1,5,-1
 1502 1316 l 1,6,-1
 1178 710 l 1,7,-1
 1548 92 l 1,8,-1
 1548 0 l 1,9,-1
 1050 0 l 1,10,-1
 748 560 l 1,11,-1
 608 560 l 1,12,-1
 608 0 l 1,13,-1
 134 0 l 1,14,-1
 134 1408 l 1,0,-1
EndSplineSet
EndChar

StartChar: L
Encoding: 76 76 50
Width: 1102
Flags: W
LayerCount: 2
Fore
SplineSet
134 1408 m 5,0,-1
 576 1408 l 1,1,-1
 576 302 l 1,2,-1
 1064 302 l 1,3,-1
 1064 0 l 1,4,-1
 134 0 l 1,5,-1
 134 1408 l 5,0,-1
EndSplineSet
EndChar

StartChar: M
Encoding: 77 77 51
Width: 1816
Flags: W
LayerCount: 2
Fore
SplineSet
134 1408 m 1,0,-1
 560 1408 l 1,1,-1
 912 724 l 1,2,-1
 1256 1408 l 1,3,-1
 1682 1408 l 1,4,-1
 1682 0 l 1,5,-1
 1256 0 l 1,6,-1
 1256 752 l 1,7,-1
 996 260 l 1,8,-1
 822 260 l 1,9,-1
 560 752 l 1,10,-1
 560 0 l 1,11,-1
 134 0 l 1,12,-1
 134 1408 l 1,0,-1
EndSplineSet
EndChar

StartChar: N
Encoding: 78 78 52
Width: 1606
Flags: W
LayerCount: 2
Fore
SplineSet
134 1408 m 1,0,-1
 544 1408 l 1,1,-1
 1106 650 l 1,2,-1
 1106 1408 l 1,3,-1
 1472 1408 l 1,4,-1
 1472 0 l 1,5,-1
 1062 0 l 1,6,-1
 498 734 l 1,7,-1
 498 0 l 1,8,-1
 134 0 l 1,9,-1
 134 1408 l 1,0,-1
EndSplineSet
EndChar

StartChar: O
Encoding: 79 79 53
Width: 1634
Flags: W
LayerCount: 2
Fore
SplineSet
64 702 m 0,0,1
 64 1008.859375 64 1008.859375 258 1216.5 c 0,2,3
 465.883211679 1439 465.883211679 1439 818 1439 c 0,4,5
 1058 1439 1058 1439 1225.5 1339 c 128,-1,6
 1393 1239 1393 1239 1484 1065 c 0,7,8
 1570 901 1570 901 1570 702 c 0,9,10
 1570 409 1570 409 1382.5 199 c 0,11,12
 1285.67235192 90.5530341506 1285.67235192 90.5530341506 1144.42349637 29.2765170753 c 128,-1,13
 1003.17464081 -32 1003.17464081 -32 818 -32 c 0,14,15
 693.974513418 -32 693.974513418 -32 587.342431698 -4.04026035913 c 128,-1,16
 480.710349977 23.9194792817 480.710349977 23.9194792817 398.556838206 75.750978846 c 128,-1,17
 316.403326434 127.58247841 316.403326434 127.58247841 254.364437048 196.03490427 c 128,-1,18
 192.325547663 264.48733013 192.325547663 264.48733013 148 350.5 c 0,19,20
 64 513.5 64 513.5 64 702 c 0,0,1
818 340 m 0,21,22
 874.356801233 340 874.356801233 340 921.361457356 358.272998525 c 128,-1,23
 968.366113479 376.54599705 968.366113479 376.54599705 1001.49128988 409.060729119 c 128,-1,24
 1034.61646629 441.575461188 1034.61646629 441.575461188 1057.28032134 481.540259058 c 128,-1,25
 1079.94417638 521.505056928 1079.94417638 521.505056928 1093.5 569.5 c 0,26,27
 1112 635 1112 635 1112 704 c 0,28,29
 1112 822.58210175 1112 822.58210175 1068.73062761 910.714557231 c 128,-1,30
 1025.46125522 998.847012711 1025.46125522 998.847012711 947.5 1044.5 c 0,31,32
 892 1077 892 1077 818 1080 c 1,33,34
 779.604720769 1079.48806294 779.604720769 1079.48806294 745.326945539 1070.49730915 c 128,-1,35
 711.049170308 1061.50655536 711.049170308 1061.50655536 683.531076498 1045.36528615 c 128,-1,36
 656.012982689 1029.22401694 656.012982689 1029.22401694 632.898721411 1007.6392469 c 128,-1,37
 609.784460134 986.054476856 609.784460134 986.054476856 592.105412989 959.203488881 c 128,-1,38
 574.426365844 932.352500906 574.426365844 932.352500906 561.544866152 903.170062566 c 128,-1,39
 548.66336646 873.987624225 548.66336646 873.987624225 540 841.5 c 0,40,41
 522 774 522 774 522 704 c 0,42,43
 522 588.084252008 522 588.084252008 566.241357904 501.330736904 c 128,-1,44
 610.482715808 414.577221801 610.482715808 414.577221801 688.5 371 c 0,45,46
 744 340 744 340 818 340 c 0,21,22
EndSplineSet
EndChar

StartChar: P
Encoding: 80 80 54
Width: 1330
Flags: W
LayerCount: 2
Fore
SplineSet
134 1408 m 1,0,-1
 642 1408 l 2,1,2
 987 1408 987 1408 1157.5 1265 c 0,3,4
 1302 1143.80645161 1302 1143.80645161 1302 942 c 0,5,6
 1302 843.288536995 1302 843.288536995 1257.9459355 763.375678996 c 128,-1,7
 1213.891871 683.462820996 1213.891871 683.462820996 1142 625.5 c 0,8,9
 964.015503876 482 964.015503876 482 662 482 c 2,10,-1
 576 482 l 1,11,-1
 576 0 l 1,12,-1
 134 0 l 1,13,-1
 134 1408 l 1,0,-1
664 766 m 0,14,15
 768 766 768 766 829 810 c 128,-1,16
 890 854 890 854 890 942 c 0,17,18
 890 1026 890 1026 826 1070 c 128,-1,19
 762 1114 762 1114 664 1114 c 2,20,-1
 576 1114 l 1,21,-1
 576 770 l 1,22,23
 604 766 604 766 664 766 c 0,14,15
EndSplineSet
EndChar

StartChar: Q
Encoding: 81 81 55
Width: 1634
Flags: W
LayerCount: 2
Fore
SplineSet
1570 -124 m 1,0,-1
 1312 -326 l 1,1,-1
 860 -28 l 1,2,3
 840 -32 840 -32 816 -32 c 0,4,5
 573 -32 573 -32 405 71 c 128,-1,6
 237 174 237 174 146 352 c 0,7,8
 62 516 62 516 62 706 c 0,9,10
 62 999.102362205 62 999.102362205 251.5 1208 c 0,11,12
 461.05 1439 461.05 1439 816 1439 c 0,13,14
 915.567267902 1439 915.567267902 1439 1004.38647395 1420.54988508 c 128,-1,15
 1093.20567999 1402.09977016 1093.20567999 1402.09977016 1164.96725849 1368.8231354 c 128,-1,16
 1236.72883699 1335.54650064 1236.72883699 1335.54650064 1297.70465391 1287.53877801 c 128,-1,17
 1358.68047084 1239.53105537 1358.68047084 1239.53105537 1404.72813432 1182.19139052 c 128,-1,18
 1450.77579781 1124.85172568 1450.77579781 1124.85172568 1486 1056.5 c 0,19,20
 1570 893.5 1570 893.5 1570 706 c 0,21,22
 1570 448 1570 448 1423 245.5 c 0,23,24
 1374 178 1374 178 1308 124 c 1,25,-1
 1570 -47 l 1,26,-1
 1570 -124 l 1,0,-1
816 338 m 256,27,28
 872.536611418 338 872.536611418 338 919.823501605 357.034220218 c 128,-1,29
 967.110391792 376.068440436 967.110391792 376.068440436 1000.27856318 409.667835471 c 128,-1,30
 1033.44673457 443.267230505 1033.44673457 443.267230505 1056.05441072 484.116023321 c 128,-1,31
 1078.66208688 524.964816138 1078.66208688 524.964816138 1092 573.5 c 0,32,33
 1110 639 1110 639 1110 706 c 0,34,35
 1110 823.120228291 1110 823.120228291 1066.4954182 911.319471384 c 128,-1,36
 1022.9908364 999.518714476 1022.9908364 999.518714476 945.5 1043.5 c 0,37,38
 890 1075 890 1075 816 1075 c 256,39,40
 759.181406088 1075 759.181406088 1075 712.049784016 1056.34569479 c 128,-1,41
 664.918161944 1037.69138958 664.918161944 1037.69138958 631.923883678 1004.46737236 c 128,-1,42
 598.929605412 971.243355145 598.929605412 971.243355145 576.496578793 930.749413238 c 128,-1,43
 554.063552175 890.255471331 554.063552175 890.255471331 540.5 841.5 c 0,44,45
 522 775 522 775 522 706 c 0,46,47
 522 591.734214684 522 591.734214684 566.392392318 503.635239154 c 128,-1,48
 610.784784637 415.536263624 610.784784637 415.536263624 687 370.5 c 0,49,50
 742 338 742 338 816 338 c 256,27,28
EndSplineSet
EndChar

StartChar: R
Encoding: 82 82 56
Width: 1429
Flags: W
LayerCount: 2
Fore
SplineSet
1389 4 m 1,0,1
 1258 -32 1258 -32 1200 -32 c 0,2,3
 828 -32 828 -32 734 306 c 1,4,-1
 678 534 l 1,5,-1
 582 534 l 1,6,-1
 582 0 l 1,7,-1
 134 0 l 1,8,-1
 134 1408 l 1,9,-1
 760 1408 l 2,10,11
 892.168088385 1408 892.168088385 1408 1000.49935119 1379.1476825 c 128,-1,12
 1108.830614 1350.295365 1108.830614 1350.295365 1188.85920551 1291.43739253 c 128,-1,13
 1268.88779702 1232.57942006 1268.88779702 1232.57942006 1310 1147.5 c 0,14,15
 1346 1073 1346 1073 1346 994 c 0,16,17
 1346 847 1346 847 1274 756.5 c 128,-1,18
 1202 666 1202 666 1074 610 c 1,19,20
 1077.36721531 594.55042389 1077.36721531 594.55042389 1083.90687502 561.451912054 c 128,-1,21
 1090.44653474 528.353400218 1090.44653474 528.353400218 1094.24932262 512.036523766 c 128,-1,22
 1098.05211049 495.719647313 1098.05211049 495.719647313 1105.45537488 468.77092138 c 128,-1,23
 1112.85863927 441.822195446 1112.85863927 441.822195446 1121.05018514 426.525516875 c 128,-1,24
 1129.241731 411.228838304 1129.241731 411.228838304 1141.25531074 393.12717478 c 128,-1,25
 1153.26889047 375.025511255 1153.26889047 375.025511255 1169.59590499 363.446307073 c 128,-1,26
 1185.92291951 351.867102891 1185.92291951 351.867102891 1206.5 344.5 c 0,27,28
 1247 330 1247 330 1318 330 c 0,29,30
 1333 330 1333 330 1389 338 c 1,31,-1
 1389 4 l 1,0,1
936 974 m 0,32,33
 936 1013 936 1013 919 1039.5 c 128,-1,34
 902 1066 902 1066 871 1079.5 c 128,-1,35
 840 1093 840 1093 804.5 1098.5 c 128,-1,36
 769 1104 769 1104 722 1104 c 2,37,-1
 582 1104 l 1,38,-1
 582 822 l 1,39,40
 585 822 585 822 591.499610884 821.997375844 c 0,41,42
 637 822 637 822 660.5 822.5 c 128,-1,43
 684 823 684 823 726.5 825.5 c 128,-1,44
 769 828 769 828 793 833.5 c 128,-1,45
 817 839 817 839 848 850 c 128,-1,46
 879 861 879 861 895.5 877 c 128,-1,47
 912 893 912 893 924 917.5 c 128,-1,48
 936 942 936 942 936 974 c 0,32,33
EndSplineSet
EndChar

StartChar: S
Encoding: 83 83 57
Width: 1213
Flags: W
LayerCount: 2
Fore
SplineSet
1152 460 m 0,0,1
 1152 211 1152 211 1004 89.5 c 128,-1,2
 856 -32 856 -32 590 -32 c 0,3,4
 299 -32 299 -32 76 74 c 1,5,6
 137 229 137 229 172 352 c 0,7,8
 178 373 178 373 184 388 c 1,9,10
 207.895494423 382.265081339 207.895494423 382.265081339 255.876633545 370.328942624 c 128,-1,11
 303.857772667 358.39280391 303.857772667 358.39280391 334.193843414 351.021592847 c 128,-1,12
 364.529914161 343.650381785 364.529914161 343.650381785 406.823465028 334.556903036 c 128,-1,13
 449.117015894 325.463424288 449.117015894 325.463424288 484.5 319.5 c 0,14,15
 529 312 529 312 562 312 c 0,16,17
 615 312 615 312 650 317.5 c 128,-1,18
 685 323 685 323 710.5 343 c 128,-1,19
 736 363 736 363 736 398 c 0,20,21
 736 417.134441848 736 417.134441848 727.363847402 432.730773114 c 128,-1,22
 718.727694803 448.32710438 718.727694803 448.32710438 701.959085164 459.841313759 c 128,-1,23
 685.190475525 471.355523137 685.190475525 471.355523137 670.801356074 478.354781776 c 128,-1,24
 656.412236623 485.354040415 656.412236623 485.354040415 635 493.5 c 0,25,26
 596.561679553 508.123274083 596.561679553 508.123274083 516.175130353 532.17423275 c 128,-1,27
 435.788581152 556.225191417 435.788581152 556.225191417 402 568 c 1,28,29
 296.626216728 600.14793388 296.626216728 600.14793388 218.654250539 665.200320902 c 128,-1,30
 140.68228435 730.252707924 140.68228435 730.252707924 100 824.5 c 0,31,32
 70 894 70 894 70 984 c 0,33,34
 70 1440 70 1440 618 1440 c 0,35,36
 878 1440 878 1440 1102 1332 c 1,37,38
 1089 1295 1089 1295 1051 1191.5 c 128,-1,39
 1013 1088 1013 1088 992 1026 c 1,40,41
 787 1080 787 1080 732 1090 c 0,42,43
 687 1098 687 1098 652 1098 c 0,44,45
 641 1098 641 1098 618.5 1098.5 c 128,-1,46
 596 1099 596 1099 585 1099 c 128,-1,47
 574 1099 574 1099 556 1097.5 c 128,-1,48
 538 1096 538 1096 529 1091.5 c 128,-1,49
 520 1087 520 1087 510 1080 c 128,-1,50
 500 1073 500 1073 496 1060 c 128,-1,51
 492 1047 492 1047 492 1030 c 0,52,53
 492 967 492 967 602 934 c 1,54,55
 893.499597099 866.730862208 893.499597099 866.730862208 1033 730.5 c 0,56,57
 1152 614.2890625 1152 614.2890625 1152 460 c 0,0,1
EndSplineSet
EndChar

StartChar: T
Encoding: 84 84 58
Width: 1182
Flags: W
LayerCount: 2
Fore
SplineSet
352 1110 m 1,0,-1
 60 1110 l 1,1,-1
 60 1408 l 1,2,-1
 1122 1408 l 1,3,-1
 1122 1110 l 1,4,-1
 830 1110 l 1,5,-1
 830 0 l 1,6,-1
 352 0 l 1,7,-1
 352 1110 l 1,0,-1
EndSplineSet
EndChar

StartChar: U
Encoding: 85 85 59
Width: 1634
Flags: W
LayerCount: 2
Fore
SplineSet
817 338 m 0,0,1
 932 338 932 338 991.5 401 c 128,-1,2
 1051 464 1051 464 1051 584 c 2,3,-1
 1051 1408 l 1,4,-1
 1513 1408 l 1,5,-1
 1513 584 l 2,6,7
 1513 499.838071561 1513 499.838071561 1494.85093485 425.59400989 c 128,-1,8
 1476.7018697 351.34994822 1476.7018697 351.34994822 1445.06183217 293.40447112 c 128,-1,9
 1413.42179465 235.458994021 1413.42179465 235.458994021 1367.83210599 186.386363565 c 128,-1,10
 1322.24241733 137.313733109 1322.24241733 137.313733109 1270.24502393 101.5998799 c 128,-1,11
 1218.24763053 65.8860266902 1218.24763053 65.8860266902 1156.5 38 c 0,12,13
 1001.5 -32 1001.5 -32 817 -32 c 0,14,15
 533.54368932 -32 533.54368932 -32 334.5 124.5 c 0,16,17
 121 292.366412214 121 292.366412214 121 584 c 2,18,-1
 121 1408 l 1,19,-1
 583 1408 l 1,20,-1
 583 584 l 2,21,22
 583 338 583 338 817 338 c 0,0,1
EndSplineSet
EndChar

StartChar: V
Encoding: 86 86 60
Width: 1377
Flags: W
LayerCount: 2
Fore
SplineSet
4 1408 m 1,0,-1
 466 1408 l 1,1,-1
 684 530 l 1,2,-1
 902 1408 l 1,3,-1
 1384 1408 l 1,4,-1
 944 0 l 1,5,-1
 422 0 l 1,6,-1
 4 1408 l 1,0,-1
EndSplineSet
EndChar

StartChar: W
Encoding: 87 87 61
Width: 2028
Flags: W
LayerCount: 2
Fore
SplineSet
43 1408 m 1,0,-1
 503 1408 l 1,1,-1
 637 510 l 1,2,-1
 775 1170 l 1,3,-1
 1251 1170 l 1,4,-1
 1391 510 l 1,5,-1
 1523 1408 l 1,6,-1
 1985 1408 l 1,7,-1
 1665 0 l 1,8,-1
 1187 0 l 1,9,-1
 1013 758 l 1,10,-1
 839 0 l 1,11,-1
 363 0 l 1,12,-1
 43 1408 l 1,0,-1
EndSplineSet
EndChar

StartChar: X
Encoding: 88 88 62
Width: 1296
Flags: W
LayerCount: 2
Fore
SplineSet
391 700 m 1,0,-1
 13 1408 l 1,1,-1
 477 1408 l 1,2,-1
 643 1052 l 1,3,-1
 809 1408 l 1,4,-1
 1283 1408 l 1,5,-1
 901 700 l 1,6,-1
 1295 0 l 1,7,-1
 821 0 l 1,8,-1
 643 350 l 1,9,-1
 465 0 l 1,10,-1
 1 0 l 1,11,-1
 391 700 l 1,0,-1
EndSplineSet
EndChar

StartChar: Y
Encoding: 89 89 63
Width: 1253
Flags: W
LayerCount: 2
Fore
SplineSet
400 392 m 1,0,-1
 -6 1408 l 1,1,-1
 422 1408 l 1,2,-1
 620 776 l 1,3,-1
 816 1408 l 1,4,-1
 1266 1408 l 1,5,-1
 840 392 l 1,6,-1
 840 0 l 1,7,-1
 400 0 l 1,8,-1
 400 392 l 1,0,-1
EndSplineSet
EndChar

StartChar: Z
Encoding: 90 90 64
Width: 1107
Flags: W
LayerCount: 2
Fore
SplineSet
73 296 m 1,0,-1
 555 1110 l 1,1,-1
 93 1110 l 1,2,-1
 93 1408 l 1,3,-1
 1013 1408 l 1,4,-1
 1013 1110 l 1,5,-1
 543 296 l 1,6,-1
 1034 296 l 1,7,-1
 1034 0 l 1,8,-1
 73 0 l 1,9,-1
 73 296 l 1,0,-1
EndSplineSet
EndChar

StartChar: bracketleft
Encoding: 91 91 65
Width: 915
Flags: W
LayerCount: 2
Fore
SplineSet
119 1408 m 1,0,-1
 845 1408 l 1,1,-1
 845 1104 l 1,2,-1
 559 1104 l 1,3,-1
 559 302 l 1,4,-1
 845 302 l 1,5,-1
 845 0 l 1,6,-1
 119 0 l 1,7,-1
 119 1408 l 1,0,-1
EndSplineSet
EndChar

StartChar: backslash
Encoding: 92 92 66
Width: 656
Flags: W
LayerCount: 2
Fore
SplineSet
597 0 m 1,0,-1
 397 0 l 1,1,-1
 57 1408 l 1,2,-1
 261 1408 l 1,3,-1
 597 0 l 1,0,-1
EndSplineSet
EndChar

StartChar: bracketright
Encoding: 93 93 67
Width: 915
Flags: W
LayerCount: 2
Fore
SplineSet
70 302 m 1,0,-1
 356 302 l 1,1,-1
 356 1104 l 1,2,-1
 70 1104 l 1,3,-1
 70 1408 l 1,4,-1
 796 1408 l 1,5,-1
 796 0 l 1,6,-1
 70 0 l 1,7,-1
 70 302 l 1,0,-1
EndSplineSet
EndChar

StartChar: asciicircum
Encoding: 94 94 68
Width: 1204
Flags: W
LayerCount: 2
Fore
SplineSet
418 1376 m 1,0,-1
 784 1376 l 1,1,-1
 1134 350 l 1,2,-1
 830 350 l 1,3,-1
 604 1184 l 1,4,-1
 382 350 l 1,5,-1
 72 350 l 1,6,-1
 418 1376 l 1,0,-1
EndSplineSet
EndChar

StartChar: underscore
Encoding: 95 95 69
Width: 844
Flags: W
LayerCount: 2
Fore
SplineSet
82 142 m 1,0,-1
 762 142 l 1,1,-1
 762 -32 l 1,2,-1
 82 -32 l 1,3,-1
 82 142 l 1,0,-1
EndSplineSet
EndChar

StartChar: grave
Encoding: 96 96 70
Width: 864
Flags: W
LayerCount: 2
Fore
SplineSet
238 1790 m 1,0,-1
 838 1370 l 1,1,-1
 712 1150 l 1,2,-1
 30 1424 l 1,3,-1
 238 1790 l 1,0,-1
EndSplineSet
EndChar

StartChar: a
Encoding: 97 97 71
Width: 1425
Flags: W
LayerCount: 2
Fore
SplineSet
890 190 m 1,0,1
 843 90 843 90 759 29 c 128,-1,2
 675 -32 675 -32 552 -32 c 0,3,4
 359 -32 359 -32 210 119 c 0,5,6
 52 279 52 279 52 519 c 0,7,8
 52 682 52 682 125.5 800.5 c 128,-1,9
 199 919 199 919 319 989 c 0,10,11
 433 1056 433 1056 554 1056 c 0,12,13
 718 1056 718 1056 832 907 c 0,14,15
 868 860 868 860 890 802 c 1,16,-1
 890 1056 l 1,17,-1
 1320 1026 l 1,18,-1
 1320 0 l 1,19,-1
 890 -32 l 1,20,-1
 890 190 l 1,0,1
890 520 m 1,21,22
 887 583 887 583 851.5 630 c 128,-1,23
 816 677 816 677 763 700 c 0,24,25
 727 716 727 716 688 716 c 0,26,27
 620.554863272 716 620.554863272 716 571.716435743 680.832918301 c 128,-1,28
 522.878008215 645.665836603 522.878008215 645.665836603 498.5 591 c 0,29,30
 482 554 482 554 482 512 c 0,31,32
 482 445.884848716 482 445.884848716 518.013616976 397.176432888 c 128,-1,33
 554.027233953 348.468017061 554.027233953 348.468017061 608.5 324.5 c 0,34,35
 646 308 646 308 688 308 c 0,36,37
 751.605820728 308 751.605820728 308 798.967448039 341.990652203 c 128,-1,38
 846.329075349 375.981304406 846.329075349 375.981304406 871 427.5 c 0,39,40
 888 463 888 463 890 504 c 1,41,-1
 890 520 l 1,21,22
EndSplineSet
EndChar

StartChar: b
Encoding: 98 98 72
Width: 1428
Flags: W
LayerCount: 2
Fore
SplineSet
875 -32 m 0,0,1
 756 -32 756 -32 672.5 28 c 128,-1,2
 589 88 589 88 541 190 c 1,3,-1
 541 0 l 1,4,-1
 107 0 l 1,5,-1
 107 1350 l 1,6,-1
 541 1414 l 1,7,-1
 541 834 l 1,8,9
 644 1056 644 1056 873 1056 c 0,10,11
 974.895317431 1056 974.895317431 1056 1062.72916956 1014.69890105 c 128,-1,12
 1150.56302168 973.397802109 1150.56302168 973.397802109 1216 907.5 c 0,13,14
 1287.91248858 835.08108544 1287.91248858 835.08108544 1331.45624429 734.636946102 c 128,-1,15
 1375 634.192806764 1375 634.192806764 1375 512 c 0,16,17
 1375 275 1375 275 1217 117 c 0,18,19
 1068 -32 1068 -32 875 -32 c 0,0,1
541 512 m 2,20,21
 541 445.8402273 541 445.8402273 576.117593484 397.158213853 c 128,-1,22
 611.235186968 348.476200406 611.235186968 348.476200406 665 324.5 c 0,23,24
 702 308 702 308 743 308 c 0,25,26
 810 308 810 308 858.5 344 c 128,-1,27
 907 380 907 380 931 434 c 0,28,29
 947 471 947 471 947 512 c 0,30,31
 947 579 947 579 911.5 627.5 c 128,-1,32
 876 676 876 676 822 700 c 0,33,34
 785 716 785 716 743 716 c 0,35,36
 678.317097652 716 678.317097652 716 630.610338186 681.502334685 c 128,-1,37
 582.903578721 647.004669369 582.903578721 647.004669369 558.5 594.5 c 0,38,39
 542 559 542 559 541 520 c 1,40,-1
 541 512 l 2,20,21
EndSplineSet
EndChar

StartChar: c
Encoding: 99 99 73
Width: 966
Flags: W
LayerCount: 2
Fore
SplineSet
882 686 m 1,0,1
 769 720 769 720 682 720 c 0,2,3
 589 720 589 720 533.5 663 c 128,-1,4
 478 606 478 606 478 512 c 0,5,6
 478 417 478 417 535 359.5 c 128,-1,7
 592 302 592 302 686 302 c 0,8,9
 773 302 773 302 878 336 c 1,10,-1
 918 50 l 1,11,12
 839 11 839 11 767.5 -10.5 c 128,-1,13
 696 -32 696 -32 608 -32 c 0,14,15
 425 -32 425 -32 294 54.5 c 128,-1,16
 163 141 163 141 98 283 c 0,17,18
 52 384 52 384 52 512 c 0,19,20
 52 595.562372973 52 595.562372973 74.5069073124 671.227972152 c 128,-1,21
 97.0138146247 746.893571331 97.0138146247 746.893571331 132.801169875 802.929621019 c 128,-1,22
 168.588525125 858.965670706 168.588525125 858.965670706 217.5 905 c 0,23,24
 290.824969062 974.011735588 290.824969062 974.011735588 389.971019128 1015.00586779 c 128,-1,25
 489.117069194 1056 489.117069194 1056 608 1056 c 0,26,27
 702 1056 702 1056 770.5 1032 c 128,-1,28
 839 1008 839 1008 922 958 c 1,29,-1
 882 686 l 1,0,1
EndSplineSet
EndChar

StartChar: d
Encoding: 100 100 74
Width: 1428
Flags: W
LayerCount: 2
Fore
SplineSet
553 1056 m 0,0,1
 786 1056 786 1056 889 834 c 1,2,-1
 889 1350 l 1,3,-1
 1321 1414 l 1,4,-1
 1321 0 l 1,5,-1
 889 0 l 1,6,-1
 889 190 l 1,7,8
 841 89 841 89 757.5 28.5 c 128,-1,9
 674 -32 674 -32 551 -32 c 0,10,11
 361 -32 361 -32 212 117 c 0,12,13
 53 276 53 276 53 512 c 0,14,15
 53 749 53 749 212 908 c 0,16,17
 360 1056 360 1056 553 1056 c 0,0,1
889 520 m 1,18,19
 886 583 886 583 850.5 630 c 128,-1,20
 815 677 815 677 762 700 c 0,21,22
 726 716 726 716 687 716 c 0,23,24
 620 716 620 716 571.5 680.5 c 128,-1,25
 523 645 523 645 499 591 c 0,26,27
 483 554 483 554 483 512 c 0,28,29
 483 445.621242295 483 445.621242295 518.37161363 397.158415069 c 128,-1,30
 553.74322726 348.695587844 553.74322726 348.695587844 608 324.5 c 0,31,32
 645 308 645 308 687 308 c 0,33,34
 753 308 753 308 801 344 c 128,-1,35
 849 380 849 380 873 434 c 0,36,37
 889 471 889 471 889 512 c 2,38,-1
 889 520 l 1,18,19
EndSplineSet
EndChar

StartChar: e
Encoding: 101 101 75
Width: 1138
Flags: W
LayerCount: 2
Fore
SplineSet
698 262 m 0,0,1
 838 262 838 262 1000 334 c 1,2,-1
 1050 52 l 1,3,4
 864 -32 864 -32 632 -32 c 0,5,6
 464.669764778 -32 464.669764778 -32 337.845548993 36.6798650749 c 128,-1,7
 211.021333208 105.35973015 211.021333208 105.35973015 136.5 219.5 c 0,8,9
 52 348.924050633 52 348.924050633 52 512 c 0,10,11
 52 640.321161188 52 640.321161188 100.565110971 741.78277075 c 128,-1,12
 149.130221941 843.244380312 149.130221941 843.244380312 230 913.5 c 0,13,14
 304.288586209 978.038209269 304.288586209 978.038209269 403.924485573 1017.01910463 c 128,-1,15
 503.560384938 1056 503.560384938 1056 618 1056 c 0,16,17
 699.878781287 1056 699.878781287 1056 770.381270975 1034.34108175 c 128,-1,18
 840.883760663 1012.6821635 840.883760663 1012.6821635 894.162643636 973.242378238 c 128,-1,19
 947.441526608 933.802592973 947.441526608 933.802592973 986.731452428 882.312741747 c 128,-1,20
 1026.02137825 830.822890521 1026.02137825 830.822890521 1052 767.5 c 0,21,22
 1092 670 1092 670 1092 538 c 0,23,24
 1092 510 1092 510 1088 486 c 1,25,-1
 474 406 l 1,26,27
 522 262 522 262 698 262 c 0,0,1
774 664 m 1,28,29
 740 792 740 792 618 792 c 0,30,31
 542 792 542 792 500.5 736 c 128,-1,32
 459 680 459 680 456 594 c 1,33,-1
 774 664 l 1,28,29
EndSplineSet
EndChar

StartChar: f
Encoding: 102 102 76
Width: 890
Flags: W
LayerCount: 2
Fore
SplineSet
676 1264 m 0,0,1
 616 1264 616 1264 582.5 1234 c 128,-1,2
 549 1204 549 1204 549 1148 c 0,3,4
 549 1094 549 1094 584 1026 c 1,5,-1
 870 1026 l 1,6,-1
 870 772 l 1,7,-1
 612 772 l 1,8,-1
 612 0 l 1,9,-1
 180 0 l 1,10,-1
 180 772 l 1,11,-1
 52 772 l 1,12,-1
 52 1026 l 1,13,-1
 180 1026 l 1,14,15
 180 1331 180 1331 280 1460 c 0,16,17
 367 1572 367 1572 554 1572 c 0,18,19
 713 1572 713 1572 888 1494 c 1,20,-1
 874 1216 l 1,21,22
 757 1264 757 1264 676 1264 c 0,0,1
EndSplineSet
EndChar

StartChar: g
Encoding: 103 103 77
Width: 1423
Flags: W
LayerCount: 2
Fore
SplineSet
917 170 m 1,0,1
 798 0 798 0 549 0 c 0,2,3
 356.222222222 0 356.222222222 0 209.5 139 c 0,4,5
 54 286.315789474 54 286.315789474 54 519 c 0,6,7
 54 681.715045288 54 681.715045288 124.780910803 799.954220929 c 128,-1,8
 195.561821606 918.193396569 195.561821606 918.193396569 312.5 989 c 0,9,10
 423.151515152 1056 423.151515152 1056 545 1056 c 0,11,12
 637 1056 637 1056 710 1016.5 c 128,-1,13
 783 977 783 977 832 914 c 0,14,15
 869 866 869 866 887 802 c 1,16,-1
 887 1056 l 1,17,-1
 1319 1024 l 1,18,-1
 1319 260 l 2,19,20
 1319 89 1319 89 1281 -44 c 128,-1,21
 1243 -177 1243 -177 1166.5 -273 c 128,-1,22
 1090 -369 1090 -369 968 -419.5 c 128,-1,23
 846 -470 846 -470 683 -470 c 0,24,25
 587 -470 587 -470 467 -450 c 1,26,-1
 499 -144 l 1,27,28
 600 -156 600 -156 639 -156 c 0,29,30
 699 -156 699 -156 744.5 -138.5 c 128,-1,31
 790 -121 790 -121 818.5 -94 c 128,-1,32
 847 -67 847 -67 867 -22 c 128,-1,33
 887 23 887 23 897.5 66 c 128,-1,34
 908 109 908 109 917 170 c 1,0,1
887 520 m 1,35,36
 884 582 884 582 847.5 629 c 128,-1,37
 811 676 811 676 758 700 c 0,38,39
 722 716 722 716 683 716 c 0,40,41
 616 716 616 716 567.5 680.5 c 128,-1,42
 519 645 519 645 495 591 c 0,43,44
 479 554 479 554 479 512 c 0,45,46
 479 467.020399082 479 467.020399082 496.804886232 428.57012743 c 128,-1,47
 514.609772463 390.119855777 514.609772463 390.119855777 541.871169148 365.084423345 c 128,-1,48
 569.132565832 340.048990913 569.132565832 340.048990913 604 324.5 c 0,49,50
 641 308 641 308 683 308 c 0,51,52
 746.603255223 308 746.603255223 308 794.396072791 342.077303077 c 128,-1,53
 842.188890358 376.154606155 842.188890358 376.154606155 867.5 427.5 c 0,54,55
 885 463 885 463 887 504 c 1,56,-1
 887 520 l 1,35,36
EndSplineSet
EndChar

StartChar: h
Encoding: 104 104 78
Width: 1413
Flags: W
LayerCount: 2
Fore
SplineSet
107 1350 m 1,0,-1
 539 1414 l 1,1,-1
 539 798 l 1,2,3
 620.075808447 992.002827355 620.075808447 992.002827355 778.5 1041 c 0,4,5
 827 1056 827 1056 877 1056 c 0,6,7
 1053 1056 1053 1056 1179 918 c 0,8,9
 1317 767 1317 767 1317 520 c 2,10,-1
 1317 0 l 1,11,-1
 887 0 l 1,12,-1
 887 512 l 2,13,14
 887 574.354604151 887 574.354604151 862.963705351 624.258027526 c 128,-1,15
 838.927410702 674.161450901 838.927410702 674.161450901 799 699.5 c 0,16,17
 773 716 773 716 743 716 c 0,18,19
 674.567151263 716 674.567151263 716 626.008167847 677.491702743 c 128,-1,20
 577.449184431 638.983405486 577.449184431 638.983405486 554.5 580.5 c 0,21,22
 539 541 539 541 539 498 c 2,23,-1
 539 0 l 1,24,-1
 107 0 l 1,25,-1
 107 1350 l 1,0,-1
EndSplineSet
EndChar

StartChar: i
Encoding: 105 105 79
Width: 748
Flags: W
LayerCount: 2
Fore
SplineSet
91 1366 m 0,0,1
 91 1434.75963064 91 1434.75963064 131.78646502 1483.30279586 c 128,-1,2
 172.572930041 1531.84596107 172.572930041 1531.84596107 233.5 1555.5 c 0,3,4
 276 1572 276 1572 323 1572 c 0,5,6
 372.137383142 1572 372.137383142 1572 414.931645997 1554.44290772 c 128,-1,7
 457.725908852 1536.88581544 457.725908852 1536.88581544 486.797787258 1509.08468502 c 128,-1,8
 515.869665664 1481.28355461 515.869665664 1481.28355461 534 1445.5 c 0,9,10
 553 1408 553 1408 553 1366 c 0,11,12
 553 1296.75247105 553 1296.75247105 512.029054113 1247.05008771 c 128,-1,13
 471.058108226 1197.34770438 471.058108226 1197.34770438 410.5 1174 c 0,14,15
 369 1158 369 1158 323 1158 c 0,16,17
 248.133771871 1158 248.133771871 1158 192.715194633 1193.07775264 c 128,-1,18
 137.296617395 1228.15550528 137.296617395 1228.15550528 109.5 1284.5 c 0,19,20
 91 1322 91 1322 91 1366 c 0,0,1
731 38 m 1,21,22
 608 -32 608 -32 463 -32 c 0,23,24
 336.320381508 -32 336.320381508 -32 252.783935714 27.7636588547 c 128,-1,25
 169.247489919 87.5273177095 169.247489919 87.5273177095 129 191.5 c 0,26,27
 99 269 99 269 99 378 c 2,28,-1
 99 1026 l 1,29,-1
 533 1026 l 1,30,-1
 533 408 l 2,31,32
 533 357 533 357 555.5 328.5 c 128,-1,33
 578 300 578 300 621 300 c 128,-1,34
 664 300 664 300 709 324 c 1,35,-1
 731 38 l 1,21,22
EndSplineSet
EndChar

StartChar: j
Encoding: 106 106 80
Width: 646
Flags: W
LayerCount: 2
Fore
SplineSet
-29 -110 m 0,0,1
 107 -110 107 -110 107 60 c 2,2,-1
 107 1026 l 1,3,-1
 539 1026 l 1,4,-1
 539 60 l 2,5,6
 539 -123 539 -123 465 -245 c 128,-1,7
 391 -367 391 -367 255 -414 c 0,8,9
 173 -442 173 -442 85 -442 c 0,10,11
 -103 -442 -103 -442 -265 -334 c 1,12,-1
 -171 -80 l 1,13,14
 -76 -110 -76 -110 -29 -110 c 0,0,1
85 1366 m 0,15,16
 85 1433.22915686 85 1433.22915686 126.440637665 1482.51266328 c 128,-1,17
 167.881275329 1531.79616971 167.881275329 1531.79616971 227.5 1555.5 c 0,18,19
 269 1572 269 1572 315 1572 c 0,20,21
 365.134651923 1572 365.134651923 1572 408.415959049 1554.55687811 c 128,-1,22
 451.697266176 1537.11375622 451.697266176 1537.11375622 481.106173271 1509.0348372 c 128,-1,23
 510.515080366 1480.95591818 510.515080366 1480.95591818 528.5 1444.5 c 0,24,25
 547 1407 547 1407 547 1366 c 0,26,27
 547 1295.98757145 547 1295.98757145 506.351002451 1246.51416312 c 128,-1,28
 465.702004903 1197.04075479 465.702004903 1197.04075479 404.5 1174 c 0,29,30
 362 1158 362 1158 315 1158 c 0,31,32
 241.488620253 1158 241.488620253 1158 186.917509048 1193.27658108 c 128,-1,33
 132.346397843 1228.55316215 132.346397843 1228.55316215 104 1284.5 c 0,34,35
 85 1322 85 1322 85 1366 c 0,15,16
EndSplineSet
EndChar

StartChar: k
Encoding: 107 107 81
Width: 1314
Flags: W
LayerCount: 2
Fore
SplineSet
973 592 m 1,0,1
 996.376014169 463.431922069 996.376014169 463.431922069 1017.16863644 417.369720663 c 0,2,3
 1065.15634136 314.675838211 1065.15634136 314.675838211 1179 314 c 0,4,5
 1209 314 1209 314 1267 326 c 1,6,-1
 1227 -24 l 1,7,8
 1164 -30 1164 -30 1113 -30 c 0,9,10
 952.915676197 -30 952.915676197 -30 858.691850343 28.7365596526 c 128,-1,11
 764.468024489 87.4731193051 764.468024489 87.4731193051 716.5 207 c 0,12,13
 686 283 686 283 661 378 c 1,14,-1
 541 282 l 1,15,-1
 541 0 l 1,16,-1
 107 0 l 1,17,-1
 107 1350 l 1,18,-1
 541 1414 l 1,19,-1
 541 712 l 1,20,-1
 1067 1142 l 1,21,-1
 1303 822 l 1,22,-1
 973 592 l 1,0,1
EndSplineSet
EndChar

StartChar: l
Encoding: 108 108 82
Width: 774
Flags: W
LayerCount: 2
Fore
SplineSet
771 38 m 1,0,1
 631 -32 631 -32 463 -32 c 0,2,3
 334.971752512 -32 334.971752512 -32 251.683649703 27.3448324697 c 128,-1,4
 168.395546894 86.6896649393 168.395546894 86.6896649393 128.5 191.5 c 0,5,6
 99 269 99 269 99 378 c 2,7,-1
 99 1350 l 1,8,-1
 531 1414 l 1,9,-1
 531 408 l 2,10,11
 531 353 531 353 566 326.5 c 128,-1,12
 601 300 601 300 661 300 c 0,13,14
 707 300 707 300 755 324 c 1,15,-1
 771 38 l 1,0,1
EndSplineSet
EndChar

StartChar: m
Encoding: 109 109 83
Width: 2100
Flags: W
LayerCount: 2
Fore
SplineSet
1240 786 m 1,0,1
 1282 911 1282 911 1376 983.5 c 128,-1,2
 1470 1056 1470 1056 1616 1056 c 0,3,4
 1777.20714286 1056 1777.20714286 1056 1886.5 913 c 0,5,6
 2004 759.261682243 2004 759.261682243 2004 512 c 2,7,-1
 2004 0 l 1,8,-1
 1572 0 l 1,9,-1
 1572 512 l 2,10,11
 1572 580 1572 580 1549.5 629.5 c 128,-1,12
 1527 679 1527 679 1484 700 c 0,13,14
 1459 712 1459 712 1432 712 c 0,15,16
 1395.01757138 712 1395.01757138 712 1363.98776809 694.663785821 c 128,-1,17
 1332.95796481 677.327571643 1332.95796481 677.327571643 1313.87329914 652.304260146 c 128,-1,18
 1294.78863348 627.280948649 1294.78863348 627.280948649 1282.5 595.5 c 0,19,20
 1268 558 1268 558 1268 512 c 2,21,-1
 1268 0 l 1,22,-1
 840 0 l 1,23,-1
 840 512 l 2,24,25
 840 581 840 581 816.5 630 c 128,-1,26
 793 679 793 679 748 700 c 0,27,28
 722 712 722 712 696 712 c 0,29,30
 623 712 623 712 579.5 655.5 c 128,-1,31
 536 599 536 599 534 520 c 1,32,-1
 534 0 l 1,33,-1
 102 0 l 1,34,-1
 102 990 l 1,35,-1
 534 1056 l 1,36,-1
 534 802 l 1,37,38
 648 1056 648 1056 884 1056 c 0,39,40
 1063.02970297 1056 1063.02970297 1056 1178.5 900.5 c 0,41,42
 1216 850 1216 850 1240 786 c 1,0,1
EndSplineSet
EndChar

StartChar: n
Encoding: 110 110 84
Width: 1407
Flags: W
LayerCount: 2
Fore
SplineSet
102 990 m 1,0,-1
 534 1056 l 1,1,-1
 534 802 l 1,2,3
 622 992 622 992 788 1041 c 0,4,5
 839 1056 839 1056 890 1056 c 0,6,7
 976.993327494 1056 976.993327494 1056 1049.90236071 1016.08153298 c 128,-1,8
 1122.81139393 976.163065959 1122.81139393 976.163065959 1176.5 913 c 0,9,10
 1238.58163649 839.962780598 1238.58163649 839.962780598 1274.29081825 737.96896237 c 128,-1,11
 1310 635.975144142 1310 635.975144142 1310 512 c 2,12,-1
 1310 0 l 1,13,-1
 880 0 l 1,14,-1
 880 512 l 2,15,16
 880 574.354604151 880 574.354604151 855.963705351 624.258027526 c 128,-1,17
 831.927410702 674.161450901 831.927410702 674.161450901 792 699.5 c 0,18,19
 766 716 766 716 736 716 c 0,20,21
 671.317097652 716 671.317097652 716 623.610338186 681.502334685 c 128,-1,22
 575.903578721 647.004669369 575.903578721 647.004669369 551.5 594.5 c 0,23,24
 535 559 535 559 534 520 c 1,25,-1
 534 0 l 1,26,-1
 102 0 l 1,27,-1
 102 990 l 1,0,-1
EndSplineSet
EndChar

StartChar: o
Encoding: 111 111 85
Width: 1284
Flags: W
LayerCount: 2
Fore
SplineSet
644 310 m 0,0,1
 684.661736982 310 684.661736982 310 719.676917103 329.07308146 c 128,-1,2
 754.692097225 348.14616292 754.692097225 348.14616292 776.554453065 375.264111444 c 128,-1,3
 798.416808906 402.382059968 798.416808906 402.382059968 812.5 436 c 0,4,5
 828 473 828 473 828 514 c 0,6,7
 828 579 828 579 795.5 628.5 c 128,-1,8
 763 678 763 678 713 702 c 0,9,10
 680 718 680 718 644 718 c 0,11,12
 562 718 562 718 512 659 c 128,-1,13
 462 600 462 600 462 514 c 0,14,15
 462 448.645174305 462 448.645174305 492.718716117 399.655159811 c 128,-1,16
 523.437432235 350.665145317 523.437432235 350.665145317 572.5 326.5 c 0,17,18
 606 310 606 310 644 310 c 0,0,1
52 514 m 0,19,20
 52.9901808902 645.694058399 52.9901808902 645.694058399 102.805462622 746.777878526 c 128,-1,21
 152.620744354 847.861698654 152.620744354 847.861698654 237 917.5 c 0,22,23
 287.489920043 959.169391843 287.489920043 959.169391843 348.463097099 989.514991672 c 128,-1,24
 409.436274155 1019.8605915 409.436274155 1019.8605915 485.944675153 1037.93029575 c 128,-1,25
 562.453076151 1056 562.453076151 1056 644 1056 c 0,26,27
 810.507495881 1056 810.507495881 1056 938.689638861 989.393892645 c 128,-1,28
 1066.87178184 922.787785289 1066.87178184 922.787785289 1143.5 812 c 0,29,30
 1232 684.048192771 1232 684.048192771 1232 514 c 0,31,32
 1232 423.272857515 1232 423.272857515 1208.44775183 345.139219911 c 128,-1,33
 1184.89550367 267.005582307 1184.89550367 267.005582307 1142.15960193 208.012778614 c 128,-1,34
 1099.4237002 149.019974922 1099.4237002 149.019974922 1045.59153571 105.189685993 c 128,-1,35
 991.759371219 61.3593970653 991.759371219 61.3593970653 925.5 30 c 0,36,37
 794.5 -32 794.5 -32 642 -32 c 0,38,39
 472.16941837 -32 472.16941837 -32 343.017257338 34.4587860924 c 128,-1,40
 213.865096306 100.917572185 213.865096306 100.917572185 138.5 213.5 c 0,41,42
 52 342.716049383 52 342.716049383 52 514 c 0,19,20
EndSplineSet
EndChar

StartChar: p
Encoding: 112 112 86
Width: 1423
Flags: W
LayerCount: 2
Fore
SplineSet
870 -32 m 0,0,1
 644 -32 644 -32 534 190 c 1,2,-1
 534 -266 l 1,3,-1
 102 -348 l 1,4,-1
 102 990 l 1,5,-1
 534 1056 l 1,6,-1
 534 834 l 1,7,8
 641 1056 641 1056 868 1056 c 0,9,10
 1058.87368421 1056 1058.87368421 1056 1210.5 907.5 c 0,11,12
 1370 751.288659794 1370 751.288659794 1370 512 c 0,13,14
 1370 276 1370 276 1211 117 c 0,15,16
 1062 -32 1062 -32 870 -32 c 0,0,1
534 512 m 2,17,18
 534 446.48047458 534 446.48047458 569.547218364 397.561357756 c 128,-1,19
 605.094436727 348.642240931 605.094436727 348.642240931 658.5 324.5 c 0,20,21
 695 308 695 308 736 308 c 0,22,23
 804 308 804 308 853 343.5 c 128,-1,24
 902 379 902 379 926 434 c 0,25,26
 942 471 942 471 942 512 c 0,27,28
 942 557.435924259 942 557.435924259 924.387985845 596.021141026 c 128,-1,29
 906.775971689 634.606357794 906.775971689 634.606357794 879.29614918 659.769029207 c 128,-1,30
 851.816326672 684.93170062 851.816326672 684.93170062 816.5 700 c 0,31,32
 779 716 779 716 736 716 c 0,33,34
 709.307177468 716 709.307177468 716 684.780563072 709.451888774 c 128,-1,35
 660.253948677 702.903777549 660.253948677 702.903777549 640.699959723 691.678015024 c 128,-1,36
 621.14597077 680.452252499 621.14597077 680.452252499 604.266796246 664.823054598 c 128,-1,37
 587.387621722 649.193856697 587.387621722 649.193856697 575.030607574 631.715490973 c 128,-1,38
 562.673593426 614.23712525 562.673593426 614.23712525 553.5 594.5 c 0,39,40
 537 559 537 559 534 520 c 1,41,-1
 534 512 l 2,17,18
EndSplineSet
EndChar

StartChar: q
Encoding: 113 113 87
Width: 1425
Flags: W
LayerCount: 2
Fore
SplineSet
555 1056 m 0,0,1
 783 1056 783 1056 891 834 c 1,2,-1
 891 1056 l 1,3,-1
 1323 990 l 1,4,-1
 1323 -266 l 1,5,-1
 891 -348 l 1,6,-1
 891 190 l 1,7,8
 781 -32 781 -32 553 -32 c 0,9,10
 453 -32 453 -32 365.5 10 c 128,-1,11
 278 52 278 52 213 117 c 0,12,13
 53 277 53 277 53 512 c 0,14,15
 53 595.443253179 53 595.443253179 74.7880643592 671.693562814 c 128,-1,16
 96.5761287184 747.943872449 96.5761287184 747.943872449 131.095836245 804.693639776 c 128,-1,17
 165.615543772 861.443407102 165.615543772 861.443407102 212.5 908 c 0,18,19
 278.838887321 973.874979018 278.838887321 973.874979018 366.059408053 1014.93748951 c 128,-1,20
 453.279928785 1056 453.279928785 1056 555 1056 c 0,0,1
891 520 m 1,21,22
 887.817157971 582.065419559 887.817157971 582.065419559 851.785657158 629.257125251 c 128,-1,23
 815.754156344 676.448830943 815.754156344 676.448830943 763.5 700 c 0,24,25
 728 716 728 716 689 716 c 0,26,27
 621.554863272 716 621.554863272 716 572.716435743 680.832918301 c 128,-1,28
 523.878008215 645.665836603 523.878008215 645.665836603 499.5 591 c 0,29,30
 483 554 483 554 483 512 c 0,31,32
 483 445.884848716 483 445.884848716 519.013616976 397.176432888 c 128,-1,33
 555.027233953 348.468017061 555.027233953 348.468017061 609.5 324.5 c 0,34,35
 647 308 647 308 689 308 c 0,36,37
 752.282583419 308 752.282583419 308 799.188571724 341.981625173 c 128,-1,38
 846.09456003 375.963250346 846.09456003 375.963250346 871.5 427.5 c 0,39,40
 889 463 889 463 891 504 c 1,41,-1
 891 520 l 1,21,22
EndSplineSet
EndChar

StartChar: r
Encoding: 114 114 88
Width: 914
Flags: W
LayerCount: 2
Fore
SplineSet
102 990 m 1,0,-1
 534 1056 l 1,1,-1
 534 802 l 1,2,3
 611.192109777 993.550790928 611.192109777 993.550790928 760 1041.5 c 0,4,5
 805 1056 805 1056 850 1056 c 1,6,-1
 912 706 l 1,7,8
 712 706 712 706 619 659.5 c 0,9,10
 534 617 534 617 534 532 c 2,11,-1
 534 0 l 1,12,-1
 102 0 l 1,13,-1
 102 990 l 1,0,-1
EndSplineSet
EndChar

StartChar: s
Encoding: 115 115 89
Width: 947
Flags: W
LayerCount: 2
Fore
SplineSet
546 786 m 0,0,1
 424 786 424 786 424 744 c 0,2,3
 424 714 424 714 456 694 c 128,-1,4
 488 674 488 674 526 670 c 1,5,6
 608 657 608 657 670.5 634 c 128,-1,7
 733 611 733 611 786 571.5 c 128,-1,8
 839 532 839 532 867.5 470 c 128,-1,9
 896 408 896 408 896 326 c 0,10,11
 896 208 896 208 837 124.5 c 128,-1,12
 778 41 778 41 683 -1 c 0,13,14
 612 -32 612 -32 518 -32 c 0,15,16
 257 -32 257 -32 80 48 c 1,17,-1
 126 284 l 1,18,19
 192 266 192 266 224 258 c 128,-1,20
 256 250 256 250 311.5 241 c 128,-1,21
 367 232 367 232 414 232 c 0,22,23
 516 232 516 232 516 280 c 0,24,25
 516 297 516 297 504 311 c 128,-1,26
 492 325 492 325 480 331.5 c 128,-1,27
 468 338 468 338 448 347 c 0,28,29
 420 359 420 359 374 368 c 0,30,31
 217 398 217 398 136.5 475 c 128,-1,32
 56 552 56 552 56 706 c 1,33,34
 61 823 61 823 119.5 903 c 128,-1,35
 178 983 178 983 273 1019.5 c 128,-1,36
 368 1056 368 1056 494 1056 c 0,37,38
 688 1056 688 1056 838 984 c 1,39,-1
 794 740 l 1,40,41
 639 786 639 786 546 786 c 0,0,1
EndSplineSet
EndChar

StartChar: t
Encoding: 116 116 90
Width: 890
Flags: W
LayerCount: 2
Fore
SplineSet
839 38 m 1,0,1
 699 -32 699 -32 531 -32 c 0,2,3
 402.971752512 -32 402.971752512 -32 319.683649703 27.3448324697 c 128,-1,4
 236.395546894 86.6896649393 236.395546894 86.6896649393 196.5 191.5 c 0,5,6
 167 269 167 269 167 378 c 2,7,-1
 169 772 l 1,8,-1
 39 772 l 1,9,-1
 39 1026 l 1,10,-1
 201 1026 l 1,11,-1
 391 1414 l 1,12,-1
 599 1414 l 1,13,-1
 599 1026 l 1,14,-1
 835 1026 l 1,15,-1
 835 772 l 1,16,-1
 599 772 l 1,17,-1
 599 408 l 2,18,19
 599 354 599 354 634.5 327 c 128,-1,20
 670 300 670 300 729 300 c 0,21,22
 776 300 776 300 823 324 c 1,23,-1
 839 38 l 1,0,1
EndSplineSet
EndChar

StartChar: u
Encoding: 117 117 91
Width: 1286
Flags: W
LayerCount: 2
Fore
SplineSet
516 426 m 2,0,1
 516 372 516 372 555 338 c 128,-1,2
 594 304 594 304 650 304 c 0,3,4
 702 304 702 304 739 339.5 c 128,-1,5
 776 375 776 375 776 426 c 2,6,-1
 776 1026 l 1,7,-1
 1190 1026 l 1,8,-1
 1190 440 l 2,9,10
 1190 216 1190 216 1022 86 c 0,11,12
 870 -32 870 -32 648 -32 c 0,13,14
 472.079770561 -32 472.079770561 -32 340.457351855 40.1365460035 c 128,-1,15
 208.834933149 112.273092007 208.834933149 112.273092007 142 235.5 c 0,16,17
 94 324 94 324 94 440 c 2,18,-1
 94 1026 l 1,19,-1
 516 1026 l 1,20,-1
 516 426 l 2,0,1
EndSplineSet
EndChar

StartChar: v
Encoding: 118 118 92
Width: 1168
Flags: W
LayerCount: 2
Fore
SplineSet
2 1026 m 1,0,-1
 478 1026 l 1,1,-1
 640 396 l 1,2,-1
 666 536 l 1,3,-1
 788 1026 l 1,4,-1
 1164 1026 l 1,5,-1
 838 0 l 1,6,-1
 340 0 l 1,7,-1
 2 1026 l 1,0,-1
EndSplineSet
EndChar

StartChar: w
Encoding: 119 119 93
Width: 1707
Flags: W
LayerCount: 2
Fore
SplineSet
41 1026 m 1,0,-1
 459 1026 l 1,1,-1
 575 360 l 1,2,3
 598 458 598 458 621 566 c 128,-1,4
 644 674 644 674 673.5 817.5 c 128,-1,5
 703 961 703 961 717 1026 c 1,6,-1
 1069 1026 l 1,7,-1
 1171 544 l 1,8,-1
 1209 344 l 1,9,-1
 1249 544 l 1,10,-1
 1329 1026 l 1,11,-1
 1665 1026 l 1,12,-1
 1453 0 l 1,13,-1
 957 0 l 1,14,-1
 847 542 l 1,15,-1
 739 0 l 1,16,-1
 267 0 l 1,17,-1
 41 1026 l 1,0,-1
EndSplineSet
EndChar

StartChar: x
Encoding: 120 120 94
Width: 1136
Flags: W
LayerCount: 2
Fore
SplineSet
316 532 m 1,0,-1
 24 1026 l 1,1,-1
 456 1026 l 1,2,-1
 572 784 l 1,3,-1
 690 1026 l 1,4,-1
 1110 1026 l 1,5,-1
 824 532 l 1,6,-1
 1130 0 l 1,7,-1
 710 0 l 1,8,-1
 572 262 l 1,9,-1
 436 0 l 1,10,-1
 4 0 l 1,11,-1
 316 532 l 1,0,-1
EndSplineSet
EndChar

StartChar: y
Encoding: 121 121 95
Width: 1369
Flags: W
LayerCount: 2
Fore
SplineSet
852 170 m 1,0,1
 758 0 758 0 556 0 c 0,2,3
 466.045138495 0 466.045138495 0 386.067633369 32.0988764758 c 128,-1,4
 306.090128244 64.1977529517 306.090128244 64.1977529517 245.5 116 c 0,5,6
 179.260691275 172.632080742 179.260691275 172.632080742 138.630345637 252.844609009 c 128,-1,7
 98 333.057137276 98 333.057137276 98 434 c 2,8,-1
 98 1026 l 1,9,-1
 528 1026 l 1,10,-1
 528 454 l 2,11,12
 528 408 528 408 554 373 c 128,-1,13
 580 338 580 338 617 320 c 0,14,15
 642 308 642 308 668 308 c 0,16,17
 741 308 741 308 786.5 357.5 c 128,-1,18
 832 407 832 407 832 482 c 2,19,-1
 832 1026 l 1,20,-1
 1264 1026 l 1,21,-1
 1264 260 l 2,22,23
 1264 -120.857142857 1264 -120.857142857 1099 -310.5 c 0,24,25
 951.525423729 -480 951.525423729 -480 690 -480 c 0,26,27
 625 -480 625 -480 512 -460 c 1,28,-1
 556 -124 l 1,29,30
 604 -136 604 -136 646 -136 c 0,31,32
 686 -136 686 -136 717.5 -125 c 128,-1,33
 749 -114 749 -114 770 -89.5 c 128,-1,34
 791 -65 791 -65 805 -41 c 128,-1,35
 819 -17 819 -17 828.5 24 c 128,-1,36
 838 65 838 65 842.5 93.5 c 128,-1,37
 847 122 847 122 852 170 c 1,0,1
EndSplineSet
EndChar

StartChar: z
Encoding: 122 122 96
Width: 1003
Flags: W
LayerCount: 2
Fore
SplineSet
63 220 m 1,0,-1
 423 764 l 1,1,-1
 77 764 l 1,2,-1
 77 1026 l 1,3,-1
 929 1026 l 1,4,-1
 929 804 l 1,5,-1
 611 262 l 1,6,-1
 939 262 l 1,7,-1
 939 0 l 1,8,-1
 63 0 l 1,9,-1
 63 220 l 1,0,-1
EndSplineSet
EndChar

StartChar: braceleft
Encoding: 123 123 97
Width: 728
Flags: W
LayerCount: 2
Fore
SplineSet
138 488 m 0,0,1
 138 544 138 544 103 575 c 128,-1,2
 68 606 68 606 12 612 c 1,3,-1
 12 772 l 1,4,5
 69 778 69 778 103.5 807.5 c 128,-1,6
 138 837 138 837 138 894 c 0,7,8
 138 1078.89377024 138 1078.89377024 216.341625502 1206.72951485 c 128,-1,9
 294.683251005 1334.56525946 294.683251005 1334.56525946 432.5 1401 c 0,10,11
 530 1448 530 1448 660 1458 c 1,12,-1
 660 1280 l 1,13,14
 611.358634571 1262.07949695 611.358634571 1262.07949695 586.079692392 1209.18989408 c 128,-1,15
 560.800750212 1156.30029121 560.800750212 1156.30029121 546.5 1074.5 c 0,16,17
 534 1003 534 1003 534 894 c 0,18,19
 534 824 534 824 491.5 776.5 c 128,-1,20
 449 729 449 729 378 692 c 1,21,22
 451 654 451 654 492.5 607 c 128,-1,23
 534 560 534 560 534 488 c 0,24,25
 534 294 534 294 578 194 c 0,26,27
 610 123 610 123 660 104 c 1,28,-1
 660 -74 l 1,29,30
 473 -60 473 -60 348 32 c 128,-1,31
 223 124 223 124 171 278 c 0,32,33
 138 376 138 376 138 488 c 0,0,1
EndSplineSet
EndChar

StartChar: bar
Encoding: 124 124 98
Width: 434
Flags: W
LayerCount: 2
Fore
SplineSet
119 1408 m 1,0,-1
 315 1408 l 1,1,-1
 315 0 l 1,2,-1
 119 0 l 1,3,-1
 119 1408 l 1,0,-1
EndSplineSet
EndChar

StartChar: braceright
Encoding: 125 125 99
Width: 728
Flags: W
LayerCount: 2
Fore
SplineSet
716 612 m 1,0,1
 660 606 660 606 625 575 c 128,-1,2
 590 544 590 544 590 488 c 0,3,4
 590 303 590 303 512 176 c 128,-1,5
 434 49 434 49 296 -17 c 0,6,7
 198 -64 198 -64 68 -74 c 1,8,-1
 68 104 l 1,9,10
 116.504510533 121.870082828 116.504510533 121.870082828 141.866499707 174.403949835 c 128,-1,11
 167.22848888 226.937816841 167.22848888 226.937816841 181.5 308 c 0,12,13
 194 379 194 379 194 488 c 0,14,15
 194 560 194 560 235.5 607 c 128,-1,16
 277 654 277 654 350 692 c 1,17,18
 278 729 278 729 236 776.5 c 128,-1,19
 194 824 194 824 194 894 c 0,20,21
 194 1088.76315789 194 1088.76315789 150 1189.5 c 0,22,23
 118.616438356 1261.3518385 118.616438356 1261.3518385 68 1280 c 1,24,-1
 68 1458 l 1,25,26
 255.707736268 1442.1170377 255.707736268 1442.1170377 381.012937213 1350.72501824 c 128,-1,27
 506.318138158 1259.33299878 506.318138158 1259.33299878 557.5 1105 c 0,28,29
 590 1007 590 1007 590 894 c 0,30,31
 590 837 590 837 624.5 807.5 c 128,-1,32
 659 778 659 778 716 772 c 1,33,-1
 716 612 l 1,0,1
EndSplineSet
EndChar

StartChar: asciitilde
Encoding: 126 126 100
Width: 1188
Flags: W
LayerCount: 2
Fore
SplineSet
390 710 m 0,0,1
 368 710 368 710 350 701 c 128,-1,2
 332 692 332 692 319.5 673.5 c 128,-1,3
 307 655 307 655 300 640.5 c 128,-1,4
 293 626 293 626 284 604 c 1,5,-1
 42 702 l 1,6,7
 104.358045493 881.51558551 104.358045493 881.51558551 205 974.5 c 0,8,9
 293.211764706 1056 293.211764706 1056 392 1056 c 0,10,11
 438.664886338 1056 438.664886338 1056 486.321447249 1045.59495017 c 128,-1,12
 533.97800816 1035.18990035 533.97800816 1035.18990035 564.486105271 1023.30905816 c 128,-1,13
 594.994202383 1011.42821596 594.994202383 1011.42821596 642.460019311 990.946000171 c 128,-1,14
 689.92583624 970.463784379 689.92583624 970.463784379 714 961.5 c 0,15,16
 761 944 761 944 814 944 c 0,17,18
 855 944 855 944 878.5 969 c 128,-1,19
 902 994 902 994 918 1036 c 1,20,-1
 1156 938 l 1,21,22
 1097.25752106 763.730645808 1097.25752106 763.730645808 1011 678.5 c 0,23,24
 929.530120482 598 929.530120482 598 822 598 c 0,25,26
 786.763004081 598 786.763004081 598 752.771407812 602.410345982 c 128,-1,27
 718.779811543 606.820691963 718.779811543 606.820691963 692.881531312 613.091213329 c 128,-1,28
 666.983251081 619.361734696 666.983251081 619.361734696 636.621898734 630.090550974 c 128,-1,29
 606.260546387 640.819367252 606.260546387 640.819367252 586.14942244 649.449544233 c 128,-1,30
 566.038298494 658.079721214 566.038298494 658.079721214 535.231271722 671.483259611 c 128,-1,31
 504.42424495 684.886798009 504.42424495 684.886798009 485.5 692.5 c 0,32,33
 442 710 442 710 390 710 c 0,0,1
EndSplineSet
EndChar

StartChar: cent
Encoding: 162 162 103
Width: 1008
Flags: W
LayerCount: 2
Fore
SplineSet
918 50 m 1,0,1
 857 21 857 21 758 -12 c 1,2,-1
 758 -186 l 1,3,-1
 624 -186 l 1,4,-1
 624 -32 l 1,5,-1
 606 -32 l 2,6,7
 424 -32 424 -32 293.5 54.5 c 128,-1,8
 163 141 163 141 98 283 c 0,9,10
 52 384 52 384 52 512 c 0,11,12
 52 634.724115825 52 634.724115825 96.8595438549 734.204934172 c 128,-1,13
 141.71908771 833.685752518 141.71908771 833.685752518 216.5 905 c 0,14,15
 288.789336743 973.938175437 288.789336743 973.938175437 388.004625472 1014.96908772 c 128,-1,16
 487.2199142 1056 487.2199142 1056 606 1056 c 2,17,-1
 624 1056 l 1,18,-1
 624 1190 l 1,19,-1
 758 1190 l 1,20,-1
 758 1034 l 1,21,22
 847 1004 847 1004 922 958 c 1,23,-1
 880 686 l 1,24,25
 811 707 811 707 758 714 c 1,26,-1
 758 308 l 1,27,28
 815 314 815 314 876 336 c 1,29,-1
 918 50 l 1,0,1
624 714 m 1,30,31
 558 698 558 698 518 644 c 128,-1,32
 478 590 478 590 478 512 c 0,33,34
 478 419 478 419 534 360 c 1,35,36
 578 321 578 321 624 310 c 1,37,-1
 624 714 l 1,30,31
EndSplineSet
EndChar

StartChar: sterling
Encoding: 163 163 104
Width: 1074
Flags: W
LayerCount: 2
Fore
SplineSet
771 1132 m 0,0,1
 711 1132 711 1132 677.5 1102 c 128,-1,2
 644 1072 644 1072 644 1016 c 2,3,-1
 644 790 l 1,4,-1
 900 790 l 1,5,-1
 900 616 l 1,6,-1
 644 616 l 1,7,-1
 644 300 l 1,8,-1
 988 300 l 1,9,-1
 988 0 l 1,10,-1
 74 0 l 1,11,-1
 74 128 l 1,12,13
 137 132 137 132 170.5 178 c 128,-1,14
 204 224 204 224 204 300 c 2,15,-1
 204 616 l 1,16,-1
 74 616 l 1,17,-1
 74 790 l 1,18,-1
 204 790 l 1,19,-1
 204 894 l 2,20,21
 204 976.617947046 204 976.617947046 212.000322245 1045.06364382 c 128,-1,22
 220.00064449 1113.5093406 220.00064449 1113.5093406 238.752596641 1175.08909384 c 128,-1,23
 257.504548793 1236.66884708 257.504548793 1236.66884708 287.03662627 1282.86191366 c 128,-1,24
 316.568703747 1329.05498023 316.568703747 1329.05498023 361.025826363 1363.23702784 c 128,-1,25
 405.482948979 1397.41907545 405.482948979 1397.41907545 463.5 1415 c 0,26,27
 546 1440 546 1440 649 1440 c 0,28,29
 817 1440 817 1440 1003 1362 c 1,30,-1
 969 1084 l 1,31,32
 852 1132 852 1132 771 1132 c 0,0,1
EndSplineSet
EndChar

StartChar: currency
Encoding: 164 164 105
Width: 1145
Flags: W
LayerCount: 2
Fore
SplineSet
219 378 m 1,0,1
 121 489 121 489 121 644 c 1,2,3
 123 797 123 797 215 906 c 1,4,-1
 74 1047 l 1,5,-1
 166 1138 l 1,6,-1
 315 989 l 1,7,8
 429 1056 429 1056 568 1056 c 0,9,10
 708 1056 708 1056 826 985 c 1,11,-1
 979 1138 l 1,12,-1
 1071 1047 l 1,13,-1
 926 902 l 1,14,15
 1020 795 1020 795 1020 644 c 0,16,17
 1020 491 1020 491 922 382 c 1,18,-1
 1071 233 l 1,19,-1
 980 141 l 1,20,-1
 819 301 l 1,21,22
 705 237 705 237 566 237 c 0,23,24
 428 237 428 237 322 298 c 1,25,-1
 165 141 l 1,26,-1
 74 233 l 1,27,-1
 219 378 l 1,0,1
569 471 m 128,-1,29
 645 471 645 471 691.5 519 c 128,-1,30
 738 567 738 567 738 644 c 128,-1,31
 738 721 738 721 692 769 c 128,-1,32
 646 817 646 817 570 817 c 128,-1,33
 494 817 494 817 447 769.5 c 128,-1,34
 400 722 400 722 400 644 c 128,-1,35
 400 566 400 566 446.5 518.5 c 128,-1,28
 493 471 493 471 569 471 c 128,-1,29
EndSplineSet
EndChar

StartChar: yen
Encoding: 165 165 106
Width: 1172
Flags: W
LayerCount: 2
Fore
SplineSet
158 298 m 1,0,-1
 466 298 l 1,1,-1
 466 388 l 1,2,-1
 158 388 l 1,3,-1
 158 516 l 1,4,-1
 414 516 l 1,5,-1
 48 1376 l 1,6,-1
 316 1376 l 1,7,-1
 586 632 l 1,8,-1
 852 1376 l 1,9,-1
 1120 1376 l 1,10,-1
 756 516 l 1,11,-1
 1028 516 l 1,12,-1
 1028 388 l 1,13,-1
 702 388 l 1,14,-1
 702 298 l 1,15,-1
 1028 298 l 1,16,-1
 1028 176 l 1,17,-1
 702 176 l 1,18,-1
 702 0 l 1,19,-1
 466 0 l 1,20,-1
 466 176 l 1,21,-1
 158 176 l 1,22,-1
 158 298 l 1,0,-1
EndSplineSet
EndChar

StartChar: brokenbar
Encoding: 166 166 107
Width: 438
Flags: W
LayerCount: 2
Fore
SplineSet
121 552 m 1,0,-1
 317 552 l 1,1,-1
 317 0 l 1,2,-1
 121 0 l 1,3,-1
 121 552 l 1,0,-1
121 1408 m 1,4,-1
 317 1408 l 1,5,-1
 317 856 l 1,6,-1
 121 856 l 1,7,-1
 121 1408 l 1,4,-1
EndSplineSet
EndChar

StartChar: section
Encoding: 167 167 108
Width: 1091
Flags: W
LayerCount: 2
Fore
SplineSet
883 516 m 1,0,1
 1007 435 1007 435 1007 282 c 0,2,3
 1007 218 1007 218 983.5 166 c 128,-1,4
 960 114 960 114 918.5 79.5 c 128,-1,5
 877 45 877 45 828 22.5 c 128,-1,6
 779 0 779 0 720 -13 c 0,7,8
 634 -32 634 -32 537 -32 c 0,9,10
 318 -32 318 -32 111 44 c 1,11,-1
 155 292 l 1,12,13
 263.551198257 257.263616558 263.551198257 257.263616558 405 238.5 c 0,14,15
 454 232 454 232 495 232 c 0,16,17
 589 232 589 232 589 278 c 0,18,19
 589 290.500644978 589 290.500644978 575.506656608 302.001139786 c 128,-1,20
 562.013313217 313.501634594 562.013313217 313.501634594 550.037582597 318.84215096 c 128,-1,21
 538.061851977 324.182667327 538.061851977 324.182667327 517.145616282 332.002006409 c 0,22,23
 512.610232925 333.697517057 512.610232925 333.697517057 510.5 334.5 c 0,24,25
 484.771221872 344.284183232 484.771221872 344.284183232 433.571160532 362.244093562 c 128,-1,26
 382.371099192 380.204003893 382.371099192 380.204003893 352.35558437 391.232300184 c 128,-1,27
 322.340069547 402.260596475 322.340069547 402.260596475 278.92897736 422.372387941 c 128,-1,28
 235.517885172 442.484179406 235.517885172 442.484179406 207.598724104 461.728320139 c 128,-1,29
 179.679563037 480.972460873 179.679563037 480.972460873 151.625085201 509.864118506 c 128,-1,30
 123.570607365 538.75577614 123.570607365 538.75577614 106.5 572.5 c 0,31,32
 85 615 85 615 85 670 c 0,33,34
 85 826 85 826 209 916 c 1,35,36
 85 995 85 995 85 1152 c 1,37,38
 88 1216 88 1216 115.5 1266 c 128,-1,39
 143 1316 143 1316 186 1348 c 128,-1,40
 229 1380 229 1380 288.5 1401.5 c 128,-1,41
 348 1423 348 1423 411.5 1431.5 c 128,-1,42
 475 1440 475 1440 547 1440 c 0,43,44
 784 1440 784 1440 949 1364 c 1,45,-1
 905 1136 l 1,46,47
 833.820448878 1161.12219451 833.820448878 1161.12219451 679 1178.5 c 0,48,49
 630 1184 630 1184 587 1184 c 0,50,51
 491 1184 491 1184 491 1144 c 0,52,53
 491 1123 491 1123 529.5 1105.5 c 0,54,55
 566.695135475 1088.59312024 566.695135475 1088.59312024 622.802666297 1068.14759874 c 128,-1,56
 678.910197118 1047.70207723 678.910197118 1047.70207723 723.694924131 1031.14341587 c 128,-1,57
 768.479651144 1014.5847545 768.479651144 1014.5847545 816.499101156 993.131762315 c 128,-1,58
 864.518551168 971.678770133 864.518551168 971.678770133 904.660017228 943.035853384 c 128,-1,59
 944.801483289 914.392936636 944.801483289 914.392936636 972.5 879.5 c 0,60,61
 1011 831 1011 831 1011 764 c 0,62,63
 1011 680 1011 680 976.5 616.5 c 128,-1,64
 942 553 942 553 883 516 c 1,0,1
491 804 m 1,65,66
 451 801 451 801 427 777 c 128,-1,67
 403 753 403 753 403 712 c 0,68,69
 403 691.05 403 691.05 441 663.5 c 0,70,71
 487.697247706 629.644495413 487.697247706 629.644495413 575 606 c 1,72,73
 621 606 621 606 649 629 c 128,-1,74
 677 652 677 652 677 694 c 0,75,76
 677 710.589384723 677 710.589384723 667.525203757 721.74277566 c 128,-1,77
 658.050407515 732.896166598 658.050407515 732.896166598 640 744.5 c 0,78,79
 592.6 774.971428571 592.6 774.971428571 491 804 c 1,65,66
EndSplineSet
EndChar

StartChar: dieresis
Encoding: 168 168 109
Width: 1246
Flags: W
LayerCount: 2
Fore
SplineSet
702 1328 m 0,0,1
 702 1396.74167104 702 1396.74167104 742.884548013 1445.72465472 c 128,-1,2
 783.769096026 1494.70763841 783.769096026 1494.70763841 844.5 1519 c 0,3,4
 887 1536 887 1536 934 1536 c 0,5,6
 982.692675921 1536 982.692675921 1536 1025.37745043 1517.95089843 c 128,-1,7
 1068.06222495 1499.90179687 1068.06222495 1499.90179687 1096.92856559 1471.64525022 c 128,-1,8
 1125.79490624 1443.38870357 1125.79490624 1443.38870357 1143.5 1407.5 c 0,9,10
 1162 1370 1162 1370 1162 1328 c 0,11,12
 1162 1259 1162 1259 1121.5 1210.5 c 128,-1,13
 1081 1162 1081 1162 1021 1138 c 0,14,15
 980 1122 980 1122 934 1122 c 0,16,17
 883.764476061 1122 883.764476061 1122 840.594509068 1138.91639955 c 128,-1,18
 797.424542075 1155.83279911 797.424542075 1155.83279911 767.911421372 1183.52622996 c 128,-1,19
 738.398300668 1211.21966081 738.398300668 1211.21966081 720.5 1247.5 c 0,20,21
 702 1285 702 1285 702 1328 c 0,0,1
84 1328 m 0,22,23
 84 1396.39200049 84 1396.39200049 124.660746981 1445.37028214 c 128,-1,24
 165.321493962 1494.34856379 165.321493962 1494.34856379 225.5 1519 c 0,25,26
 267 1536 267 1536 314 1536 c 0,27,28
 386.545715188 1536 386.545715188 1536 441.630308382 1499.66292608 c 128,-1,29
 496.714901575 1463.32585215 496.714901575 1463.32585215 525 1407.5 c 0,30,31
 544 1370 544 1370 544 1328 c 0,32,33
 544 1259.36531015 544 1259.36531015 503.011156524 1210.34960699 c 128,-1,34
 462.022313047 1161.33390383 462.022313047 1161.33390383 401.5 1138 c 0,35,36
 360 1122 360 1122 314 1122 c 0,37,38
 240.10591534 1122 240.10591534 1122 185.042837556 1156.89889212 c 128,-1,39
 129.979759771 1191.79778425 129.979759771 1191.79778425 102.5 1247.5 c 0,40,41
 84 1285 84 1285 84 1328 c 0,22,23
EndSplineSet
EndChar

StartChar: copyright
Encoding: 169 169 110
Width: 1426
Flags: W
LayerCount: 2
Fore
SplineSet
711 90 m 256,0,1
 919 90 919 90 1066 243 c 128,-1,2
 1213 396 1213 396 1213 612 c 0,3,4
 1213 723 1213 723 1172.5 817 c 128,-1,5
 1132 911 1132 911 1066 980 c 0,6,7
 919 1134 919 1134 711 1134 c 0,8,9
 602.640493586 1134 602.640493586 1134 512.854623935 1091.49913543 c 128,-1,10
 423.068754283 1048.99827086 423.068754283 1048.99827086 356.5 980 c 0,11,12
 290.129373802 911.207088175 290.129373802 911.207088175 249.564686901 817.263732126 c 128,-1,13
 209 723.320376076 209 723.320376076 209 612 c 0,14,15
 209 500.067309312 209 500.067309312 249.491129534 406.006352511 c 128,-1,16
 289.982259068 311.945395711 289.982259068 311.945395711 356.5 243 c 128,-1,17
 422.921365452 174.154497123 422.921365452 174.154497123 512.604235689 132.077248561 c 128,-1,18
 602.287105927 90 602.287105927 90 711 90 c 256,0,1
711 -32 m 256,19,20
 443.672268908 -32 443.672268908 -32 257 159.5 c 0,21,22
 71 350.310344828 71 350.310344828 71 619 c 0,23,24
 71 756.927015298 71 756.927015298 123.70975932 871.132258178 c 128,-1,25
 176.41951864 985.337501059 176.41951864 985.337501059 262.5 1068.5 c 0,26,27
 317.790976222 1121.91670584 317.790976222 1121.91670584 383.656839446 1161.55537805 c 128,-1,28
 449.522702671 1201.19405025 449.522702671 1201.19405025 536.979426456 1226.59702512 c 128,-1,29
 624.436150241 1252 624.436150241 1252 718 1252 c 0,30,31
 979 1252 979 1252 1168.5 1062.5 c 0,32,33
 1355 876 1355 876 1355 612 c 0,34,35
 1355 347.111111111 1355 347.111111111 1166.5 157 c 0,36,37
 979.101694915 -32 979.101694915 -32 711 -32 c 256,19,20
505 610 m 0,38,39
 505 493 505 493 569 426.5 c 128,-1,40
 633 360 633 360 749 360 c 0,41,42
 831 360 831 360 939 402 c 1,43,-1
 959 282 l 1,44,45
 855 230 855 230 735 230 c 1,46,47
 604 232 604 232 512.5 288.5 c 128,-1,48
 421 345 421 345 376 444 c 0,49,50
 344 515 344 515 343 610 c 1,51,52
 343 741.628597279 343 741.628597279 409.92843011 832.679610623 c 128,-1,53
 476.856860221 923.730623967 476.856860221 923.730623967 584.5 964 c 0,54,55
 654 990 654 990 729 990 c 0,56,57
 860 990 860 990 961 928 c 1,58,-1
 943 814 l 1,59,60
 849 862 849 862 751 862 c 0,61,62
 635 862 635 862 570 795 c 128,-1,63
 505 728 505 728 505 610 c 0,38,39
EndSplineSet
EndChar

StartChar: guillemotleft
Encoding: 171 171 112
Width: 1109
Flags: W
LayerCount: 2
Fore
SplineSet
585 810 m 1,0,-1
 1015 1116 l 1,1,-1
 1015 744 l 1,2,-1
 817 626 l 1,3,-1
 1015 502 l 1,4,-1
 1015 128 l 1,5,-1
 585 442 l 1,6,-1
 585 810 l 1,0,-1
53 810 m 1,7,-1
 483 1116 l 1,8,-1
 483 744 l 1,9,-1
 287 626 l 1,10,-1
 483 502 l 1,11,-1
 483 128 l 1,12,-1
 53 442 l 1,13,-1
 53 810 l 1,7,-1
EndSplineSet
EndChar

StartChar: logicalnot
Encoding: 172 172 113
Width: 1094
Flags: W
LayerCount: 2
Fore
SplineSet
982 852 m 1,0,-1
 982 174 l 1,1,-1
 762 174 l 1,2,-1
 762 530 l 1,3,-1
 80 530 l 1,4,-1
 80 852 l 1,5,-1
 982 852 l 1,0,-1
EndSplineSet
EndChar

StartChar: registered
Encoding: 174 174 114
Width: 1426
Flags: W
LayerCount: 2
Fore
SplineSet
825 602 m 1,0,1
 827 591 827 591 832.5 565.5 c 128,-1,2
 838 540 838 540 840.5 528.5 c 128,-1,3
 843 517 843 517 848.5 494 c 128,-1,4
 854 471 854 471 859 460.5 c 128,-1,5
 864 450 864 450 872 432 c 128,-1,6
 880 414 880 414 888.5 405 c 128,-1,7
 897 396 897 396 910 384 c 128,-1,8
 923 372 923 372 937.5 366.5 c 128,-1,9
 952 361 952 361 971 357 c 128,-1,10
 990 353 990 353 1012 353 c 0,11,12
 1025 353 1025 353 1037 358 c 1,13,-1
 1011 256 l 1,14,15
 931.18684872 256 931.18684872 256 878.73630053 279.521879227 c 128,-1,16
 826.28575234 303.043758454 826.28575234 303.043758454 798.209316404 344.359107423 c 128,-1,17
 770.132880469 385.674456392 770.132880469 385.674456392 752.5 453 c 0,18,19
 736 516 736 516 715 596 c 1,20,-1
 583 596 l 1,21,-1
 583 272 l 1,22,-1
 467 272 l 1,23,-1
 467 994 l 1,24,-1
 723 994 l 2,25,26
 1003 994 1003 994 1003 796 c 0,27,28
 1003 625 1003 625 825 602 c 1,0,1
877 796 m 0,29,30
 877 859 877 859 837 878.5 c 128,-1,31
 797 898 797 898 713 898 c 2,32,-1
 583 898 l 1,33,-1
 583 690 l 1,34,-1
 703 690 l 2,35,36
 729.225859736 690.452169995 729.225859736 690.452169995 741.606967159 690.923732317 c 128,-1,37
 753.988074582 691.395294639 753.988074582 691.395294639 776.383338347 693.127557894 c 128,-1,38
 798.778602112 694.859821149 798.778602112 694.859821149 810.720166116 698.525226653 c 128,-1,39
 822.66173012 702.190632156 822.66173012 702.190632156 837.092080083 708.210866053 c 128,-1,40
 851.522430046 714.231099951 851.522430046 714.231099951 859.617894329 724.152867517 c 128,-1,41
 867.713358613 734.074635082 867.713358613 734.074635082 871.5 747.5 c 0,42,43
 877 767 877 767 877 796 c 0,29,30
711 90 m 256,44,45
 919 90 919 90 1066 243 c 128,-1,46
 1213 396 1213 396 1213 612 c 0,47,48
 1213 723 1213 723 1172.5 817 c 128,-1,49
 1132 911 1132 911 1066 980 c 0,50,51
 919 1134 919 1134 711 1134 c 0,52,53
 602.640493586 1134 602.640493586 1134 512.854623935 1091.49913543 c 128,-1,54
 423.068754283 1048.99827086 423.068754283 1048.99827086 356.5 980 c 0,55,56
 290.129373802 911.207088175 290.129373802 911.207088175 249.564686901 817.263732126 c 128,-1,57
 209 723.320376076 209 723.320376076 209 612 c 0,58,59
 209 500.067309312 209 500.067309312 249.491129534 406.006352511 c 128,-1,60
 289.982259068 311.945395711 289.982259068 311.945395711 356.5 243 c 128,-1,61
 422.921365452 174.154497123 422.921365452 174.154497123 512.604235689 132.077248561 c 128,-1,62
 602.287105927 90 602.287105927 90 711 90 c 256,44,45
711 -32 m 256,63,64
 443.672268908 -32 443.672268908 -32 257 159.5 c 0,65,66
 71 350.310344828 71 350.310344828 71 619 c 0,67,68
 71 756.927015298 71 756.927015298 123.70975932 871.132258178 c 128,-1,69
 176.41951864 985.337501059 176.41951864 985.337501059 262.5 1068.5 c 0,70,71
 317.790976222 1121.91670584 317.790976222 1121.91670584 383.656839446 1161.55537805 c 128,-1,72
 449.522702671 1201.19405025 449.522702671 1201.19405025 536.979426456 1226.59702512 c 128,-1,73
 624.436150241 1252 624.436150241 1252 718 1252 c 0,74,75
 979 1252 979 1252 1168.5 1062.5 c 0,76,77
 1355 876 1355 876 1355 612 c 0,78,79
 1355 347.111111111 1355 347.111111111 1166.5 157 c 0,80,81
 979.101694915 -32 979.101694915 -32 711 -32 c 256,63,64
EndSplineSet
EndChar

StartChar: degree
Encoding: 176 176 116
Width: 1278
Flags: W
LayerCount: 2
Fore
SplineSet
909 878 m 256,0,1
 909 946.117223336 909 946.117223336 887.433526603 1001.26009877 c 128,-1,2
 865.867053206 1056.40297421 865.867053206 1056.40297421 828.289812534 1092.69812325 c 128,-1,3
 790.712571863 1128.9932723 790.712571863 1128.9932723 739.5 1148 c 0,4,5
 691 1166 691 1166 641 1166 c 256,6,7
 552 1166 552 1166 489 1121.5 c 128,-1,8
 426 1077 426 1077 395 1004 c 0,9,10
 372 950 372 950 372 878 c 256,11,12
 372 776 372 776 418 706 c 128,-1,13
 464 636 464 636 542 607 c 0,14,15
 590 589 590 589 641 589 c 0,16,17
 730.347932641 589 730.347932641 589 792.740070936 633.678378328 c 128,-1,18
 855.132209231 678.356756655 855.132209231 678.356756655 886 751.5 c 0,19,20
 909 806 909 806 909 878 c 256,0,1
641 1421 m 2,21,-1
 662 1421 l 2,22,23
 794.594001555 1421 794.594001555 1421 897.754191528 1376.1493737 c 128,-1,24
 1000.9143815 1331.2987474 1000.9143815 1331.2987474 1071.5 1253.5 c 0,25,26
 1134.4160322 1184.15459225 1134.4160322 1184.15459225 1171.2080161 1089.7588449 c 128,-1,27
 1208 995.363097552 1208 995.363097552 1208 884 c 0,28,29
 1208 701.949298817 1208 701.949298817 1120.01893553 572.457273234 c 128,-1,30
 1032.03787105 442.965247652 1032.03787105 442.965247652 887.5 378.5 c 0,31,32
 781 331 781 331 639 331 c 0,33,34
 370.85620915 331 370.85620915 331 211.5 501.5 c 0,35,36
 146.054066987 571.522571685 146.054066987 571.522571685 107.527033493 667.236026729 c 128,-1,37
 69 762.949481773 69 762.949481773 69 876 c 0,38,39
 69 1056.60477705 69 1056.60477705 157.148589655 1183.56037656 c 128,-1,40
 245.29717931 1310.51597607 245.29717931 1310.51597607 390.5 1374 c 0,41,42
 498 1421 498 1421 641 1421 c 2,21,-1
EndSplineSet
EndChar

StartChar: plusminus
Encoding: 177 177 117
Width: 1140
Flags: W
LayerCount: 2
Fore
SplineSet
512 644 m 1,0,-1
 72 644 l 1,1,-1
 72 760 l 1,2,-1
 512 760 l 1,3,-1
 512 1212 l 1,4,-1
 632 1212 l 1,5,-1
 632 760 l 1,6,-1
 1068 760 l 1,7,-1
 1068 644 l 1,8,-1
 632 644 l 1,9,-1
 632 186 l 1,10,-1
 512 186 l 1,11,-1
 512 644 l 1,0,-1
72 114 m 1,12,-1
 1068 114 l 1,13,-1
 1068 0 l 1,14,-1
 72 0 l 1,15,-1
 72 114 l 1,12,-1
EndSplineSet
EndChar

StartChar: twosuperior
Encoding: 178 178 118
Width: 666
Flags: W
LayerCount: 2
Fore
SplineSet
70 1376 m 1,0,1
 218 1440 218 1440 348 1440 c 0,2,3
 460 1440 460 1440 525 1372.5 c 128,-1,4
 590 1305 590 1305 590 1192 c 0,5,6
 590 1112.52542373 590 1112.52542373 537.5 1036 c 0,7,8
 471.22622549 939.39754902 471.22622549 939.39754902 328 856 c 1,9,-1
 568 856 l 1,10,-1
 568 686 l 1,11,-1
 84 686 l 1,12,-1
 84 848 l 1,13,14
 220.589729431 974.970734401 220.589729431 974.970734401 288 1064.5 c 0,15,16
 320 1107 320 1107 335 1138 c 128,-1,17
 350 1169 350 1169 350 1190 c 0,18,19
 350 1246 350 1246 268 1246 c 0,20,21
 218 1246 218 1246 130 1202 c 1,22,-1
 70 1376 l 1,0,1
EndSplineSet
EndChar

StartChar: threesuperior
Encoding: 179 179 119
Width: 644
Flags: W
LayerCount: 2
Fore
SplineSet
444 1076 m 1,0,1
 584 1014 584 1014 584 872 c 0,2,3
 584 767 584 767 505.5 711.5 c 128,-1,4
 427 656 427 656 308 656 c 0,5,6
 212 656 212 656 68 704 c 1,7,-1
 106 868 l 1,8,9
 214 832 214 832 278 832 c 0,10,11
 314 832 314 832 338 844.5 c 128,-1,12
 362 857 362 857 362 884 c 0,13,14
 362 990 362 990 160 990 c 1,15,-1
 160 1128 l 1,16,17
 231.881521481 1128 231.881521481 1128 280.55005222 1138.65702664 c 128,-1,18
 329.218582959 1149.31405328 329.218582959 1149.31405328 347.5 1180.5 c 0,19,20
 356 1195 356 1195 356 1210 c 0,21,22
 356 1233 356 1233 339 1244.5 c 128,-1,23
 322 1256 322 1256 296 1256 c 0,24,25
 223 1256 223 1256 106 1222 c 1,26,-1
 68 1380 l 1,27,28
 200 1440 200 1440 320 1440 c 0,29,30
 395.276586596 1440 395.276586596 1440 451.242975254 1408.79063609 c 128,-1,31
 507.209363913 1377.58127217 507.209363913 1377.58127217 533.5 1325 c 0,32,33
 550 1292 550 1292 550 1258 c 0,34,35
 550 1146 550 1146 444 1076 c 1,0,1
EndSplineSet
EndChar

StartChar: acute
Encoding: 180 180 120
Width: 818
Flags: W
LayerCount: 2
Fore
SplineSet
4 1370 m 1,0,-1
 604 1790 l 1,1,-1
 812 1424 l 1,2,-1
 130 1150 l 1,3,-1
 4 1370 l 1,0,-1
EndSplineSet
EndChar

StartChar: paragraph
Encoding: 182 182 121
Width: 1138
Flags: W
LayerCount: 2
Fore
SplineSet
529 728 m 1,0,-1
 443 728 l 2,1,2
 306.841719951 728 306.841719951 728 210.521344911 786.122369369 c 128,-1,3
 114.200969872 844.244738738 114.200969872 844.244738738 72.5 944 c 0,4,5
 47 1005 47 1005 47 1068 c 0,6,7
 47 1208.01680672 47 1208.01680672 163.5 1302 c 0,8,9
 294.895833333 1408 294.895833333 1408 529 1408 c 2,10,-1
 987 1408 l 1,11,-1
 987 0 l 1,12,-1
 823 0 l 1,13,-1
 823 1254 l 1,14,-1
 695 1254 l 1,15,-1
 695 0 l 1,16,-1
 529 0 l 1,17,-1
 529 728 l 1,0,-1
EndSplineSet
EndChar

StartChar: periodcentered
Encoding: 183 183 122
Width: 630
Flags: W
LayerCount: 2
Fore
SplineSet
86 820 m 0,0,1
 86 888.392000493 86 888.392000493 126.660746981 937.370282143 c 128,-1,2
 167.321493962 986.348563792 167.321493962 986.348563792 227.5 1011 c 0,3,4
 269 1028 269 1028 316 1028 c 0,5,6
 388.545715188 1028 388.545715188 1028 443.630308382 991.662926077 c 128,-1,7
 498.714901575 955.325852154 498.714901575 955.325852154 527 899.5 c 0,8,9
 546 862 546 862 546 820 c 0,10,11
 546 751.365310149 546 751.365310149 505.011156524 702.349606987 c 128,-1,12
 464.022313047 653.333903826 464.022313047 653.333903826 403.5 630 c 0,13,14
 362 614 362 614 316 614 c 0,15,16
 242.10591534 614 242.10591534 614 187.042837556 648.898892124 c 128,-1,17
 131.979759771 683.797784248 131.979759771 683.797784248 104.5 739.5 c 0,18,19
 86 777 86 777 86 820 c 0,0,1
EndSplineSet
EndChar

StartChar: cedilla
Encoding: 184 184 123
Width: 560
Flags: W
LayerCount: 2
Fore
SplineSet
290 -274 m 0,0,1
 290 -227 290 -227 258 -203.5 c 128,-1,2
 226 -180 226 -180 172 -180 c 2,3,-1
 168 -180 l 1,4,-1
 228 0 l 1,5,-1
 342 0 l 1,6,-1
 302 -116 l 1,7,8
 460.356238698 -133.27522604 460.356238698 -133.27522604 501.5 -220.5 c 0,9,10
 514 -247 514 -247 514 -276 c 0,11,12
 514 -316.656001685 514 -316.656001685 498.234236767 -352.306528992 c 128,-1,13
 482.468473534 -387.9570563 482.468473534 -387.9570563 455.494791663 -413.846914805 c 128,-1,14
 428.521109791 -439.736773311 428.521109791 -439.736773311 397.910297729 -458.189038733 c 128,-1,15
 367.299485667 -476.641304156 367.299485667 -476.641304156 332.5 -489 c 0,16,17
 279 -508 279 -508 218 -508 c 0,18,19
 126 -508 126 -508 38 -464 c 1,20,-1
 66 -388 l 1,21,22
 115 -402 115 -402 158 -402 c 0,23,24
 290 -402 290 -402 290 -274 c 0,0,1
EndSplineSet
EndChar

StartChar: onesuperior
Encoding: 185 185 124
Width: 560
Flags: W
LayerCount: 2
Fore
SplineSet
86 1338 m 1,0,1
 200 1338 200 1338 294 1408 c 1,2,-1
 408 1408 l 1,3,-1
 408 842 l 1,4,-1
 498 842 l 1,5,-1
 498 682 l 1,6,-1
 86 682 l 1,7,-1
 86 842 l 1,8,-1
 176 842 l 1,9,-1
 176 1204 l 1,10,-1
 86 1196 l 1,11,-1
 86 1338 l 1,0,1
EndSplineSet
EndChar

StartChar: guillemotright
Encoding: 187 187 126
Width: 1107
Flags: W
LayerCount: 2
Fore
SplineSet
624 502 m 1,0,-1
 820 626 l 1,1,-1
 624 744 l 1,2,-1
 624 1116 l 1,3,-1
 1054 810 l 1,4,-1
 1054 442 l 1,5,-1
 624 128 l 1,6,-1
 624 502 l 1,0,-1
94 502 m 1,7,-1
 290 626 l 1,8,-1
 94 744 l 1,9,-1
 94 1116 l 1,10,-1
 524 810 l 1,11,-1
 524 442 l 1,12,-1
 94 128 l 1,13,-1
 94 502 l 1,7,-1
EndSplineSet
EndChar

StartChar: questiondown
Encoding: 191 191 130
Width: 1036
Flags: W
LayerCount: 2
Fore
SplineSet
501 382 m 0,0,1
 501 316 501 316 663 316 c 0,2,3
 821 316 821 316 929 370 c 1,4,-1
 957 58 l 1,5,6
 738 -32 738 -32 545 -32 c 0,7,8
 386.734458898 -32 386.734458898 -32 267.257081998 25.3055689569 c 128,-1,9
 147.779705098 82.6111379139 147.779705098 82.6111379139 89.5 185.5 c 0,10,11
 49 257 49 257 49 350 c 0,12,13
 49 384.457755437 49 384.457755437 55.1779742382 415.738848269 c 128,-1,14
 61.3559484764 447.0199411 61.3559484764 447.0199411 71.1865207958 472.322226897 c 128,-1,15
 81.0170931151 497.624512694 81.0170931151 497.624512694 97.647147248 521.359369264 c 128,-1,16
 114.277201381 545.094225834 114.277201381 545.094225834 130.619735159 563.087474049 c 128,-1,17
 146.962268937 581.080722264 146.962268937 581.080722264 171.029900505 599.207243611 c 128,-1,18
 195.097532073 617.333764958 195.097532073 617.333764958 214.937524849 629.95587663 c 128,-1,19
 234.777517626 642.577988303 234.777517626 642.577988303 263.268224169 657.034075465 c 128,-1,20
 291.758930712 671.490162627 291.758930712 671.490162627 312.081880027 680.679038795 c 128,-1,21
 332.404829343 689.867914963 332.404829343 689.867914963 362 702.5 c 0,22,23
 455.340425532 742.340425532 455.340425532 742.340425532 487.5 774.5 c 0,24,25
 507 794 507 794 507 820 c 0,26,27
 507 827 507 827 508 841 c 128,-1,28
 509 855 509 855 509 862 c 2,29,-1
 509 888 l 1,30,-1
 795 888 l 1,31,32
 798 877 798 877 806 851.5 c 128,-1,33
 814 826 814 826 818.5 810.5 c 128,-1,34
 823 795 823 795 827 772 c 128,-1,35
 831 749 831 749 831 728 c 0,36,37
 831 680.136129897 831 680.136129897 816.085272034 641.217636717 c 128,-1,38
 801.170544068 602.299143538 801.170544068 602.299143538 778.61623687 577.282114156 c 128,-1,39
 756.061929672 552.265084774 756.061929672 552.265084774 722.144260198 529.058178334 c 128,-1,40
 688.226590724 505.851271894 688.226590724 505.851271894 657.83590503 491.370473563 c 128,-1,41
 627.445219336 476.889675233 627.445219336 476.889675233 588.734857234 456.953085977 c 128,-1,42
 550.024495132 437.016496721 550.024495132 437.016496721 525.5 420.5 c 128,-1,43
 501 404 501 404 501 382 c 0,0,1
887 1232 m 0,44,45
 887 1164.41990114 887 1164.41990114 845.336878147 1115.14073856 c 128,-1,46
 803.673756295 1065.86157597 803.673756295 1065.86157597 743.5 1042.5 c 0,47,48
 701 1026 701 1026 655 1026 c 256,49,50
 581.974937795 1026 581.974937795 1026 527.145166685 1061.80717542 c 128,-1,51
 472.315395575 1097.61435084 472.315395575 1097.61435084 444 1153.5 c 0,52,53
 425 1191 425 1191 425 1232 c 0,54,55
 425 1300.94229448 425 1300.94229448 466.096500309 1350.84570158 c 128,-1,56
 507.193000619 1400.74910867 507.193000619 1400.74910867 567.5 1424 c 0,57,58
 609 1440 609 1440 655 1440 c 256,59,60
 729 1440 729 1440 784.5 1404.5 c 128,-1,61
 840 1369 840 1369 868 1313 c 0,62,63
 887 1275 887 1275 887 1232 c 0,44,45
EndSplineSet
EndChar

StartChar: AE
Encoding: 198 198 137
Width: 1914
Flags: W
LayerCount: 2
Fore
SplineSet
476 1408 m 1,0,-1
 1652 1408 l 1,1,-1
 1708 1098 l 1,2,-1
 1143 1098 l 1,3,-1
 1192 842 l 1,4,-1
 1702 842 l 1,5,-1
 1752 584 l 1,6,-1
 1254 584 l 1,7,-1
 1314 308 l 1,8,-1
 1842 308 l 1,9,-1
 1898 0 l 1,10,-1
 918 0 l 1,11,-1
 872 270 l 1,12,-1
 526 270 l 1,13,-1
 442 0 l 1,14,-1
 -6 0 l 1,15,-1
 476 1408 l 1,0,-1
824 522 m 1,16,-1
 740 1036 l 1,17,-1
 602 522 l 1,18,-1
 824 522 l 1,16,-1
EndSplineSet
EndChar

StartChar: Eth
Encoding: 208 208 147
Width: 1618
Flags: W
LayerCount: 2
Fore
SplineSet
3 618 m 1,0,-1
 3 792 l 1,1,-1
 187 792 l 1,2,-1
 187 1376 l 1,3,-1
 799 1376 l 2,4,5
 1038.24631406 1376 1038.24631406 1376 1206.54951017 1282.62996506 c 128,-1,6
 1374.85270627 1189.25993012 1374.85270627 1189.25993012 1468.5 1024 c 0,7,8
 1553 874.882352941 1553 874.882352941 1553 698 c 0,9,10
 1553 412.960629921 1553 412.960629921 1363.5 216 c 0,11,12
 1155.68181818 0 1155.68181818 0 799 0 c 2,13,-1
 187 0 l 1,14,-1
 187 618 l 1,15,-1
 3 618 l 1,0,-1
799 368 m 2,16,17
 905 368 905 368 974.5 426.5 c 128,-1,18
 1044 485 1044 485 1074 578 c 0,19,20
 1093 638 1093 638 1093 702 c 0,21,22
 1093 799.715962417 1093 799.715962417 1047.4873465 871.657043754 c 128,-1,23
 1001.974693 943.59812509 1001.974693 943.59812509 927.5 980.5 c 0,24,25
 872 1008 872 1008 799 1008 c 2,26,-1
 639 1008 l 1,27,-1
 639 792 l 1,28,-1
 801 792 l 1,29,-1
 801 618 l 1,30,-1
 639 618 l 1,31,-1
 639 368 l 1,32,-1
 799 368 l 2,16,17
EndSplineSet
EndChar

StartChar: multiply
Encoding: 215 215 154
Width: 941
Flags: W
LayerCount: 2
Fore
SplineSet
386 514 m 1,0,-1
 66 836 l 1,1,-1
 150 920 l 1,2,-1
 472 600 l 1,3,-1
 792 920 l 1,4,-1
 876 836 l 1,5,-1
 558 514 l 1,6,-1
 868 202 l 1,7,-1
 786 122 l 1,8,-1
 472 434 l 1,9,-1
 156 122 l 1,10,-1
 74 202 l 1,11,-1
 386 514 l 1,0,-1
EndSplineSet
EndChar

StartChar: Oslash
Encoding: 216 216 155
Width: 1636
Flags: W
LayerCount: 2
Fore
SplineSet
819 1439 m 0,0,1
 884 1439 884 1439 944 1431 c 1,2,-1
 1007 1677 l 1,3,-1
 1147 1677 l 1,4,-1
 1076 1402 l 1,5,6
 1249.6980659 1347.45019418 1249.6980659 1347.45019418 1368.76239384 1225.52937778 c 128,-1,7
 1487.82672179 1103.60856139 1487.82672179 1103.60856139 1539 928.5 c 0,8,9
 1571 819 1571 819 1571 702 c 0,10,11
 1571 409 1571 409 1383.5 199 c 0,12,13
 1286.67235192 90.5530341506 1286.67235192 90.5530341506 1145.42349637 29.2765170753 c 128,-1,14
 1004.17464081 -32 1004.17464081 -32 819 -32 c 0,15,16
 761 -32 761 -32 709 -26 c 1,17,-1
 628 -340 l 1,18,-1
 492 -340 l 1,19,-1
 579 0 l 1,20,21
 399 51 399 51 274 175.5 c 128,-1,22
 149 300 149 300 97 479 c 0,23,24
 65 589 65 589 65 702 c 0,25,26
 65 1008.859375 65 1008.859375 259 1216.5 c 0,27,28
 466.883211679 1439 466.883211679 1439 819 1439 c 0,0,1
853 1076 m 1,29,30
 851 1076 851 1076 819 1080 c 1,31,32
 708.239931569 1078.52319909 708.239931569 1078.52319909 638.496012996 1012.04677659 c 128,-1,33
 568.752094422 945.570354083 568.752094422 945.570354083 541 841.5 c 0,34,35
 523 774 523 774 523 704 c 0,36,37
 523 592 523 592 563 508 c 128,-1,38
 603 424 603 424 675 379 c 1,39,-1
 853 1076 l 1,29,30
819 340 m 2,40,41
 875.356801233 340 875.356801233 340 922.361457356 358.272998525 c 128,-1,42
 969.366113479 376.54599705 969.366113479 376.54599705 1002.49128988 409.060729119 c 128,-1,43
 1035.61646629 441.575461188 1035.61646629 441.575461188 1058.28032134 481.540259058 c 128,-1,44
 1080.94417638 521.505056928 1080.94417638 521.505056928 1094.5 569.5 c 0,45,46
 1113 635 1113 635 1113 704 c 0,47,48
 1113 811 1113 811 1077.5 893.5 c 128,-1,49
 1042 976 1042 976 979 1024 c 1,50,-1
 803 340 l 1,51,-1
 819 340 l 2,40,41
EndSplineSet
EndChar

StartChar: Thorn
Encoding: 222 222 161
Width: 1334
Flags: W
LayerCount: 2
Fore
SplineSet
134 1408 m 1,0,-1
 574 1408 l 1,1,-1
 574 1266 l 1,2,-1
 642 1266 l 2,3,4
 987 1266 987 1266 1157.5 1123 c 0,5,6
 1302 1001.80645161 1302 1001.80645161 1302 800 c 0,7,8
 1302 701.069081287 1302 701.069081287 1257.86124731 621.218397186 c 128,-1,9
 1213.72249462 541.367713084 1213.72249462 541.367713084 1141.5 483.5 c 0,10,11
 1055.89945598 414.913228702 1055.89945598 414.913228702 933.471464085 377.456614351 c 128,-1,12
 811.043472193 340 811.043472193 340 660 340 c 2,13,-1
 574 340 l 1,14,-1
 574 0 l 1,15,-1
 134 0 l 1,16,-1
 134 1408 l 1,0,-1
662 624 m 0,17,18
 766 624 766 624 828 668 c 128,-1,19
 890 712 890 712 890 800 c 0,20,21
 890 883 890 883 824.5 927.5 c 128,-1,22
 759 972 759 972 662 972 c 2,23,-1
 574 972 l 1,24,-1
 574 628 l 1,25,26
 605 624 605 624 662 624 c 0,17,18
EndSplineSet
EndChar

StartChar: germandbls
Encoding: 223 223 162
Width: 1448
Flags: W
LayerCount: 2
Fore
SplineSet
694 1168 m 0,0,1
 627 1168 627 1168 586.5 1130.5 c 128,-1,2
 546 1093 546 1093 546 1030 c 2,3,-1
 546 0 l 1,4,-1
 106 -32 l 1,5,-1
 106 1104 l 2,6,7
 106 1239.82119205 106 1239.82119205 260.5 1336 c 0,8,9
 427.563829787 1440 427.563829787 1440 698 1440 c 0,10,11
 783.3178181 1440 783.3178181 1440 858.76004234 1425.64808323 c 128,-1,12
 934.202266579 1411.29616646 934.202266579 1411.29616646 996.309954758 1383.60662691 c 128,-1,13
 1058.41764294 1355.91708737 1058.41764294 1355.91708737 1105.8359419 1313.9006524 c 128,-1,14
 1153.25424086 1271.88421743 1153.25424086 1271.88421743 1181.5 1218 c 0,15,16
 1214 1156 1214 1156 1214 1094 c 0,17,18
 1214 999 1214 999 1172 927.5 c 128,-1,19
 1130 856 1130 856 1060 814 c 1,20,21
 1175.16726182 779.87636687 1175.16726182 779.87636687 1260.42430658 706.289901587 c 128,-1,22
 1345.68135135 632.703436305 1345.68135135 632.703436305 1385.5 529.5 c 0,23,24
 1410 466 1410 466 1410 400 c 0,25,26
 1410 312.115042972 1410 312.115042972 1384.5978399 238.099477458 c 128,-1,27
 1359.19567981 164.083911944 1359.19567981 164.083911944 1312.9040881 109.688248935 c 128,-1,28
 1266.6124964 55.2925859263 1266.6124964 55.2925859263 1208.20684609 16.1984610186 c 128,-1,29
 1149.80119578 -22.8956638891 1149.80119578 -22.8956638891 1077.5 -49.5 c 0,30,31
 962 -92 962 -92 800 -92 c 0,32,33
 776 -92 776 -92 732 -91 c 128,-1,34
 688 -90 688 -90 664 -90 c 1,35,-1
 664 240 l 1,36,37
 715 236 715 236 764 236 c 0,38,39
 861 236 861 236 915.5 301 c 128,-1,40
 970 366 970 366 970 468 c 0,41,42
 970 599.12 970 599.12 824 676.5 c 0,43,44
 774 703 774 703 704 718 c 1,45,-1
 704 908 l 1,46,47
 822.649155722 928.763602251 822.649155722 928.763602251 862.5 1005 c 0,48,49
 874 1027 874 1027 874 1050 c 0,50,51
 874 1110 874 1110 821.5 1139 c 128,-1,52
 769 1168 769 1168 694 1168 c 0,0,1
EndSplineSet
EndChar

StartChar: ae
Encoding: 230 230 169
Width: 2162
Flags: W
LayerCount: 2
Fore
SplineSet
2075 52 m 1,0,1
 1861 -32 1861 -32 1597 -32 c 0,2,3
 1488 -32 1488 -32 1377 29 c 0,4,5
 1329 55 1329 55 1290 90 c 1,6,-1
 1290 0 l 1,7,-1
 890 -32 l 1,8,-1
 890 190 l 1,9,10
 843 90 843 90 759 29 c 128,-1,11
 675 -32 675 -32 552 -32 c 0,12,13
 359 -32 359 -32 210 119 c 0,14,15
 52 279 52 279 52 519 c 0,16,17
 52 682 52 682 125.5 800.5 c 128,-1,18
 199 919 199 919 319 989 c 0,19,20
 433 1056 433 1056 554 1056 c 0,21,22
 718 1056 718 1056 832 907 c 0,23,24
 868 860 868 860 890 802 c 1,25,-1
 890 1056 l 1,26,-1
 1290 1026 l 1,27,-1
 1290 936 l 1,28,29
 1421 1056 1421 1056 1613 1056 c 0,30,31
 1781.47512294 1056 1781.47512294 1056 1899.16258832 977.877879574 c 128,-1,32
 2016.8500537 899.755759148 2016.8500537 899.755759148 2074.5 767.5 c 0,33,34
 2117 670 2117 670 2117 538 c 0,35,36
 2117 510 2117 510 2113 486 c 1,37,-1
 1439 406 l 1,38,39
 1494 262 1494 262 1693 262 c 0,40,41
 1851 262 1851 262 2025 334 c 1,42,-1
 2075 52 l 1,0,1
890 520 m 1,43,44
 887 583 887 583 851.5 630 c 128,-1,45
 816 677 816 677 763 700 c 0,46,47
 727 716 727 716 688 716 c 0,48,49
 620.554863272 716 620.554863272 716 571.716435743 680.832918301 c 128,-1,50
 522.878008215 645.665836603 522.878008215 645.665836603 498.5 591 c 0,51,52
 482 554 482 554 482 512 c 0,53,54
 482 445.884848716 482 445.884848716 518.013616976 397.176432888 c 128,-1,55
 554.027233953 348.468017061 554.027233953 348.468017061 608.5 324.5 c 0,56,57
 646 308 646 308 688 308 c 0,58,59
 751.605820728 308 751.605820728 308 798.967448039 341.990652203 c 128,-1,60
 846.329075349 375.981304406 846.329075349 375.981304406 871 427.5 c 0,61,62
 888 463 888 463 890 504 c 1,63,-1
 890 520 l 1,43,44
1799 664 m 1,64,65
 1779 725 1779 725 1731 758.5 c 128,-1,66
 1683 792 1683 792 1613 792 c 0,67,68
 1526 792 1526 792 1475 737.5 c 128,-1,69
 1424 683 1424 683 1421 594 c 1,70,-1
 1799 664 l 1,64,65
EndSplineSet
EndChar

StartChar: eth
Encoding: 240 240 179
Width: 1324
Flags: W
LayerCount: 2
Fore
SplineSet
1170 1103 m 1,0,1
 1262 925 1262 925 1262 690 c 0,2,3
 1262 478 1262 478 1187.5 319 c 128,-1,4
 1113 160 1113 160 980 69 c 0,5,6
 833 -32 833 -32 632 -32 c 0,7,8
 423.761972236 -32 423.761972236 -32 277.977890874 46.3909363076 c 128,-1,9
 132.193809512 124.781872615 132.193809512 124.781872615 70 268.5 c 0,10,11
 33 354 33 354 33 444 c 0,12,13
 33 595.683876694 33 595.683876694 105.873499714 695.04214031 c 128,-1,14
 178.746999428 794.400403926 178.746999428 794.400403926 305.5 843 c 0,15,16
 402 880 402 880 540 880 c 0,17,18
 696 880 696 880 808 788 c 1,19,20
 793 894 793 894 762 958 c 1,21,-1
 615 906 l 1,22,-1
 569 1021 l 1,23,-1
 674 1058 l 1,24,25
 631 1080 631 1080 580 1080 c 0,26,27
 452 1080 452 1080 240 1026 c 1,28,-1
 132 1330 l 1,29,30
 387 1440 387 1440 632 1440 c 0,31,32
 925 1440 925 1440 1102 1210 c 1,33,-1
 1247 1262 l 1,34,-1
 1293 1147 l 1,35,-1
 1170 1103 l 1,0,1
460 444 m 128,-1,37
 460 377 460 377 508.5 339.5 c 128,-1,38
 557 302 557 302 632 302 c 0,39,40
 676 302 676 302 708.5 323.5 c 128,-1,41
 741 345 741 345 760 385 c 128,-1,42
 779 425 779 425 789 466.5 c 128,-1,43
 799 508 799 508 806 564 c 1,44,45
 725 594 725 594 622 594 c 0,46,47
 551 594 551 594 505.5 552.5 c 128,-1,36
 460 511 460 511 460 444 c 128,-1,37
EndSplineSet
EndChar

StartChar: divide
Encoding: 247 247 186
Width: 926
Flags: W
LayerCount: 2
Fore
SplineSet
50 580 m 1,0,-1
 876 580 l 1,1,-1
 876 466 l 1,2,-1
 50 466 l 1,3,-1
 50 580 l 1,0,-1
259 200 m 0,4,5
 259 260.688292024 259 260.688292024 294.753652163 303.612469157 c 128,-1,6
 330.507304327 346.53664629 330.507304327 346.53664629 384 367.5 c 0,7,8
 421 382 421 382 462 382 c 0,9,10
 526 382 526 382 574 350.5 c 128,-1,11
 622 319 622 319 646 270 c 0,12,13
 662 237 662 237 662 200 c 0,14,15
 662 139.375617362 662 139.375617362 626.830275575 96.8829828743 c 128,-1,16
 591.66055115 54.3903483863 591.66055115 54.3903483863 538.5 34 c 0,17,18
 502 20 502 20 462 20 c 0,19,20
 397.120131352 20 397.120131352 20 347.977504474 50.5427024411 c 128,-1,21
 298.834877596 81.0854048822 298.834877596 81.0854048822 275 129.5 c 0,22,23
 259 162 259 162 259 200 c 0,4,5
259 846 m 0,24,25
 259 906 259 906 295 948.5 c 128,-1,26
 331 991 331 991 384 1013 c 0,27,28
 421 1028 421 1028 462 1028 c 0,29,30
 525 1028 525 1028 573.5 996 c 128,-1,31
 622 964 622 964 646 915 c 0,32,33
 662 882 662 882 662 846 c 0,34,35
 662 784.91044685 662 784.91044685 627.036910848 742.729654983 c 128,-1,36
 592.073821697 700.548863117 592.073821697 700.548863117 538.5 680 c 0,37,38
 502 666 502 666 462 666 c 0,39,40
 397 666 397 666 347.5 696.5 c 128,-1,41
 298 727 298 727 275 775 c 0,42,43
 259 808 259 808 259 846 c 0,24,25
EndSplineSet
EndChar

StartChar: oslash
Encoding: 248 248 187
Width: 1244
Flags: W
LayerCount: 2
Fore
SplineSet
432 -2 m 1,0,1
 306 38 306 38 216.5 121.5 c 128,-1,2
 127 205 127 205 84 326 c 0,3,4
 54 410 54 410 54 514 c 0,5,6
 54 607.633399487 54 607.633399487 77.4034179411 686.464689258 c 128,-1,7
 100.806835882 765.295979029 100.806835882 765.295979029 144.013660531 824.075602187 c 128,-1,8
 187.22048518 882.855225344 187.22048518 882.855225344 242.579778926 925.760192428 c 128,-1,9
 297.939072672 968.665159511 297.939072672 968.665159511 367.5 999 c 0,10,11
 498.206896552 1056 498.206896552 1056 656 1056 c 2,12,13
 671.5 1056 l 2,14,15
 679 1056 679 1056 688 1054 c 1,16,-1
 690 1054 l 1,17,-1
 726 1202 l 1,18,-1
 844 1202 l 1,19,-1
 802 1032 l 1,20,21
 930 993 930 993 1022.5 909 c 128,-1,22
 1115 825 1115 825 1159 703 c 0,23,24
 1190 618 1190 618 1190 514 c 0,25,26
 1190 419.737473789 1190 419.737473789 1165.46851874 340.287923904 c 128,-1,27
 1140.93703747 260.838374018 1140.93703747 260.838374018 1095.94055991 201.900532727 c 128,-1,28
 1050.94408235 142.962691437 1050.94408235 142.962691437 994.339379817 100.074529394 c 128,-1,29
 937.734677284 57.1863673513 937.734677284 57.1863673513 867 26.5 c 0,30,31
 732.152542373 -32 732.152542373 -32 575 -32 c 2,32,-1
 559 -32 l 2,33,34
 551 -32 551 -32 540 -30 c 1,35,-1
 506 -174 l 1,36,-1
 390 -174 l 1,37,-1
 432 -2 l 1,0,1
620 288 m 1,38,39
 681.199009452 297.663001492 681.199009452 297.663001492 726.557754182 337.034249396 c 128,-1,40
 771.916498913 376.4054973 771.916498913 376.4054973 794.5 432.5 c 0,41,42
 810 471 810 471 810 514 c 0,43,44
 810 574 810 574 785 622.5 c 128,-1,45
 760 671 760 671 720 700 c 1,46,-1
 620 288 l 1,38,39
614 738 m 1,47,48
 532 734 532 734 481 669.5 c 128,-1,49
 430 605 430 605 430 514 c 0,50,51
 430 455 430 455 453.5 406 c 128,-1,52
 477 357 477 357 514 328 c 1,53,-1
 614 738 l 1,47,48
EndSplineSet
EndChar

StartChar: thorn
Encoding: 254 254 193
Width: 1427
Flags: W
LayerCount: 2
Fore
SplineSet
875 -32 m 1,0,1
 755 -32 755 -32 671 28 c 128,-1,2
 587 88 587 88 539 190 c 1,3,-1
 539 -510 l 1,4,-1
 107 -510 l 1,5,-1
 107 1350 l 1,6,-1
 539 1414 l 1,7,-1
 539 834 l 1,8,9
 643 1056 643 1056 873 1056 c 0,10,11
 941.706312186 1056 941.706312186 1056 1007.6065792 1034.79741538 c 128,-1,12
 1073.50684622 1013.59483076 1073.50684622 1013.59483076 1122.80979315 981.842838138 c 128,-1,13
 1172.11274008 950.090845517 1172.11274008 950.090845517 1214.5 908 c 0,14,15
 1287.13504688 835.872890508 1287.13504688 835.872890508 1331.06752344 735.358272292 c 128,-1,16
 1375 634.843654075 1375 634.843654075 1375 512 c 1,17,18
 1373 275 1373 275 1215 117 c 0,19,20
 1068 -30 1068 -30 875 -32 c 1,0,1
539 512 m 2,21,22
 539 446.48047458 539 446.48047458 574.547218364 397.561357756 c 128,-1,23
 610.094436727 348.642240931 610.094436727 348.642240931 663.5 324.5 c 0,24,25
 700 308 700 308 741 308 c 0,26,27
 807.993722272 308 807.993722272 308 857.072890778 343.700793743 c 128,-1,28
 906.152059284 379.401587485 906.152059284 379.401587485 930.5 434 c 0,29,30
 947 471 947 471 947 512 c 0,31,32
 947 557.144772696 947 557.144772696 929.062982011 595.822847049 c 128,-1,33
 911.125964021 634.500921402 911.125964021 634.500921402 883.412019549 659.741538018 c 128,-1,34
 855.698075076 684.982154634 855.698075076 684.982154634 820.5 700 c 0,35,36
 783 716 783 716 741 716 c 0,37,38
 676.317097652 716 676.317097652 716 628.610338186 681.502334685 c 128,-1,39
 580.903578721 647.004669369 580.903578721 647.004669369 556.5 594.5 c 0,40,41
 540 559 540 559 539 520 c 1,42,-1
 539 512 l 2,21,22
EndSplineSet
EndChar

StartChar: Dcroat
Encoding: 272 272 211
Width: 1565
Flags: W
LayerCount: 2
Fore
SplineSet
78 766 m 1,0,-1
 134 766 l 1,1,-1
 134 1376 l 1,2,-1
 746 1376 l 2,3,4
 985.246314064 1376 985.246314064 1376 1153.54951017 1282.62996506 c 128,-1,5
 1321.85270627 1189.25993012 1321.85270627 1189.25993012 1415.5 1024 c 0,6,7
 1500 874.882352941 1500 874.882352941 1500 698 c 0,8,9
 1500 412.960629921 1500 412.960629921 1310.5 216 c 0,10,11
 1102.68181818 0 1102.68181818 0 746 0 c 2,12,-1
 134 0 l 1,13,-1
 134 592 l 1,14,-1
 78 592 l 1,15,-1
 78 766 l 1,0,-1
746 368 m 2,16,17
 852 368 852 368 921.5 426.5 c 128,-1,18
 991 485 991 485 1021 578 c 0,19,20
 1040 638 1040 638 1040 702 c 0,21,22
 1040 799.715962417 1040 799.715962417 994.4873465 871.657043754 c 128,-1,23
 948.974693 943.59812509 948.974693 943.59812509 874.5 980.5 c 0,24,25
 819 1008 819 1008 746 1008 c 2,26,-1
 586 1008 l 1,27,-1
 586 766 l 1,28,-1
 718 766 l 1,29,-1
 718 592 l 1,30,-1
 586 592 l 1,31,-1
 586 368 l 1,32,-1
 746 368 l 2,16,17
EndSplineSet
EndChar

StartChar: dcroat
Encoding: 273 273 212
Width: 1428
Flags: W
LayerCount: 2
Fore
SplineSet
553 1056 m 0,0,1
 786 1056 786 1056 889 834 c 1,2,-1
 889 1106 l 1,3,-1
 747 1106 l 1,4,-1
 747 1280 l 1,5,-1
 889 1280 l 1,6,-1
 889 1350 l 1,7,-1
 1321 1414 l 1,8,-1
 1321 1280 l 1,9,-1
 1387 1280 l 1,10,-1
 1387 1106 l 1,11,-1
 1321 1106 l 1,12,-1
 1321 0 l 1,13,-1
 889 0 l 1,14,-1
 889 190 l 1,15,16
 841 89 841 89 757.5 28.5 c 128,-1,17
 674 -32 674 -32 551 -32 c 0,18,19
 361 -32 361 -32 212 117 c 0,20,21
 53 276 53 276 53 512 c 0,22,23
 53 749 53 749 212 908 c 0,24,25
 360 1056 360 1056 553 1056 c 0,0,1
889 520 m 1,26,27
 886 583 886 583 850.5 630 c 128,-1,28
 815 677 815 677 762 700 c 0,29,30
 726 716 726 716 687 716 c 0,31,32
 620 716 620 716 571.5 680.5 c 128,-1,33
 523 645 523 645 499 591 c 0,34,35
 483 554 483 554 483 512 c 0,36,37
 483 445.621242295 483 445.621242295 518.37161363 397.158415069 c 128,-1,38
 553.74322726 348.695587844 553.74322726 348.695587844 608 324.5 c 0,39,40
 645 308 645 308 687 308 c 0,41,42
 753 308 753 308 801 344 c 128,-1,43
 849 380 849 380 873 434 c 0,44,45
 889 471 889 471 889 512 c 2,46,-1
 889 520 l 1,26,27
EndSplineSet
EndChar

StartChar: Hbar
Encoding: 294 294 233
Width: 1647
Flags: W
LayerCount: 2
Fore
SplineSet
86 1152 m 1,0,-1
 144 1152 l 1,1,-1
 144 1376 l 1,2,-1
 604 1376 l 1,3,-1
 604 1152 l 1,4,-1
 1040 1152 l 1,5,-1
 1040 1376 l 1,6,-1
 1502 1376 l 1,7,-1
 1502 1152 l 1,8,-1
 1562 1152 l 1,9,-1
 1562 978 l 1,10,-1
 1502 978 l 1,11,-1
 1502 0 l 1,12,-1
 1040 0 l 1,13,-1
 1040 552 l 1,14,-1
 604 552 l 1,15,-1
 604 0 l 1,16,-1
 144 0 l 1,17,-1
 144 978 l 1,18,-1
 86 978 l 1,19,-1
 86 1152 l 1,0,-1
1040 848 m 1,20,-1
 1040 978 l 1,21,-1
 604 978 l 1,22,-1
 604 848 l 1,23,-1
 1040 848 l 1,20,-1
EndSplineSet
EndChar

StartChar: hbar
Encoding: 295 295 234
Width: 1413
Flags: W
LayerCount: 2
Fore
SplineSet
-15 1280 m 1,0,-1
 107 1280 l 1,1,-1
 107 1350 l 1,2,-1
 539 1414 l 1,3,-1
 539 1280 l 1,4,-1
 753 1280 l 1,5,-1
 753 1106 l 1,6,-1
 539 1106 l 1,7,-1
 539 798 l 1,8,9
 620.075808447 992.002827355 620.075808447 992.002827355 778.5 1041 c 0,10,11
 827 1056 827 1056 877 1056 c 0,12,13
 1053 1056 1053 1056 1179 918 c 0,14,15
 1317 767 1317 767 1317 520 c 2,16,-1
 1317 0 l 1,17,-1
 887 0 l 1,18,-1
 887 512 l 2,19,20
 887 574.354604151 887 574.354604151 862.963705351 624.258027526 c 128,-1,21
 838.927410702 674.161450901 838.927410702 674.161450901 799 699.5 c 0,22,23
 773 716 773 716 743 716 c 0,24,25
 674.567151263 716 674.567151263 716 626.008167847 677.491702743 c 128,-1,26
 577.449184431 638.983405486 577.449184431 638.983405486 554.5 580.5 c 0,27,28
 539 541 539 541 539 498 c 2,29,-1
 539 0 l 1,30,-1
 107 0 l 1,31,-1
 107 1106 l 1,32,-1
 -15 1106 l 1,33,-1
 -15 1280 l 1,0,-1
EndSplineSet
EndChar

StartChar: dotlessi
Encoding: 305 305 244
Width: 748
Flags: W
LayerCount: 2
Fore
SplineSet
731 38 m 1,0,1
 608 -32 608 -32 463 -32 c 0,2,3
 336.320381508 -32 336.320381508 -32 252.783935714 27.7636588547 c 128,-1,4
 169.247489919 87.5273177095 169.247489919 87.5273177095 129 191.5 c 0,5,6
 99 269 99 269 99 378 c 2,7,-1
 99 1026 l 1,8,-1
 533 1026 l 1,9,-1
 533 408 l 2,10,11
 533 357 533 357 555.5 328.5 c 128,-1,12
 578 300 578 300 621 300 c 128,-1,13
 664 300 664 300 709 324 c 1,14,-1
 731 38 l 1,0,1
EndSplineSet
EndChar

StartChar: kgreenlandic
Encoding: 312 312 251
Width: 1309
Flags: W
LayerCount: 2
Fore
SplineSet
1169 314 m 0,0,1
 1195 314 1195 314 1257 326 c 1,2,-1
 1225 -24 l 1,3,4
 1165 -30 1165 -30 1113 -30 c 0,5,6
 954 -30 954 -30 859 25 c 128,-1,7
 764 80 764 80 715 195 c 0,8,9
 684 267 684 267 659 358 c 1,10,-1
 539 262 l 1,11,-1
 539 0 l 1,12,-1
 107 0 l 1,13,-1
 107 1024 l 1,14,-1
 539 1024 l 1,15,-1
 539 692 l 1,16,-1
 925 1024 l 1,17,-1
 1145 1024 l 1,18,-1
 1293 848 l 1,19,-1
 951 572 l 1,20,21
 959 532 959 532 963.5 513.5 c 128,-1,22
 968 495 968 495 978 461.5 c 128,-1,23
 988 428 988 428 997.5 411.5 c 128,-1,24
 1007 395 1007 395 1023 373 c 128,-1,25
 1039 351 1039 351 1058.5 340.5 c 128,-1,26
 1078 330 1078 330 1106.5 322 c 128,-1,27
 1135 314 1135 314 1169 314 c 0,0,1
EndSplineSet
EndChar

StartChar: Lslash
Encoding: 321 321 260
Width: 1156
Flags: W
LayerCount: 2
Fore
SplineSet
6 788 m 1,0,-1
 190 835 l 1,1,-1
 190 1408 l 1,2,-1
 630 1408 l 1,3,-1
 630 947 l 1,4,-1
 936 1026 l 1,5,-1
 936 852 l 1,6,-1
 630 773 l 1,7,-1
 630 302 l 1,8,-1
 1120 302 l 1,9,-1
 1120 0 l 1,10,-1
 190 0 l 1,11,-1
 190 661 l 1,12,-1
 6 614 l 1,13,-1
 6 788 l 1,0,-1
EndSplineSet
EndChar

StartChar: lslash
Encoding: 322 322 261
Width: 863
Flags: W
LayerCount: 2
Fore
SplineSet
828 38 m 1,0,1
 694 -32 694 -32 550 -32 c 0,2,3
 423.783583999 -32 423.783583999 -32 340.403646941 27.8332624408 c 128,-1,4
 257.023709884 87.6665248815 257.023709884 87.6665248815 217.5 191.5 c 0,5,6
 188 269 188 269 188 378 c 2,7,-1
 188 666 l 1,8,-1
 16 614 l 1,9,-1
 16 788 l 1,10,-1
 188 840 l 1,11,-1
 188 1350 l 1,12,-1
 620 1414 l 1,13,-1
 620 972 l 1,14,-1
 796 1026 l 1,15,-1
 796 852 l 1,16,-1
 620 798 l 1,17,-1
 620 408 l 2,18,19
 620 300 620 300 718 300 c 0,20,21
 761 300 761 300 806 324 c 1,22,-1
 828 38 l 1,0,1
EndSplineSet
EndChar

StartChar: Eng
Encoding: 330 330 269
Width: 1606
Flags: W
LayerCount: 2
Fore
SplineSet
832 -172 m 1,0,1
 927 -202 927 -202 974 -202 c 0,2,3
 1108 -202 1108 -202 1108 -32 c 1,4,-1
 498 734 l 1,5,-1
 498 0 l 1,6,-1
 134 0 l 1,7,-1
 134 1376 l 1,8,-1
 544 1376 l 1,9,-1
 1106 650 l 1,10,-1
 1106 1376 l 1,11,-1
 1472 1376 l 1,12,-1
 1472 -32 l 2,13,14
 1472 -199.669343353 1472 -199.669343353 1409.39006093 -316.411337777 c 128,-1,15
 1346.78012186 -433.1533322 1346.78012186 -433.1533322 1230.5 -480 c 0,16,17
 1161 -508 1161 -508 1088 -508 c 0,18,19
 939 -508 939 -508 738 -426 c 1,20,-1
 832 -172 l 1,0,1
EndSplineSet
EndChar

StartChar: eng
Encoding: 331 331 270
Width: 1406
Flags: W
LayerCount: 2
Fore
SplineSet
742 -170 m 0,0,1
 880 -170 880 -170 880 0 c 2,2,-1
 880 512 l 2,3,4
 880 574.354604151 880 574.354604151 855.963705351 624.258027526 c 128,-1,5
 831.927410702 674.161450901 831.927410702 674.161450901 792 699.5 c 0,6,7
 766 716 766 716 736 716 c 0,8,9
 671.317097652 716 671.317097652 716 623.610338186 681.502334685 c 128,-1,10
 575.903578721 647.004669369 575.903578721 647.004669369 551.5 594.5 c 0,11,12
 535 559 535 559 534 520 c 1,13,-1
 534 0 l 1,14,-1
 102 0 l 1,15,-1
 102 990 l 1,16,-1
 534 1056 l 1,17,-1
 534 802 l 1,18,19
 620 991 620 991 789 1041 c 0,20,21
 840 1056 840 1056 890 1056 c 0,22,23
 977.696769343 1056 977.696769343 1056 1050.64780165 1016.20656826 c 128,-1,24
 1123.59883396 976.413136514 1123.59883396 976.413136514 1177.5 913 c 0,25,26
 1239.36328383 840.219666087 1239.36328383 840.219666087 1274.68164191 738.255712998 c 128,-1,27
 1310 636.291759909 1310 636.291759909 1310 512 c 2,28,-1
 1310 0 l 2,29,30
 1310 -183.710522089 1310 -183.710522089 1236.76501698 -306.052785631 c 128,-1,31
 1163.53003396 -428.395049172 1163.53003396 -428.395049172 1028 -475.5 c 0,32,33
 946 -504 946 -504 858 -504 c 0,34,35
 670 -504 670 -504 508 -396 c 1,36,-1
 602 -142 l 1,37,38
 686 -170 686 -170 742 -170 c 0,0,1
EndSplineSet
EndChar

StartChar: OE
Encoding: 338 338 277
Width: 2098
Flags: W
LayerCount: 2
Fore
SplineSet
712 1414 m 0,0,1
 800 1414 800 1414 871 1388.5 c 128,-1,2
 942 1363 942 1363 1020 1314 c 1,3,-1
 1020 1376 l 1,4,-1
 2000 1376 l 1,5,-1
 2000 1066 l 1,6,-1
 1508 1066 l 1,7,-1
 1508 842 l 1,8,-1
 1958 842 l 1,9,-1
 1958 584 l 1,10,-1
 1508 584 l 1,11,-1
 1508 308 l 1,12,-1
 2000 308 l 1,13,-1
 2000 0 l 1,14,-1
 1014 0 l 1,15,-1
 1014 60 l 1,16,17
 838 -32 838 -32 696 -32 c 0,18,19
 403.578571429 -32 403.578571429 -32 225.5 201 c 0,20,21
 64 412.308411215 64 412.308411215 64 692 c 0,22,23
 64 955.603603604 64 955.603603604 235.5 1175 c 0,24,25
 350.44134016 1322.0420748 350.44134016 1322.0420748 522.5 1383 c 0,26,27
 610 1414 610 1414 712 1414 c 0,0,1
748 338 m 0,28,29
 898 338 898 338 1014 368 c 1,30,-1
 1014 1018 l 1,31,32
 873 1050 873 1050 748 1050 c 0,33,34
 650.175824176 1050 650.175824176 1050 587.5 956.5 c 0,35,36
 522 858.786885246 522 858.786885246 522 694 c 0,37,38
 522 616.486984969 522 616.486984969 536.12685998 552.351018762 c 128,-1,39
 550.253719961 488.215052555 550.253719961 488.215052555 581.338974399 437.903075944 c 128,-1,40
 612.424228838 387.591099333 612.424228838 387.591099333 658.5 361.5 c 0,41,42
 700 338 700 338 748 338 c 0,28,29
EndSplineSet
EndChar

StartChar: oe
Encoding: 339 339 278
Width: 1894
Flags: W
LayerCount: 2
Fore
SplineSet
1454 262 m 0,0,1
 1509 262 1509 262 1570 275 c 128,-1,2
 1631 288 1631 288 1661 298.5 c 128,-1,3
 1691 309 1691 309 1756 334 c 1,4,-1
 1806 52 l 1,5,6
 1620 -32 1620 -32 1386 -32 c 0,7,8
 1166 -32 1166 -32 1008 134 c 1,9,10
 857 -32 857 -32 642 -32 c 0,11,12
 472.16941837 -32 472.16941837 -32 343.017257338 34.4587860924 c 128,-1,13
 213.865096306 100.917572185 213.865096306 100.917572185 138.5 213.5 c 0,14,15
 52 342.716049383 52 342.716049383 52 514 c 0,16,17
 52 645.460247868 52 645.460247868 102.157464223 746.534778143 c 128,-1,18
 152.314928446 847.609308417 152.314928446 847.609308417 237 917.5 c 0,19,20
 287.236514401 958.960255861 287.236514401 958.960255861 348.456069809 989.354082007 c 128,-1,21
 409.675625216 1019.74790815 409.675625216 1019.74790815 486.289323184 1037.87395408 c 128,-1,22
 562.903021152 1056 562.903021152 1056 644 1056 c 0,23,24
 850 1056 850 1056 1008 910 c 1,25,26
 1166 1056 1166 1056 1374 1056 c 0,27,28
 1534.38127109 1056 1534.38127109 1056 1644.2601393 977.393084595 c 128,-1,29
 1754.13900751 898.78616919 1754.13900751 898.78616919 1808 767.5 c 0,30,31
 1848 670 1848 670 1848 538 c 0,32,33
 1848 510 1848 510 1844 486 c 1,34,-1
 1228 406 l 1,35,36
 1254 333 1254 333 1308 297.5 c 128,-1,37
 1362 262 1362 262 1454 262 c 0,0,1
644 310 m 0,38,39
 684.661736982 310 684.661736982 310 719.676917103 329.07308146 c 128,-1,40
 754.692097225 348.14616292 754.692097225 348.14616292 776.554453065 375.264111444 c 128,-1,41
 798.416808906 402.382059968 798.416808906 402.382059968 812.5 436 c 0,42,43
 828 473 828 473 828 514 c 0,44,45
 828 579 828 579 795.5 628.5 c 128,-1,46
 763 678 763 678 713 702 c 0,47,48
 680 718 680 718 644 718 c 0,49,50
 581 718 581 718 538 682.5 c 128,-1,51
 495 647 495 647 474 592 c 0,52,53
 460 555 460 555 460 514 c 256,54,55
 460 448.909851819 460 448.909851819 491.512526416 399.889054689 c 128,-1,56
 523.025052832 350.86825756 523.025052832 350.86825756 572.5 326.5 c 0,57,58
 606 310 606 310 644 310 c 0,38,39
1530 664 m 1,59,60
 1496 792 1496 792 1374 792 c 0,61,62
 1298 792 1298 792 1257.5 736 c 128,-1,63
 1217 680 1217 680 1212 594 c 1,64,-1
 1530 664 l 1,59,60
EndSplineSet
EndChar

StartChar: Tbar
Encoding: 358 358 297
Width: 1202
Flags: W
LayerCount: 2
Fore
SplineSet
362 518 m 1,0,-1
 216 518 l 1,1,-1
 216 692 l 1,2,-1
 362 692 l 1,3,-1
 362 1078 l 1,4,-1
 70 1078 l 1,5,-1
 70 1376 l 1,6,-1
 1132 1376 l 1,7,-1
 1132 1078 l 1,8,-1
 840 1078 l 1,9,-1
 840 692 l 1,10,-1
 986 692 l 1,11,-1
 986 518 l 1,12,-1
 840 518 l 1,13,-1
 840 0 l 1,14,-1
 362 0 l 1,15,-1
 362 518 l 1,0,-1
EndSplineSet
EndChar

StartChar: tbar
Encoding: 359 359 298
Width: 921
Flags: W
LayerCount: 2
Fore
SplineSet
856 38 m 1,0,1
 716 -32 716 -32 548 -32 c 0,2,3
 419.971752512 -32 419.971752512 -32 336.683649703 27.3448324697 c 128,-1,4
 253.395546894 86.6896649393 253.395546894 86.6896649393 213.5 191.5 c 0,5,6
 184 269 184 269 184 378 c 2,7,-1
 184 518 l 1,8,-1
 70 518 l 1,9,-1
 70 692 l 1,10,-1
 186 692 l 1,11,-1
 186 772 l 1,12,-1
 56 772 l 1,13,-1
 56 1026 l 1,14,-1
 186 1026 l 1,15,-1
 186 1274 l 1,16,-1
 616 1414 l 1,17,-1
 616 1026 l 1,18,-1
 852 1026 l 1,19,-1
 852 772 l 1,20,-1
 616 772 l 1,21,-1
 616 692 l 1,22,-1
 840 692 l 1,23,-1
 840 518 l 1,24,-1
 616 518 l 1,25,-1
 616 408 l 2,26,27
 616 354 616 354 651.5 327 c 128,-1,28
 687 300 687 300 746 300 c 0,29,30
 793 300 793 300 840 324 c 1,31,-1
 856 38 l 1,0,1
EndSplineSet
EndChar

StartChar: florin
Encoding: 402 402 323
Width: 891
Flags: W
LayerCount: 2
Fore
SplineSet
729 1246 m 0,0,1
 613 1246 613 1246 613 1122 c 2,2,-1
 613 1026 l 1,3,-1
 871 1026 l 1,4,-1
 871 772 l 1,5,-1
 613 772 l 1,6,-1
 613 0 l 1,7,-1
 179 0 l 1,8,-1
 179 772 l 1,9,-1
 53 772 l 1,10,-1
 53 1026 l 1,11,-1
 179 1026 l 1,12,-1
 179 1136 l 2,13,14
 179 1343 179 1343 272 1457.5 c 128,-1,15
 365 1572 365 1572 555 1572 c 0,16,17
 705 1572 705 1572 889 1494 c 1,18,-1
 875 1216 l 1,19,20
 785 1246 785 1246 729 1246 c 0,0,1
EndSplineSet
EndChar

StartChar: dotlessj
Encoding: 567 567 352
Width: 646
Flags: W
LayerCount: 2
Fore
SplineSet
-29 -110 m 0,0,1
 107 -110 107 -110 107 60 c 2,2,-1
 107 1026 l 1,3,-1
 539 1026 l 1,4,-1
 539 60 l 2,5,6
 539 -123 539 -123 465 -245 c 128,-1,7
 391 -367 391 -367 255 -414 c 0,8,9
 173 -442 173 -442 85 -442 c 0,10,11
 -103 -442 -103 -442 -265 -334 c 1,12,-1
 -171 -80 l 1,13,14
 -76 -110 -76 -110 -29 -110 c 0,0,1
EndSplineSet
EndChar

StartChar: circumflex
Encoding: 710 710 353
Width: 986
Flags: W
LayerCount: 2
Fore
SplineSet
300 1640 m 1,0,-1
 678 1640 l 1,1,-1
 930 1130 l 1,2,-1
 590 1130 l 1,3,-1
 512 1348 l 1,4,-1
 488 1426 l 1,5,-1
 466 1348 l 1,6,-1
 388 1130 l 1,7,-1
 48 1130 l 1,8,-1
 300 1640 l 1,0,-1
EndSplineSet
EndChar

StartChar: caron
Encoding: 711 711 354
Width: 986
Flags: W
LayerCount: 2
Fore
SplineSet
48 1640 m 1,0,-1
 388 1640 l 1,1,-1
 466 1422 l 1,2,-1
 488 1342 l 1,3,4
 501 1388 501 1388 517.5 1437.5 c 128,-1,5
 534 1487 534 1487 556.5 1548 c 128,-1,6
 579 1609 579 1609 590 1640 c 1,7,-1
 930 1640 l 1,8,-1
 678 1130 l 1,9,-1
 300 1130 l 1,10,-1
 48 1640 l 1,0,-1
EndSplineSet
EndChar

StartChar: breve
Encoding: 728 728 355
Width: 842
Flags: W
LayerCount: 2
Fore
SplineSet
422 1376 m 128,-1,1
 477 1376 477 1376 508.5 1409.5 c 128,-1,2
 540 1443 540 1443 540 1500 c 1,3,-1
 772 1500 l 1,4,5
 772 1375 772 1375 712 1291 c 128,-1,6
 652 1207 652 1207 551 1172 c 0,7,8
 488 1150 488 1150 422 1150 c 256,9,10
 306.763618868 1150 306.763618868 1150 223.778325999 1203.7176055 c 128,-1,11
 140.793033129 1257.435211 140.793033129 1257.435211 100 1346.5 c 0,12,13
 70 1412 70 1412 70 1500 c 1,14,-1
 296 1500 l 1,15,16
 296 1445 296 1445 331.5 1410.5 c 128,-1,0
 367 1376 367 1376 422 1376 c 128,-1,1
EndSplineSet
EndChar

StartChar: dotaccent
Encoding: 729 729 356
Width: 630
Flags: W
LayerCount: 2
Fore
SplineSet
86 1372 m 0,0,1
 86 1439.64248835 86 1439.64248835 126.901831464 1488.70390006 c 128,-1,2
 167.803662928 1537.76531177 167.803662928 1537.76531177 227.5 1561.5 c 0,3,4
 269 1578 269 1578 316 1578 c 0,5,6
 389.025062205 1578 389.025062205 1578 443.854833315 1542.19282458 c 128,-1,7
 498.684604425 1506.38564916 498.684604425 1506.38564916 527 1450.5 c 0,8,9
 546 1413 546 1413 546 1372 c 0,10,11
 546 1302.75247105 546 1302.75247105 505.029054113 1253.05008771 c 128,-1,12
 464.058108226 1203.34770438 464.058108226 1203.34770438 403.5 1180 c 0,13,14
 362 1164 362 1164 316 1164 c 0,15,16
 241.875437151 1164 241.875437151 1164 187.047437553 1199.15597505 c 128,-1,17
 132.219437955 1234.31195009 132.219437955 1234.31195009 104.5 1290.5 c 0,18,19
 86 1328 86 1328 86 1372 c 0,0,1
EndSplineSet
EndChar

StartChar: ring
Encoding: 730 730 357
Width: 842
Flags: W
LayerCount: 2
Fore
SplineSet
418 1628 m 256,0,1
 364 1628 364 1628 330 1592 c 128,-1,2
 296 1556 296 1556 296 1500 c 0,3,4
 296 1445 296 1445 331.5 1410.5 c 128,-1,5
 367 1376 367 1376 422 1376 c 128,-1,6
 477 1376 477 1376 508.5 1409.5 c 128,-1,7
 540 1443 540 1443 540 1500 c 128,-1,8
 540 1557 540 1557 506.5 1592.5 c 128,-1,9
 473 1628 473 1628 418 1628 c 256,0,1
70 1500 m 256,10,11
 70 1626.26043534 70 1626.26043534 130.602329872 1711.58299337 c 128,-1,12
 191.204659743 1796.90555141 191.204659743 1796.90555141 292.5 1832 c 0,13,14
 356 1854 356 1854 422 1854 c 256,15,16
 499.981160185 1854 499.981160185 1854 564.585845416 1827.53982762 c 128,-1,17
 629.190530647 1801.07965523 629.190530647 1801.07965523 672.27043943 1757.32652501 c 128,-1,18
 715.350348213 1713.57339479 715.350348213 1713.57339479 742 1654.5 c 0,19,20
 772 1588 772 1588 772 1500 c 256,21,22
 772 1375 772 1375 712 1291 c 128,-1,23
 652 1207 652 1207 551 1172 c 0,24,25
 488 1150 488 1150 422 1150 c 256,26,27
 306.763618868 1150 306.763618868 1150 223.778325999 1203.7176055 c 128,-1,28
 140.793033129 1257.435211 140.793033129 1257.435211 100 1346.5 c 0,29,30
 70 1412 70 1412 70 1500 c 256,10,11
EndSplineSet
EndChar

StartChar: ogonek
Encoding: 731 731 358
Width: 642
Flags: W
LayerCount: 2
Fore
SplineSet
410 -402 m 0,0,1
 445 -402 445 -402 506 -388 c 1,2,-1
 508 -464 l 1,3,4
 404 -508 404 -508 310 -508 c 0,5,6
 213 -508 213 -508 149.5 -463 c 128,-1,7
 86 -418 86 -418 86 -332 c 0,8,9
 86 -285.976125533 86 -285.976125533 103.369810018 -253.091454922 c 128,-1,10
 120.739620035 -220.20678431 120.739620035 -220.20678431 154.5 -184 c 0,11,12
 175.971755184 -160.972320527 175.971755184 -160.972320527 203.811847644 -135.170738291 c 128,-1,13
 231.651940103 -109.369156056 231.651940103 -109.369156056 249.737905141 -93.8827196549 c 128,-1,14
 267.823870178 -78.3962832538 267.823870178 -78.3962832538 307.468526283 -45.4718719064 c 128,-1,15
 347.113182388 -12.547460559 347.113182388 -12.547460559 362 0 c 1,16,-1
 474 0 l 1,17,18
 408.563758389 -133.053691275 408.563758389 -133.053691275 346.5 -225 c 0,19,20
 332.123504861 -246.298511317 332.123504861 -246.298511317 326.357138369 -255.95799509 c 128,-1,21
 320.590771877 -265.617478864 320.590771877 -265.617478864 314.295385938 -285.566988688 c 128,-1,22
 308 -305.516498512 308 -305.516498512 308 -328 c 0,23,24
 308 -402 308 -402 410 -402 c 0,0,1
EndSplineSet
EndChar

StartChar: tilde
Encoding: 732 732 359
Width: 1112
Flags: W
LayerCount: 2
Fore
SplineSet
412 1266 m 0,0,1
 383 1266 383 1266 359.5 1247 c 128,-1,2
 336 1228 336 1228 326 1208.5 c 128,-1,3
 316 1189 316 1189 304 1158 c 1,4,-1
 62 1256 l 1,5,6
 129.755319149 1436.68085106 129.755319149 1436.68085106 228.5 1530 c 0,7,8
 315.26744186 1612 315.26744186 1612 414 1612 c 0,9,10
 446 1612 446 1612 477.5 1602 c 128,-1,11
 509 1592 509 1592 525 1583 c 128,-1,12
 541 1574 541 1574 572 1555 c 0,13,14
 577 1552 577 1552 591.5 1542.5 c 128,-1,15
 606 1533 606 1533 613 1529 c 128,-1,16
 620 1525 620 1525 634 1517.5 c 128,-1,17
 648 1510 648 1510 658.5 1507 c 128,-1,18
 669 1504 669 1504 683.5 1501 c 128,-1,19
 698 1498 698 1498 712 1498 c 0,20,21
 782 1498 782 1498 814 1590 c 1,22,-1
 1054 1492 l 1,23,24
 992 1315 992 1315 908.5 1233.5 c 128,-1,25
 825 1152 825 1152 720 1152 c 0,26,27
 677.037016447 1152 677.037016447 1152 638.722545282 1164.10325932 c 128,-1,28
 600.408074118 1176.20651864 600.408074118 1176.20651864 576.364153697 1191.57859591 c 128,-1,29
 552.320233275 1206.95067319 552.320233275 1206.95067319 519.028168085 1227.06040763 c 128,-1,30
 485.736102894 1247.17014206 485.736102894 1247.17014206 459 1257.5 c 0,31,32
 437 1266 437 1266 412 1266 c 0,0,1
EndSplineSet
EndChar

StartChar: hungarumlaut
Encoding: 733 733 360
Width: 1302
Flags: W
LayerCount: 2
Fore
SplineSet
258 2006 m 1,0,-1
 658 1888 l 1,1,-1
 358 1218 l 1,2,-1
 114 1288 l 1,3,-1
 258 2006 l 1,0,-1
860 2010 m 1,4,-1
 1234 1822 l 1,5,-1
 818 1216 l 1,6,-1
 592 1328 l 1,7,-1
 860 2010 l 1,4,-1
EndSplineSet
EndChar

StartChar: uni030F
Encoding: 783 783 361
Width: 1302
Flags: W
LayerCount: 2
Fore
SplineSet
642 1888 m 1,0,-1
 1044 2006 l 1,1,-1
 1188 1288 l 1,2,-1
 944 1218 l 1,3,-1
 642 1888 l 1,0,-1
68 1822 m 1,4,-1
 442 2010 l 1,5,-1
 710 1328 l 1,6,-1
 482 1216 l 1,7,-1
 68 1822 l 1,4,-1
EndSplineSet
EndChar

StartChar: uni0311
Encoding: 785 785 362
Width: 842
Flags: W
LayerCount: 2
Fore
SplineSet
548 1182 m 1,0,1
 548 1237 548 1237 512 1272.5 c 128,-1,2
 476 1308 476 1308 422 1308 c 128,-1,3
 368 1308 368 1308 332 1272.5 c 128,-1,4
 296 1237 296 1237 296 1182 c 1,5,-1
 50 1182 l 1,6,7
 50 1318 50 1318 113.5 1410 c 128,-1,8
 177 1502 177 1502 285 1539 c 0,9,10
 352 1562 352 1562 422 1562 c 256,11,12
 545.67252134 1562 545.67252134 1562 632.080541684 1504.36043461 c 128,-1,13
 718.488562029 1446.72086922 718.488562029 1446.72086922 762 1349.5 c 0,14,15
 794 1278 794 1278 794 1182 c 1,16,-1
 548 1182 l 1,0,1
EndSplineSet
EndChar

StartChar: Delta
Encoding: 916 916 364
Width: 1210
Flags: W
LayerCount: 2
Fore
SplineSet
421 1376 m 1,0,-1
 785 1376 l 1,1,-1
 1161 0 l 1,2,-1
 51 0 l 1,3,-1
 421 1376 l 1,0,-1
799 230 m 1,4,-1
 605 1060 l 1,5,-1
 417 230 l 1,6,-1
 799 230 l 1,4,-1
EndSplineSet
EndChar

StartChar: mu
Encoding: 956 956 366
Width: 1272
Flags: W
LayerCount: 2
Fore
SplineSet
755 -32 m 0,0,1
 642 -32 642 -32 526 24 c 1,2,-1
 526 -270 l 1,3,-1
 116 -300 l 1,4,-1
 116 1026 l 1,5,-1
 538 1026 l 1,6,-1
 538 344 l 1,7,8
 599 304 599 304 666 304 c 0,9,10
 718 304 718 304 754 339 c 128,-1,11
 790 374 790 374 790 426 c 2,12,-1
 790 1026 l 1,13,-1
 1202 1026 l 1,14,-1
 1202 440 l 2,15,16
 1202 282.186814763 1202 282.186814763 1127.33682442 169.451778755 c 128,-1,17
 1052.67364884 56.716742746 1052.67364884 56.716742746 930.5 3.5 c 0,18,19
 849 -32 849 -32 755 -32 c 0,0,1
EndSplineSet
EndChar

StartChar: pi
Encoding: 960 960 367
Width: 1432
Flags: W
LayerCount: 2
Fore
SplineSet
152 300 m 128,-1,1
 195 300 195 300 217.5 328.5 c 128,-1,2
 240 357 240 357 240 408 c 2,3,-1
 240 1026 l 1,4,-1
 1318 1026 l 1,5,-1
 1318 3 l 1,6,-1
 886 3 l 1,7,-1
 886 852 l 1,8,-1
 674 852 l 1,9,-1
 674 378 l 2,10,11
 674 228.844907378 674 228.844907378 615.522771417 129.585864724 c 128,-1,12
 557.045542834 30.3268220695 557.045542834 30.3268220695 448 -8.5 c 0,13,14
 382 -32 382 -32 310 -32 c 0,15,16
 164 -32 164 -32 42 38 c 1,17,-1
 64 324 l 1,18,0
 109 300 109 300 152 300 c 128,-1,1
EndSplineSet
EndChar

StartChar: endash
Encoding: 8211 8211 368
Width: 972
Flags: W
LayerCount: 2
Fore
SplineSet
97 476 m 1,0,-1
 876 476 l 1,1,-1
 876 302 l 1,2,-1
 97 302 l 1,3,-1
 97 476 l 1,0,-1
EndSplineSet
EndChar

StartChar: emdash
Encoding: 8212 8212 369
Width: 1244
Flags: W
LayerCount: 2
Fore
SplineSet
97 476 m 1,0,-1
 1147 476 l 1,1,-1
 1147 302 l 1,2,-1
 97 302 l 1,3,-1
 97 476 l 1,0,-1
EndSplineSet
EndChar

StartChar: quoteleft
Encoding: 8216 8216 370
Width: 600
Flags: W
LayerCount: 2
Fore
SplineSet
504 1200 m 1,0,1
 432 1200 432 1200 393.5 1197.5 c 0,2,3
 370.097582935 1195.98036253 370.097582935 1195.98036253 355.370704157 1192.39397307 c 128,-1,4
 340.643825378 1188.80758361 340.643825378 1188.80758361 329.534509794 1178.93212691 c 128,-1,5
 318.42519421 1169.0566702 318.42519421 1169.0566702 316.5 1152.5 c 0,6,7
 314 1131 314 1131 314 1094 c 1,8,-1
 504 1094 l 1,9,-1
 504 710 l 1,10,-1
 84 710 l 1,11,12
 85 748 85 748 86.5 837 c 128,-1,13
 88 926 88 926 89 969 c 128,-1,14
 90 1012 90 1012 94.5 1076 c 128,-1,15
 99 1140 99 1140 107 1191 c 0,16,17
 115.541627992 1248.65598894 115.541627992 1248.65598894 130.094144131 1288.7606701 c 128,-1,18
 144.64666027 1328.86535126 144.64666027 1328.86535126 170.247798693 1359.55882199 c 128,-1,19
 195.848937116 1390.25229271 195.848937116 1390.25229271 234.685696215 1407.55530741 c 128,-1,20
 273.522455313 1424.85832211 273.522455313 1424.85832211 329 1431.5 c 0,21,22
 400 1440 400 1440 504 1440 c 1,23,-1
 504 1200 l 1,0,1
EndSplineSet
EndChar

StartChar: quoteright
Encoding: 8217 8217 371
Width: 590
Flags: W
LayerCount: 2
Fore
SplineSet
100 918 m 1,0,1
 172 918 172 918 211 920.5 c 0,2,3
 246.955935289 922.804867647 246.955935289 922.804867647 266.285606029 932.055902511 c 128,-1,4
 285.615276768 941.306937376 285.615276768 941.306937376 289 965 c 0,5,6
 292 986 292 986 292 1024 c 1,7,-1
 100 1024 l 1,8,-1
 100 1408 l 1,9,-1
 520 1408 l 1,10,11
 519 1370 519 1370 517.5 1281 c 128,-1,12
 516 1192 516 1192 515 1149 c 128,-1,13
 514 1106 514 1106 509.5 1042 c 128,-1,14
 505 978 505 978 497 927 c 0,15,16
 488.458372008 869.344011056 488.458372008 869.344011056 473.905855869 829.239329897 c 128,-1,17
 459.35333973 789.134648737 459.35333973 789.134648737 433.752201307 758.441178015 c 128,-1,18
 408.151062884 727.747707293 408.151062884 727.747707293 369.314303785 710.444692589 c 128,-1,19
 330.477544687 693.141677885 330.477544687 693.141677885 275 686.5 c 0,20,21
 204 678 204 678 100 678 c 1,22,-1
 100 918 l 1,0,1
EndSplineSet
EndChar

StartChar: quotesinglbase
Encoding: 8218 8218 372
Width: 458
Flags: W
LayerCount: 2
Fore
SplineSet
82 253 m 1,0,-1
 378 253 l 1,1,-1
 320 -255 l 1,2,-1
 124 -255 l 1,3,-1
 82 253 l 1,0,-1
EndSplineSet
EndChar

StartChar: quotedblleft
Encoding: 8220 8220 373
Width: 1162
Flags: W
LayerCount: 2
Fore
SplineSet
504 1200 m 1,0,1
 432 1200 432 1200 393.5 1197.5 c 0,2,3
 370.097582935 1195.98036253 370.097582935 1195.98036253 355.370704157 1192.39397307 c 128,-1,4
 340.643825378 1188.80758361 340.643825378 1188.80758361 329.534509794 1178.93212691 c 128,-1,5
 318.42519421 1169.0566702 318.42519421 1169.0566702 316.5 1152.5 c 0,6,7
 314 1131 314 1131 314 1094 c 1,8,-1
 504 1094 l 1,9,-1
 504 710 l 1,10,-1
 84 710 l 1,11,12
 85 748 85 748 86.5 837 c 128,-1,13
 88 926 88 926 89 969 c 128,-1,14
 90 1012 90 1012 94.5 1076 c 128,-1,15
 99 1140 99 1140 107 1191 c 0,16,17
 115.541627992 1248.65598894 115.541627992 1248.65598894 130.094144131 1288.7606701 c 128,-1,18
 144.64666027 1328.86535126 144.64666027 1328.86535126 170.247798693 1359.55882199 c 128,-1,19
 195.848937116 1390.25229271 195.848937116 1390.25229271 234.685696215 1407.55530741 c 128,-1,20
 273.522455313 1424.85832211 273.522455313 1424.85832211 329 1431.5 c 0,21,22
 400 1440 400 1440 504 1440 c 1,23,-1
 504 1200 l 1,0,1
1066 1200 m 1,24,25
 994 1200 994 1200 955 1197.5 c 0,26,27
 931.259977131 1195.97820366 931.259977131 1195.97820366 916.437450514 1192.37425853 c 128,-1,28
 901.614923896 1188.77031339 901.614923896 1188.77031339 890.46483512 1178.92966443 c 128,-1,29
 879.314746343 1169.08901546 879.314746343 1169.08901546 877 1152.5 c 0,30,31
 874 1131 874 1131 874 1094 c 1,32,-1
 1066 1094 l 1,33,-1
 1066 710 l 1,34,-1
 646 710 l 1,35,36
 647 748 647 748 648.5 837 c 128,-1,37
 650 926 650 926 651 969 c 128,-1,38
 652 1012 652 1012 656.5 1076 c 128,-1,39
 661 1140 661 1140 669 1191 c 0,40,41
 686.092024251 1306.3711637 686.092024251 1306.3711637 734.544638557 1362.45491979 c 128,-1,42
 782.997252862 1418.53867588 782.997252862 1418.53867588 890.5 1431.5 c 0,43,44
 961 1440 961 1440 1066 1440 c 1,45,-1
 1066 1200 l 1,24,25
EndSplineSet
EndChar

StartChar: quotedblright
Encoding: 8221 8221 374
Width: 1152
Flags: W
LayerCount: 2
Fore
SplineSet
100 918 m 1,0,1
 172 918 172 918 211 920.5 c 0,2,3
 246.955935289 922.804867647 246.955935289 922.804867647 266.285606029 932.055902511 c 128,-1,4
 285.615276768 941.306937376 285.615276768 941.306937376 289 965 c 0,5,6
 292 986 292 986 292 1024 c 1,7,-1
 100 1024 l 1,8,-1
 100 1408 l 1,9,-1
 520 1408 l 1,10,11
 519 1370 519 1370 517.5 1281 c 128,-1,12
 516 1192 516 1192 515 1149 c 128,-1,13
 514 1106 514 1106 509.5 1042 c 128,-1,14
 505 978 505 978 497 927 c 0,15,16
 488.458372008 869.344011056 488.458372008 869.344011056 473.905855869 829.239329897 c 128,-1,17
 459.35333973 789.134648737 459.35333973 789.134648737 433.752201307 758.441178015 c 128,-1,18
 408.151062884 727.747707293 408.151062884 727.747707293 369.314303785 710.444692589 c 128,-1,19
 330.477544687 693.141677885 330.477544687 693.141677885 275 686.5 c 0,20,21
 204 678 204 678 100 678 c 1,22,-1
 100 918 l 1,0,1
662 918 m 1,23,24
 734 918 734 918 772.5 920.5 c 0,25,26
 808.047143002 922.808256039 808.047143002 922.808256039 827.366723658 932.086606134 c 128,-1,27
 846.686304313 941.364956229 846.686304313 941.364956229 849.5 965 c 0,28,29
 852 986 852 986 852 1024 c 1,30,-1
 662 1024 l 1,31,-1
 662 1408 l 1,32,-1
 1082 1408 l 1,33,34
 1081 1370 1081 1370 1079.5 1281 c 128,-1,35
 1078 1192 1078 1192 1077 1149 c 128,-1,36
 1076 1106 1076 1106 1071.5 1042 c 128,-1,37
 1067 978 1067 978 1059 927 c 0,38,39
 1052.19580572 881.071688614 1052.19580572 881.071688614 1041.7607374 846.781403674 c 128,-1,40
 1031.32566908 812.491118735 1031.32566908 812.491118735 1014.33451735 783.888365099 c 128,-1,41
 997.34336563 755.285611463 997.34336563 755.285611463 973.125813948 736.116619686 c 128,-1,42
 948.908262267 716.947627909 948.908262267 716.947627909 915.212816802 704.388586183 c 128,-1,43
 881.517371338 691.829544456 881.517371338 691.829544456 837 686.5 c 0,44,45
 766 678 766 678 662 678 c 1,46,-1
 662 918 l 1,23,24
EndSplineSet
EndChar

StartChar: quotedblbase
Encoding: 8222 8222 375
Width: 838
Flags: W
LayerCount: 2
Fore
SplineSet
466 300 m 1,0,-1
 762 300 l 1,1,-1
 704 -208 l 1,2,-1
 508 -208 l 1,3,-1
 466 300 l 1,0,-1
80 300 m 1,4,-1
 374 300 l 1,5,-1
 316 -208 l 1,6,-1
 120 -208 l 1,7,-1
 80 300 l 1,4,-1
EndSplineSet
EndChar

StartChar: dagger
Encoding: 8224 8224 376
Width: 720
Flags: W
LayerCount: 2
Fore
SplineSet
48 1027 m 1,0,-1
 294 1027 l 1,1,-1
 294 1376 l 1,2,-1
 426 1376 l 1,3,-1
 426 1027 l 1,4,-1
 672 1027 l 1,5,-1
 672 901 l 1,6,-1
 426 901 l 1,7,-1
 426 0 l 1,8,-1
 294 0 l 1,9,-1
 294 901 l 1,10,-1
 48 901 l 1,11,-1
 48 1027 l 1,0,-1
EndSplineSet
EndChar

StartChar: daggerdbl
Encoding: 8225 8225 377
Width: 752
Flags: W
LayerCount: 2
Fore
SplineSet
64 530 m 1,0,-1
 310 530 l 1,1,-1
 310 901 l 1,2,-1
 64 901 l 1,3,-1
 64 1027 l 1,4,-1
 310 1027 l 1,5,-1
 310 1376 l 1,6,-1
 442 1376 l 1,7,-1
 442 1027 l 1,8,-1
 688 1027 l 1,9,-1
 688 901 l 1,10,-1
 442 901 l 1,11,-1
 442 530 l 1,12,-1
 688 530 l 1,13,-1
 688 406 l 1,14,-1
 442 406 l 1,15,-1
 442 0 l 1,16,-1
 310 0 l 1,17,-1
 310 406 l 1,18,-1
 64 406 l 1,19,-1
 64 530 l 1,0,-1
EndSplineSet
EndChar

StartChar: bullet
Encoding: 8226 8226 378
Width: 1036
Flags: W
LayerCount: 2
Fore
SplineSet
67 530 m 256,0,1
 67 723.511811024 67 723.511811024 208.5 840.5 c 0,2,3
 267.384318297 889.183885207 267.384318297 889.183885207 347.036657378 917.591942603 c 128,-1,4
 426.688996459 946 426.688996459 946 519 946 c 0,5,6
 664.58955466 946 664.58955466 946 770.80657761 882.073648786 c 128,-1,7
 877.023600561 818.147297572 877.023600561 818.147297572 930.5 710.5 c 0,8,9
 969 633 969 633 969 530 c 256,10,11
 969 379.958813585 969 379.958813585 890.208377672 281.025689103 c 128,-1,12
 811.416755344 182.092564621 811.416755344 182.092564621 683.5 140.5 c 0,13,14
 602 114 602 114 517 114 c 0,15,16
 372.02795177 114 372.02795177 114 266.031406581 178.061515925 c 128,-1,17
 160.034861392 242.12303185 160.034861392 242.12303185 106 349.5 c 0,18,19
 67 427 67 427 67 530 c 256,0,1
EndSplineSet
EndChar

StartChar: ellipsis
Encoding: 8230 8230 379
Width: 1838
Flags: W
LayerCount: 2
Fore
SplineSet
58 176 m 0,0,1
 58 243.642488354 58 243.642488354 98.901831464 292.70390006 c 128,-1,2
 139.803662928 341.765311767 139.803662928 341.765311767 199.5 365.5 c 0,3,4
 241 382 241 382 288 382 c 0,5,6
 361.025062205 382 361.025062205 382 415.854833315 346.19282458 c 128,-1,7
 470.684604425 310.385649161 470.684604425 310.385649161 499 254.5 c 0,8,9
 518 217 518 217 518 176 c 0,10,11
 518 106.752471046 518 106.752471046 477.029054113 57.0500877113 c 128,-1,12
 436.058108226 7.34770437618 436.058108226 7.34770437618 375.5 -16 c 0,13,14
 334 -32 334 -32 288 -32 c 0,15,16
 213.875437151 -32 213.875437151 -32 159.047437553 3.15597504531 c 128,-1,17
 104.219437955 38.3119500906 104.219437955 38.3119500906 76.5 94.5 c 0,18,19
 58 132 58 132 58 176 c 0,0,1
688 176 m 0,20,21
 688 243.99417649 688 243.99417649 729.122101687 293.050374782 c 128,-1,22
 770.244203375 342.106573075 770.244203375 342.106573075 830.5 365.5 c 0,23,24
 873 382 873 382 920 382 c 0,25,26
 993.025062205 382 993.025062205 382 1047.85483331 346.19282458 c 128,-1,27
 1102.68460443 310.385649161 1102.68460443 310.385649161 1131 254.5 c 0,28,29
 1150 217 1150 217 1150 176 c 0,30,31
 1150 106.752471046 1150 106.752471046 1109.02905411 57.0500877113 c 128,-1,32
 1068.05810823 7.34770437618 1068.05810823 7.34770437618 1007.5 -16 c 0,33,34
 966 -32 966 -32 920 -32 c 0,35,36
 845.133771871 -32 845.133771871 -32 789.715194633 3.07775264056 c 128,-1,37
 734.296617395 38.1555052811 734.296617395 38.1555052811 706.5 94.5 c 0,38,39
 688 132 688 132 688 176 c 0,20,21
1320 176 m 0,40,41
 1320 244.237014208 1320 244.237014208 1360.4719465 293.071771801 c 128,-1,42
 1400.943893 341.906529395 1400.943893 341.906529395 1461 365.5 c 0,43,44
 1503 382 1503 382 1550 382 c 0,45,46
 1623.32812918 382 1623.32812918 382 1678.62464426 346.201527693 c 128,-1,47
 1733.92115934 310.403055386 1733.92115934 310.403055386 1761.5 254.5 c 0,48,49
 1780 217 1780 217 1780 176 c 0,50,51
 1780 106 1780 106 1739.5 56.5 c 128,-1,52
 1699 7 1699 7 1638 -16 c 0,53,54
 1596 -32 1596 -32 1550 -32 c 0,55,56
 1475.57395498 -32 1475.57395498 -32 1420.27966233 3.14023991582 c 128,-1,57
 1364.98536968 38.2804798316 1364.98536968 38.2804798316 1338 94.5 c 0,58,59
 1320 132 1320 132 1320 176 c 0,40,41
EndSplineSet
EndChar

StartChar: perthousand
Encoding: 8240 8240 380
Width: 2660
Flags: W
LayerCount: 2
Fore
SplineSet
998 1376 m 1,0,-1
 1140 1376 l 1,1,-1
 800 0 l 1,2,-1
 662 0 l 1,3,-1
 998 1376 l 1,0,-1
1396 -32 m 0,4,5
 1263 -32 1263 -32 1174 38 c 128,-1,6
 1085 108 1085 108 1049 221 c 0,7,8
 1026 293 1026 293 1026 368 c 0,9,10
 1026 496 1026 496 1083 591.5 c 128,-1,11
 1140 687 1140 687 1235 735 c 0,12,13
 1304 770 1304 770 1396 770 c 256,14,15
 1529.99301244 770 1529.99301244 770 1618.58659997 699.170776608 c 128,-1,16
 1707.18018749 628.341553216 1707.18018749 628.341553216 1744.5 514 c 0,17,18
 1768 442 1768 442 1768 368 c 0,19,20
 1768 238.126622999 1768 238.126622999 1711.68830296 144.11002304 c 128,-1,21
 1655.37660592 50.0934230808 1655.37660592 50.0934230808 1559.5 2.5 c 0,22,23
 1490 -32 1490 -32 1396 -32 c 0,4,5
1396 172 m 256,24,25
 1456 172 1456 172 1485 231.5 c 128,-1,26
 1514 291 1514 291 1514 368 c 0,27,28
 1514 427.374060385 1514 427.374060385 1496.82432057 474.193789765 c 128,-1,29
 1479.64864114 521.013519146 1479.64864114 521.013519146 1447 545.5 c 0,30,31
 1425 562 1425 562 1396 562 c 256,32,33
 1355 562 1355 562 1327.5 530.5 c 128,-1,34
 1300 499 1300 499 1290 457.5 c 128,-1,35
 1280 416 1280 416 1280 368 c 0,36,37
 1280 309.703367686 1280 309.703367686 1297.04011887 261.773450322 c 128,-1,38
 1314.08023773 213.843532957 1314.08023773 213.843532957 1345.5 189 c 0,39,40
 1367 172 1367 172 1396 172 c 256,24,25
420 614 m 0,41,42
 286.403262307 614 286.403262307 614 198.438781088 683.35851935 c 128,-1,43
 110.474299869 752.7170387 110.474299869 752.7170387 73.5 866 c 0,44,45
 50 938 50 938 50 1014 c 256,46,47
 50 1101.30198298 50 1101.30198298 77.5546527581 1174.74975295 c 128,-1,48
 105.109305516 1248.19752291 105.109305516 1248.19752291 152.085270153 1298.80147055 c 128,-1,49
 199.06123479 1349.4054182 199.06123479 1349.4054182 262.5 1380 c 0,50,51
 333 1414 333 1414 425 1414 c 256,52,53
 493.003608561 1414 493.003608561 1414 551.004581379 1394.22822083 c 128,-1,54
 609.005554196 1374.45644167 609.005554196 1374.45644167 651.338518227 1339.10505163 c 128,-1,55
 693.671482258 1303.75366158 693.671482258 1303.75366158 723.564818331 1258.39296036 c 128,-1,56
 753.458154404 1213.03225914 753.458154404 1213.03225914 771 1158.5 c 0,57,58
 794 1087 794 1087 794 1014 c 0,59,60
 794 883.086470428 794 883.086470428 737.648132783 788.884178683 c 128,-1,61
 681.296265565 694.681886939 681.296265565 694.681886939 584.5 648 c 0,62,63
 514 614 514 614 420 614 c 0,41,42
420 816 m 0,64,65
 462 816 462 816 490.5 848 c 128,-1,66
 519 880 519 880 529.5 922 c 128,-1,67
 540 964 540 964 540 1014 c 0,68,69
 540 1053.23493432 540 1053.23493432 532.598281495 1087.11107289 c 128,-1,70
 525.19656299 1120.98721146 525.19656299 1120.98721146 509.885817131 1148.14941293 c 128,-1,71
 494.575071271 1175.3116144 494.575071271 1175.3116144 472.5 1191.5 c 0,72,73
 450 1208 450 1208 420 1208 c 0,74,75
 361 1208 361 1208 332.5 1149.5 c 128,-1,76
 304 1091 304 1091 304 1014 c 0,77,78
 304 954.474619464 304 954.474619464 321.196952118 906.430417359 c 128,-1,79
 338.393904237 858.386215255 338.393904237 858.386215255 370.5 833 c 0,80,81
 392 816 392 816 420 816 c 0,64,65
2238 -32 m 0,82,83
 2104.07428023 -32 2104.07428023 -32 2015.29450067 37.7965974417 c 128,-1,84
 1926.51472111 107.593194883 1926.51472111 107.593194883 1889.5 221 c 0,85,86
 1866 293 1866 293 1866 368 c 0,87,88
 1866 496.095335226 1866 496.095335226 1923.73942524 591.621478883 c 128,-1,89
 1981.47885047 687.147622541 1981.47885047 687.147622541 2076.5 735 c 0,90,91
 2146 770 2146 770 2238 770 c 0,92,93
 2371 770 2371 770 2459.5 699 c 128,-1,94
 2548 628 2548 628 2586 514 c 0,95,96
 2610 442 2610 442 2610 368 c 0,97,98
 2610 238.126622999 2610 238.126622999 2553.68830296 144.11002304 c 128,-1,99
 2497.37660592 50.0934230808 2497.37660592 50.0934230808 2401.5 2.5 c 0,100,101
 2332 -32 2332 -32 2238 -32 c 0,82,83
2238 172 m 256,102,103
 2298 172 2298 172 2327 231.5 c 128,-1,104
 2356 291 2356 291 2356 368 c 0,105,106
 2356 427.374060385 2356 427.374060385 2338.82432057 474.193789765 c 128,-1,107
 2321.64864114 521.013519146 2321.64864114 521.013519146 2289 545.5 c 0,108,109
 2267 562 2267 562 2238 562 c 256,110,111
 2178 562 2178 562 2149 504 c 128,-1,112
 2120 446 2120 446 2120 368 c 0,113,114
 2120 241 2120 241 2187 189 c 0,115,116
 2209 172 2209 172 2238 172 c 256,102,103
EndSplineSet
EndChar

StartChar: guilsinglleft
Encoding: 8249 8249 381
Width: 577
Flags: W
LayerCount: 2
Fore
SplineSet
53 810 m 1,0,-1
 483 1116 l 1,1,-1
 483 744 l 1,2,-1
 285 626 l 1,3,-1
 483 502 l 1,4,-1
 483 128 l 1,5,-1
 53 442 l 1,6,-1
 53 810 l 1,0,-1
EndSplineSet
EndChar

StartChar: guilsinglright
Encoding: 8250 8250 382
Width: 577
Flags: W
LayerCount: 2
Fore
SplineSet
94 502 m 1,0,-1
 290 626 l 1,1,-1
 94 744 l 1,2,-1
 94 1116 l 1,3,-1
 524 810 l 1,4,-1
 524 442 l 1,5,-1
 94 128 l 1,6,-1
 94 502 l 1,0,-1
EndSplineSet
EndChar

StartChar: fraction
Encoding: 8260 8260 383
Width: 562
Flags: W
LayerCount: 2
Fore
SplineSet
349 1408 m 1,0,-1
 553 1408 l 1,1,-1
 213 0 l 1,2,-1
 13 0 l 1,3,-1
 349 1408 l 1,0,-1
EndSplineSet
EndChar

StartChar: foursuperior
Encoding: 8308 8308 384
Width: 746
Flags: W
LayerCount: 2
Fore
SplineSet
40 978 m 1,0,-1
 342 1376 l 1,1,-1
 598 1376 l 1,2,-1
 598 978 l 1,3,-1
 692 978 l 1,4,-1
 692 822 l 1,5,-1
 598 822 l 1,6,-1
 598 650 l 1,7,-1
 352 650 l 1,8,-1
 352 822 l 1,9,-1
 40 822 l 1,10,-1
 40 978 l 1,0,-1
352 978 m 1,11,-1
 352 1180 l 1,12,-1
 208 978 l 1,13,-1
 352 978 l 1,11,-1
EndSplineSet
EndChar

StartChar: Euro
Encoding: 8364 8364 385
Width: 1360
Flags: W
LayerCount: 2
Fore
SplineSet
978 338 m 0,0,1
 1046 338 1046 338 1102 352.5 c 128,-1,2
 1158 367 1158 367 1232 396 c 1,3,-1
 1284 74 l 1,4,5
 1099 -32 1099 -32 900 -32 c 0,6,7
 700 -32 700 -32 547 51.5 c 128,-1,8
 394 135 394 135 295 273 c 0,9,10
 225 370 225 370 192 492 c 1,11,-1
 54 492 l 1,12,-1
 54 614 l 1,13,-1
 170 614 l 1,14,15
 166 654 166 654 166 694 c 0,16,17
 166 730 166 730 169 766 c 1,18,-1
 54 766 l 1,19,-1
 54 892 l 1,20,-1
 191 892 l 1,21,22
 238.074540178 1070.00060505 238.074540178 1070.00060505 360.144424895 1195.22372091 c 128,-1,23
 482.214309612 1320.44683678 482.214309612 1320.44683678 656.5 1377.5 c 0,24,25
 768 1414 768 1414 888 1414 c 0,26,27
 1097 1414 1097 1414 1286 1306 c 1,28,-1
 1232 988 l 1,29,30
 1083 1044 1083 1044 966 1044 c 0,31,32
 753 1044 753 1044 669 892 c 1,33,-1
 966 892 l 1,34,-1
 966 766 l 1,35,-1
 630 766 l 1,36,37
 626 732 626 732 626 696 c 0,38,39
 626 651 626 651 632 614 c 1,40,-1
 966 614 l 1,41,-1
 966 492 l 1,42,-1
 675 492 l 1,43,44
 763 338 763 338 978 338 c 0,0,1
EndSplineSet
EndChar

StartChar: trademark
Encoding: 8482 8482 386
Width: 1988
Flags: W
LayerCount: 2
Fore
SplineSet
275 1162 m 1,0,-1
 97 1162 l 1,1,-1
 97 1376 l 1,2,-1
 771 1376 l 1,3,-1
 771 1162 l 1,4,-1
 593 1162 l 1,5,-1
 593 614 l 1,6,-1
 275 614 l 1,7,-1
 275 1162 l 1,0,-1
889 1376 m 1,8,-1
 1205 1376 l 1,9,-1
 1381 1070 l 1,10,-1
 1555 1376 l 1,11,-1
 1869 1376 l 1,12,-1
 1869 614 l 1,13,-1
 1555 614 l 1,14,-1
 1555 1018 l 1,15,-1
 1441 798 l 1,16,-1
 1317 798 l 1,17,-1
 1205 1018 l 1,18,-1
 1205 614 l 1,19,-1
 889 614 l 1,20,-1
 889 1376 l 1,8,-1
EndSplineSet
EndChar

StartChar: minus
Encoding: 8722 8722 388
Width: 1030
Flags: W
LayerCount: 2
Fore
SplineSet
102 114 m 1,0,-1
 928 114 l 1,1,-1
 928 0 l 1,2,-1
 102 0 l 1,3,-1
 102 114 l 1,0,-1
EndSplineSet
EndChar

StartChar: notequal
Encoding: 8800 8800 393
Width: 760
Flags: W
LayerCount: 2
Fore
SplineSet
68 442 m 1,0,-1
 290 442 l 1,1,-1
 330 594 l 1,2,-1
 68 594 l 1,3,-1
 68 720 l 1,4,-1
 363 720 l 1,5,-1
 444 1026 l 1,6,-1
 586 1026 l 1,7,-1
 504 720 l 1,8,-1
 692 720 l 1,9,-1
 692 594 l 1,10,-1
 470 594 l 1,11,-1
 430 442 l 1,12,-1
 692 442 l 1,13,-1
 692 318 l 1,14,-1
 397 318 l 1,15,-1
 312 0 l 1,16,-1
 174 0 l 1,17,-1
 257 318 l 1,18,-1
 68 318 l 1,19,-1
 68 442 l 1,0,-1
EndSplineSet
EndChar

StartChar: lessequal
Encoding: 8804 8804 394
Width: 986
Flags: W
LayerCount: 2
Fore
SplineSet
92 1154 m 1,0,-1
 872 1582 l 1,1,-1
 872 1274 l 1,2,-1
 264 970 l 1,3,-1
 872 682 l 1,4,-1
 872 350 l 1,5,-1
 92 806 l 1,6,-1
 92 1154 l 1,0,-1
68 114 m 1,7,-1
 894 114 l 1,8,-1
 894 0 l 1,9,-1
 68 0 l 1,10,-1
 68 114 l 1,7,-1
EndSplineSet
EndChar

StartChar: greaterequal
Encoding: 8805 8805 395
Width: 986
Flags: W
LayerCount: 2
Fore
SplineSet
114 682 m 1,0,-1
 722 970 l 1,1,-1
 114 1274 l 1,2,-1
 114 1582 l 1,3,-1
 894 1154 l 1,4,-1
 894 806 l 1,5,-1
 114 350 l 1,6,-1
 114 682 l 1,0,-1
90 114 m 1,7,-1
 916 114 l 1,8,-1
 916 0 l 1,9,-1
 90 0 l 1,10,-1
 90 114 l 1,7,-1
EndSplineSet
EndChar

StartChar: lozenge
Encoding: 9674 9674 396
Width: 1043
Flags: W
LayerCount: 2
Fore
SplineSet
686 710 m 1,0,-1
 518 1236 l 1,1,-1
 334 710 l 1,2,-1
 518 172 l 1,3,-1
 686 710 l 1,0,-1
56 710 m 1,4,-1
 314 1408 l 1,5,-1
 712 1408 l 1,6,-1
 988 710 l 1,7,-1
 712 0 l 1,8,-1
 314 0 l 1,9,-1
 56 710 l 1,4,-1
EndSplineSet
EndChar

StartChar: fi
Encoding: 64257 64257 398
Width: 1733
Flags: W
LayerCount: 2
Fore
SplineSet
1716 38 m 1,0,1
 1594 -32 1594 -32 1448 -32 c 0,2,3
 1321.783584 -32 1321.783584 -32 1238.40364694 27.8332624408 c 128,-1,4
 1155.02370988 87.6665248815 1155.02370988 87.6665248815 1115.5 191.5 c 0,5,6
 1086 269 1086 269 1086 378 c 2,7,-1
 1086 772 l 1,8,-1
 612 772 l 1,9,-1
 612 0 l 1,10,-1
 180 0 l 1,11,-1
 180 772 l 1,12,-1
 52 772 l 1,13,-1
 52 1026 l 1,14,-1
 180 1026 l 1,15,-1
 180 1136 l 2,16,17
 180 1343 180 1343 272.5 1457.5 c 128,-1,18
 365 1572 365 1572 554 1572 c 0,19,20
 713 1572 713 1572 888 1494 c 1,21,-1
 874 1216 l 1,22,23
 784 1246 784 1246 728 1246 c 0,24,25
 612 1246 612 1246 612 1122 c 2,26,-1
 612 1026 l 1,27,-1
 1518 1026 l 1,28,-1
 1518 408 l 2,29,30
 1518 357 1518 357 1540.5 328.5 c 128,-1,31
 1563 300 1563 300 1606 300 c 128,-1,32
 1649 300 1649 300 1694 324 c 1,33,-1
 1716 38 l 1,0,1
1076 1366 m 0,34,35
 1076 1433.40448022 1076 1433.40448022 1117.55245152 1482.68713178 c 128,-1,36
 1159.10490304 1531.96978334 1159.10490304 1531.96978334 1219 1555.5 c 0,37,38
 1261 1572 1261 1572 1308 1572 c 0,39,40
 1381.0250622 1572 1381.0250622 1572 1435.85483331 1536.19282458 c 128,-1,41
 1490.68460443 1500.38564916 1490.68460443 1500.38564916 1519 1444.5 c 0,42,43
 1538 1407 1538 1407 1538 1366 c 0,44,45
 1538 1296.75247105 1538 1296.75247105 1497.02905411 1247.05008771 c 128,-1,46
 1456.05810823 1197.34770438 1456.05810823 1197.34770438 1395.5 1174 c 0,47,48
 1354 1158 1354 1158 1308 1158 c 0,49,50
 1233.43571154 1158 1233.43571154 1158 1178.48556881 1193.09004004 c 128,-1,51
 1123.53542609 1228.18008009 1123.53542609 1228.18008009 1095 1284.5 c 0,52,53
 1076 1322 1076 1322 1076 1366 c 0,34,35
EndSplineSet
EndChar

StartChar: fl
Encoding: 64258 64258 399
Width: 1709
Flags: W
LayerCount: 2
Fore
SplineSet
826 1246 m 0,0,1
 612 1246 612 1246 612 1122 c 2,2,-1
 612 1026 l 1,3,-1
 870 1026 l 1,4,-1
 870 772 l 1,5,-1
 612 772 l 1,6,-1
 612 0 l 1,7,-1
 180 0 l 1,8,-1
 180 772 l 1,9,-1
 52 772 l 1,10,-1
 52 1026 l 1,11,-1
 180 1026 l 1,12,-1
 180 1136 l 2,13,14
 180 1197.62360731 180 1197.62360731 194.544387902 1248.87319292 c 128,-1,15
 209.088775803 1300.12277853 209.088775803 1300.12277853 236.944284806 1338.21882505 c 128,-1,16
 264.799793808 1376.31487158 264.799793808 1376.31487158 301.007388939 1405.71071065 c 128,-1,17
 337.21498407 1435.10654973 337.21498407 1435.10654973 385.033538085 1455.87384752 c 128,-1,18
 432.8520921 1476.64114532 432.8520921 1476.64114532 482.530954501 1490.191971 c 128,-1,19
 532.209816902 1503.74279669 532.209816902 1503.74279669 591.5 1513 c 0,20,21
 726 1534 726 1534 902 1534 c 0,22,23
 973.636363636 1534 973.636363636 1534 1102.5 1513 c 0,24,25
 1208.78619154 1495.67928731 1208.78619154 1495.67928731 1488 1436 c 1,26,-1
 1488 408 l 2,27,28
 1488 300 1488 300 1586 300 c 0,29,30
 1629 300 1629 300 1674 324 c 1,31,-1
 1698 38 l 1,32,33
 1564 -32 1564 -32 1418 -32 c 0,34,35
 1333.20521905 -32 1333.20521905 -32 1265.85757358 -2.7978736321 c 128,-1,36
 1198.50992812 26.4042527358 1198.50992812 26.4042527358 1155.33458987 75.1630930185 c 128,-1,37
 1112.15925163 123.921933301 1112.15925163 123.921933301 1086 191.5 c 0,38,39
 1056 269 1056 269 1056 378 c 2,40,-1
 1056 1228 l 1,41,42
 921 1246 921 1246 826 1246 c 0,0,1
EndSplineSet
EndChar
